G04 (created by PCBNEW-RS274X (2011-05-25)-stable) date Tue 16 Oct 2012 02:48:12 PM COT*
G01*
G70*
G90*
%MOIN*%
G04 Gerber Fmt 3.4, Leading zero omitted, Abs format*
%FSLAX34Y34*%
G04 APERTURE LIST*
%ADD10C,0.006000*%
%ADD11C,0.060000*%
%ADD12C,0.055000*%
%ADD13O,0.059300X0.118700*%
%ADD14O,0.118700X0.059300*%
%ADD15R,0.060000X0.060000*%
%ADD16C,0.066000*%
%ADD17C,0.080000*%
%ADD18C,0.070000*%
%ADD19O,0.090000X0.062000*%
%ADD20R,0.090000X0.062000*%
%ADD21C,0.100000*%
%ADD22C,0.035000*%
%ADD23C,0.016000*%
%ADD24C,0.027000*%
%ADD25C,0.010000*%
G04 APERTURE END LIST*
G54D10*
G54D11*
X66170Y-29626D03*
X66170Y-30414D03*
X66170Y-31201D03*
X66170Y-31989D03*
X66170Y-32776D03*
X66170Y-33563D03*
X66170Y-34351D03*
X66170Y-35138D03*
X66170Y-35926D03*
X66170Y-36713D03*
X74830Y-36713D03*
X74830Y-35926D03*
X74830Y-35138D03*
X74830Y-34351D03*
X74830Y-33563D03*
X74830Y-32776D03*
X74830Y-31989D03*
X74830Y-31201D03*
X74830Y-30414D03*
X74830Y-29626D03*
G54D12*
X65500Y-26000D03*
X68500Y-26000D03*
X71500Y-25000D03*
X68500Y-25000D03*
X57500Y-36000D03*
X57500Y-39000D03*
X55750Y-34500D03*
X55750Y-37500D03*
X71750Y-26000D03*
X74750Y-26000D03*
X56500Y-22500D03*
X59500Y-22500D03*
G54D13*
X67000Y-23000D03*
X68000Y-23000D03*
X69000Y-23000D03*
G54D14*
X57500Y-24500D03*
X57500Y-23500D03*
X57500Y-27000D03*
X57500Y-26000D03*
G54D15*
X65000Y-22500D03*
G54D11*
X65000Y-23500D03*
X64000Y-22500D03*
X64000Y-23500D03*
X63000Y-22500D03*
X63000Y-23500D03*
X62000Y-22500D03*
X62000Y-23500D03*
X61000Y-22500D03*
X61000Y-23500D03*
G54D16*
X73250Y-23000D03*
X73250Y-24000D03*
X71500Y-24000D03*
X71500Y-23000D03*
X59750Y-38000D03*
X58750Y-38000D03*
X59750Y-36000D03*
X58750Y-36000D03*
G54D17*
X58000Y-29500D03*
G54D18*
X58000Y-33500D03*
G54D19*
X61000Y-27000D03*
X61000Y-28000D03*
X61000Y-29000D03*
X61000Y-30000D03*
X61000Y-31000D03*
X61000Y-32000D03*
X61000Y-33000D03*
X61000Y-34000D03*
X61000Y-35000D03*
X61000Y-36000D03*
X61000Y-37000D03*
X61000Y-38000D03*
X61000Y-39000D03*
G54D20*
X61000Y-26000D03*
G54D19*
X64000Y-39000D03*
X64000Y-38000D03*
X64000Y-37000D03*
X64000Y-36000D03*
X64000Y-35000D03*
X64000Y-34000D03*
X64000Y-33000D03*
X64000Y-32000D03*
X64000Y-31000D03*
X64000Y-30000D03*
X64000Y-29000D03*
X64000Y-28000D03*
X64000Y-27000D03*
X64000Y-26000D03*
G54D12*
X55500Y-33500D03*
X55500Y-32500D03*
X55500Y-28500D03*
X55500Y-29500D03*
G54D15*
X69000Y-20000D03*
G54D11*
X69000Y-21000D03*
X68000Y-20000D03*
X68000Y-21000D03*
X67000Y-20000D03*
X67000Y-21000D03*
G54D12*
X73250Y-21750D03*
X72250Y-21750D03*
G54D15*
X59500Y-20500D03*
G54D11*
X60500Y-20500D03*
X61500Y-20500D03*
X62500Y-20500D03*
X63500Y-20500D03*
X64500Y-20500D03*
G54D21*
X74500Y-20000D03*
X74500Y-39000D03*
X56000Y-39000D03*
X56500Y-20000D03*
G54D22*
X60500Y-20500D03*
G54D23*
X74500Y-40500D02*
X75750Y-40500D01*
X75750Y-40500D02*
X75700Y-40450D01*
X75700Y-40450D02*
X75700Y-39950D01*
X54500Y-40500D02*
X74500Y-40500D01*
X54550Y-40250D02*
X54500Y-40500D01*
X54550Y-18750D02*
X54550Y-40250D01*
X54500Y-18500D02*
X54550Y-18750D01*
X75700Y-18500D02*
X54500Y-18500D01*
X75700Y-39950D02*
X75700Y-18500D01*
X59500Y-22500D02*
X59500Y-24500D01*
X59500Y-24500D02*
X61000Y-26000D01*
X59000Y-22000D02*
X59750Y-21750D01*
X65250Y-21750D02*
X67000Y-23000D01*
X59750Y-21750D02*
X65250Y-21750D01*
X59000Y-25000D02*
X59000Y-22000D01*
X61000Y-27000D02*
X59000Y-25000D01*
X66170Y-30414D02*
X66586Y-30414D01*
X66586Y-30414D02*
X67000Y-30000D01*
X67000Y-30000D02*
X67000Y-23000D01*
X64000Y-26000D02*
X64000Y-24500D01*
X63500Y-23000D02*
X63000Y-22500D01*
X63500Y-24000D02*
X63500Y-23000D01*
X64000Y-24500D02*
X63500Y-24000D01*
X63000Y-23500D02*
X63000Y-26000D01*
X63500Y-27000D02*
X64000Y-27000D01*
X63000Y-26500D02*
X63500Y-27000D01*
X63000Y-26000D02*
X63000Y-26500D01*
X66170Y-31201D02*
X66299Y-31201D01*
X68000Y-24000D02*
X68000Y-23000D01*
X67500Y-24500D02*
X68000Y-24000D01*
X67500Y-30000D02*
X67500Y-24500D01*
X66299Y-31201D02*
X67500Y-30000D01*
G54D24*
X55750Y-34500D02*
X56000Y-34500D01*
X56000Y-34500D02*
X57500Y-36000D01*
X61000Y-33000D02*
X61500Y-33000D01*
X61500Y-33000D02*
X63000Y-34500D01*
X63000Y-39500D02*
X63500Y-40000D01*
X63000Y-34500D02*
X63000Y-39500D01*
X63500Y-40000D02*
X64000Y-40000D01*
X64000Y-40000D02*
X65000Y-40000D01*
X65000Y-40000D02*
X66170Y-38830D01*
X66170Y-38830D02*
X66170Y-36713D01*
X71500Y-23000D02*
X71500Y-22500D01*
X71500Y-22500D02*
X72250Y-21750D01*
X60500Y-20500D02*
X60500Y-20000D01*
X65500Y-19500D02*
X67000Y-21000D01*
X61000Y-19500D02*
X65500Y-19500D01*
X60500Y-20000D02*
X61000Y-19500D01*
X66170Y-36713D02*
X71287Y-36713D01*
X71287Y-36713D02*
X73000Y-35000D01*
X73000Y-35000D02*
X73649Y-34351D01*
X73649Y-34351D02*
X74830Y-34351D01*
X55500Y-29500D02*
X55500Y-32500D01*
X69000Y-23000D02*
X71500Y-23000D01*
G54D23*
X55750Y-37500D02*
X57250Y-37500D01*
X57250Y-37500D02*
X58750Y-36000D01*
X58000Y-29500D02*
X57000Y-28500D01*
X57000Y-28500D02*
X55500Y-28500D01*
X61000Y-34000D02*
X60500Y-34000D01*
X59000Y-30500D02*
X58000Y-29500D01*
X59000Y-32500D02*
X59000Y-30500D01*
X60500Y-34000D02*
X59000Y-32500D01*
X55500Y-33500D02*
X58000Y-33500D01*
X58000Y-33500D02*
X58500Y-33500D01*
X60000Y-35000D02*
X61000Y-35000D01*
X58500Y-33500D02*
X60000Y-35000D01*
G54D24*
X64000Y-34000D02*
X64000Y-33000D01*
G54D23*
X59750Y-36000D02*
X59750Y-36250D01*
X60500Y-37000D02*
X61000Y-37000D01*
X59750Y-36250D02*
X60500Y-37000D01*
X59750Y-38000D02*
X61000Y-38000D01*
X57500Y-24500D02*
X57500Y-26000D01*
X57500Y-39000D02*
X57750Y-39000D01*
X57750Y-39000D02*
X58750Y-38000D01*
X65500Y-26000D02*
X65500Y-32250D01*
X66026Y-32776D02*
X66170Y-32776D01*
X65500Y-32250D02*
X66026Y-32776D01*
X71500Y-25000D02*
X71500Y-24000D01*
X66170Y-31989D02*
X66511Y-31989D01*
X68000Y-25500D02*
X68500Y-25000D01*
X68000Y-30500D02*
X68000Y-25500D01*
X66511Y-31989D02*
X68000Y-30500D01*
X73250Y-24000D02*
X73250Y-32500D01*
X73250Y-32500D02*
X74313Y-33563D01*
X74313Y-33563D02*
X74830Y-33563D01*
X74830Y-33563D02*
X74313Y-33563D01*
X74750Y-26000D02*
X74750Y-25250D01*
X74000Y-23750D02*
X73250Y-23000D01*
X74000Y-24500D02*
X74000Y-23750D01*
X74750Y-25250D02*
X74000Y-24500D01*
G54D24*
X69000Y-21000D02*
X73000Y-21000D01*
X73250Y-21750D02*
X73250Y-21250D01*
X73250Y-21250D02*
X73000Y-21000D01*
X73000Y-21000D02*
X71000Y-19000D01*
X59500Y-20500D02*
X59500Y-20000D01*
X71000Y-19000D02*
X60500Y-19000D01*
X59500Y-20000D02*
X60500Y-19000D01*
X56500Y-22500D02*
X57500Y-22500D01*
X57500Y-22500D02*
X59500Y-20500D01*
X65000Y-22500D02*
X66000Y-23500D01*
X66500Y-29296D02*
X66170Y-29626D01*
X66500Y-25500D02*
X66500Y-29296D01*
X66000Y-25000D02*
X66500Y-25500D01*
X66000Y-23500D02*
X66000Y-25000D01*
X57500Y-27000D02*
X57500Y-27500D01*
X57500Y-27500D02*
X59500Y-29500D01*
X59500Y-29500D02*
X59500Y-31000D01*
X59500Y-31000D02*
X60500Y-32000D01*
X60500Y-32000D02*
X61000Y-32000D01*
X68500Y-26000D02*
X71750Y-26000D01*
X57500Y-27000D02*
X57000Y-27000D01*
X56000Y-23000D02*
X56500Y-22500D01*
X56000Y-26000D02*
X56000Y-23000D01*
X57000Y-27000D02*
X56000Y-26000D01*
G54D10*
G36*
X58470Y-24163D02*
X58438Y-24086D01*
X58232Y-23880D01*
X58200Y-23866D01*
X58252Y-23817D01*
X58325Y-23634D01*
X58278Y-23550D01*
X57600Y-23550D01*
X57550Y-23550D01*
X57450Y-23550D01*
X57400Y-23550D01*
X56722Y-23550D01*
X56675Y-23634D01*
X56748Y-23817D01*
X56799Y-23866D01*
X56769Y-23879D01*
X56585Y-24063D01*
X56585Y-23243D01*
X56603Y-23225D01*
X56644Y-23225D01*
X56749Y-23181D01*
X56748Y-23183D01*
X56675Y-23366D01*
X56722Y-23450D01*
X57400Y-23450D01*
X57450Y-23450D01*
X57550Y-23450D01*
X57600Y-23450D01*
X58278Y-23450D01*
X58325Y-23366D01*
X58252Y-23183D01*
X58096Y-23033D01*
X57895Y-22954D01*
X57853Y-22954D01*
X57914Y-22914D01*
X58470Y-22357D01*
X58470Y-24163D01*
X58470Y-24163D01*
G37*
G54D25*
X58470Y-24163D02*
X58438Y-24086D01*
X58232Y-23880D01*
X58200Y-23866D01*
X58252Y-23817D01*
X58325Y-23634D01*
X58278Y-23550D01*
X57600Y-23550D01*
X57550Y-23550D01*
X57450Y-23550D01*
X57400Y-23550D01*
X56722Y-23550D01*
X56675Y-23634D01*
X56748Y-23817D01*
X56799Y-23866D01*
X56769Y-23879D01*
X56585Y-24063D01*
X56585Y-23243D01*
X56603Y-23225D01*
X56644Y-23225D01*
X56749Y-23181D01*
X56748Y-23183D01*
X56675Y-23366D01*
X56722Y-23450D01*
X57400Y-23450D01*
X57450Y-23450D01*
X57550Y-23450D01*
X57600Y-23450D01*
X58278Y-23450D01*
X58325Y-23366D01*
X58252Y-23183D01*
X58096Y-23033D01*
X57895Y-22954D01*
X57853Y-22954D01*
X57914Y-22914D01*
X58470Y-22357D01*
X58470Y-24163D01*
G54D10*
G36*
X58875Y-33125D02*
X58703Y-33010D01*
X58624Y-32994D01*
X58453Y-32823D01*
X58160Y-32701D01*
X57842Y-32701D01*
X57548Y-32822D01*
X57400Y-32970D01*
X56019Y-32970D01*
X55995Y-32970D01*
X55911Y-32886D01*
X55881Y-32873D01*
X55948Y-32807D01*
X55916Y-32775D01*
X55952Y-32767D01*
X56019Y-32574D01*
X56008Y-32370D01*
X55952Y-32233D01*
X55861Y-32210D01*
X55790Y-32281D01*
X55790Y-32139D01*
X55790Y-29861D01*
X55500Y-29571D01*
X55210Y-29861D01*
X55233Y-29952D01*
X55426Y-30019D01*
X55630Y-30008D01*
X55767Y-29952D01*
X55790Y-29861D01*
X55790Y-32139D01*
X55767Y-32048D01*
X55574Y-31981D01*
X55370Y-31992D01*
X55233Y-32048D01*
X55210Y-32139D01*
X55500Y-32429D01*
X55790Y-32139D01*
X55790Y-32281D01*
X55606Y-32465D01*
X55571Y-32500D01*
X55500Y-32571D01*
X55429Y-32500D01*
X55394Y-32465D01*
X55139Y-32210D01*
X55080Y-32224D01*
X55080Y-29775D01*
X55139Y-29790D01*
X55394Y-29535D01*
X55429Y-29500D01*
X55500Y-29429D01*
X55571Y-29500D01*
X55606Y-29535D01*
X55861Y-29790D01*
X55952Y-29767D01*
X56019Y-29574D01*
X56008Y-29370D01*
X55952Y-29233D01*
X55916Y-29224D01*
X55948Y-29193D01*
X55881Y-29126D01*
X55910Y-29115D01*
X55995Y-29030D01*
X56780Y-29030D01*
X57150Y-29400D01*
X57150Y-29668D01*
X57279Y-29980D01*
X57518Y-30220D01*
X57830Y-30350D01*
X58100Y-30350D01*
X58470Y-30720D01*
X58470Y-32500D01*
X58510Y-32703D01*
X58625Y-32875D01*
X58875Y-33125D01*
X58875Y-33125D01*
G37*
G54D25*
X58875Y-33125D02*
X58703Y-33010D01*
X58624Y-32994D01*
X58453Y-32823D01*
X58160Y-32701D01*
X57842Y-32701D01*
X57548Y-32822D01*
X57400Y-32970D01*
X56019Y-32970D01*
X55995Y-32970D01*
X55911Y-32886D01*
X55881Y-32873D01*
X55948Y-32807D01*
X55916Y-32775D01*
X55952Y-32767D01*
X56019Y-32574D01*
X56008Y-32370D01*
X55952Y-32233D01*
X55861Y-32210D01*
X55790Y-32281D01*
X55790Y-32139D01*
X55790Y-29861D01*
X55500Y-29571D01*
X55210Y-29861D01*
X55233Y-29952D01*
X55426Y-30019D01*
X55630Y-30008D01*
X55767Y-29952D01*
X55790Y-29861D01*
X55790Y-32139D01*
X55767Y-32048D01*
X55574Y-31981D01*
X55370Y-31992D01*
X55233Y-32048D01*
X55210Y-32139D01*
X55500Y-32429D01*
X55790Y-32139D01*
X55790Y-32281D01*
X55606Y-32465D01*
X55571Y-32500D01*
X55500Y-32571D01*
X55429Y-32500D01*
X55394Y-32465D01*
X55139Y-32210D01*
X55080Y-32224D01*
X55080Y-29775D01*
X55139Y-29790D01*
X55394Y-29535D01*
X55429Y-29500D01*
X55500Y-29429D01*
X55571Y-29500D01*
X55606Y-29535D01*
X55861Y-29790D01*
X55952Y-29767D01*
X56019Y-29574D01*
X56008Y-29370D01*
X55952Y-29233D01*
X55916Y-29224D01*
X55948Y-29193D01*
X55881Y-29126D01*
X55910Y-29115D01*
X55995Y-29030D01*
X56780Y-29030D01*
X57150Y-29400D01*
X57150Y-29668D01*
X57279Y-29980D01*
X57518Y-30220D01*
X57830Y-30350D01*
X58100Y-30350D01*
X58470Y-30720D01*
X58470Y-32500D01*
X58510Y-32703D01*
X58625Y-32875D01*
X58875Y-33125D01*
G54D10*
G36*
X59506Y-35256D02*
X59309Y-35338D01*
X59250Y-35397D01*
X59193Y-35340D01*
X58906Y-35220D01*
X58596Y-35220D01*
X58309Y-35338D01*
X58090Y-35557D01*
X57983Y-35810D01*
X57952Y-35733D01*
X57861Y-35710D01*
X57790Y-35781D01*
X57790Y-35639D01*
X57767Y-35548D01*
X57574Y-35481D01*
X57370Y-35492D01*
X57233Y-35548D01*
X57210Y-35639D01*
X57500Y-35929D01*
X57790Y-35639D01*
X57790Y-35781D01*
X57606Y-35965D01*
X57571Y-36000D01*
X57500Y-36071D01*
X57465Y-36106D01*
X57429Y-36142D01*
X57429Y-36000D01*
X57139Y-35710D01*
X57048Y-35733D01*
X56981Y-35926D01*
X56992Y-36130D01*
X57048Y-36267D01*
X57139Y-36290D01*
X57429Y-36000D01*
X57429Y-36142D01*
X57210Y-36361D01*
X57233Y-36452D01*
X57426Y-36519D01*
X57484Y-36515D01*
X57030Y-36970D01*
X56269Y-36970D01*
X56269Y-34574D01*
X56258Y-34370D01*
X56202Y-34233D01*
X56111Y-34210D01*
X55821Y-34500D01*
X56111Y-34790D01*
X56202Y-34767D01*
X56269Y-34574D01*
X56269Y-36970D01*
X56245Y-36970D01*
X56161Y-36886D01*
X56040Y-36835D01*
X56040Y-34861D01*
X55750Y-34571D01*
X55460Y-34861D01*
X55483Y-34952D01*
X55676Y-35019D01*
X55880Y-35008D01*
X56017Y-34952D01*
X56040Y-34861D01*
X56040Y-36835D01*
X55894Y-36775D01*
X55606Y-36775D01*
X55340Y-36885D01*
X55136Y-37089D01*
X55080Y-37223D01*
X55080Y-34105D01*
X55089Y-34114D01*
X55317Y-34208D01*
X55332Y-34223D01*
X55298Y-34233D01*
X55231Y-34426D01*
X55242Y-34630D01*
X55298Y-34767D01*
X55389Y-34790D01*
X55644Y-34535D01*
X55679Y-34500D01*
X55750Y-34429D01*
X55785Y-34394D01*
X56040Y-34139D01*
X56017Y-34048D01*
X55987Y-34037D01*
X55995Y-34030D01*
X57400Y-34030D01*
X57547Y-34177D01*
X57840Y-34299D01*
X58158Y-34299D01*
X58434Y-34184D01*
X59506Y-35256D01*
X59506Y-35256D01*
G37*
G54D25*
X59506Y-35256D02*
X59309Y-35338D01*
X59250Y-35397D01*
X59193Y-35340D01*
X58906Y-35220D01*
X58596Y-35220D01*
X58309Y-35338D01*
X58090Y-35557D01*
X57983Y-35810D01*
X57952Y-35733D01*
X57861Y-35710D01*
X57790Y-35781D01*
X57790Y-35639D01*
X57767Y-35548D01*
X57574Y-35481D01*
X57370Y-35492D01*
X57233Y-35548D01*
X57210Y-35639D01*
X57500Y-35929D01*
X57790Y-35639D01*
X57790Y-35781D01*
X57606Y-35965D01*
X57571Y-36000D01*
X57500Y-36071D01*
X57465Y-36106D01*
X57429Y-36142D01*
X57429Y-36000D01*
X57139Y-35710D01*
X57048Y-35733D01*
X56981Y-35926D01*
X56992Y-36130D01*
X57048Y-36267D01*
X57139Y-36290D01*
X57429Y-36000D01*
X57429Y-36142D01*
X57210Y-36361D01*
X57233Y-36452D01*
X57426Y-36519D01*
X57484Y-36515D01*
X57030Y-36970D01*
X56269Y-36970D01*
X56269Y-34574D01*
X56258Y-34370D01*
X56202Y-34233D01*
X56111Y-34210D01*
X55821Y-34500D01*
X56111Y-34790D01*
X56202Y-34767D01*
X56269Y-34574D01*
X56269Y-36970D01*
X56245Y-36970D01*
X56161Y-36886D01*
X56040Y-36835D01*
X56040Y-34861D01*
X55750Y-34571D01*
X55460Y-34861D01*
X55483Y-34952D01*
X55676Y-35019D01*
X55880Y-35008D01*
X56017Y-34952D01*
X56040Y-34861D01*
X56040Y-36835D01*
X55894Y-36775D01*
X55606Y-36775D01*
X55340Y-36885D01*
X55136Y-37089D01*
X55080Y-37223D01*
X55080Y-34105D01*
X55089Y-34114D01*
X55317Y-34208D01*
X55332Y-34223D01*
X55298Y-34233D01*
X55231Y-34426D01*
X55242Y-34630D01*
X55298Y-34767D01*
X55389Y-34790D01*
X55644Y-34535D01*
X55679Y-34500D01*
X55750Y-34429D01*
X55785Y-34394D01*
X56040Y-34139D01*
X56017Y-34048D01*
X55987Y-34037D01*
X55995Y-34030D01*
X57400Y-34030D01*
X57547Y-34177D01*
X57840Y-34299D01*
X58158Y-34299D01*
X58434Y-34184D01*
X59506Y-35256D01*
G54D10*
G36*
X60571Y-20500D02*
X60500Y-20571D01*
X60429Y-20500D01*
X60500Y-20429D01*
X60571Y-20500D01*
X60571Y-20500D01*
G37*
G54D25*
X60571Y-20500D02*
X60500Y-20571D01*
X60429Y-20500D01*
X60500Y-20429D01*
X60571Y-20500D01*
G54D10*
G36*
X65493Y-25275D02*
X65356Y-25275D01*
X65308Y-25294D01*
X65090Y-25385D01*
X64886Y-25589D01*
X64840Y-25699D01*
X64790Y-25578D01*
X64580Y-25368D01*
X64530Y-25347D01*
X64530Y-24500D01*
X64490Y-24297D01*
X64390Y-24148D01*
X64423Y-24135D01*
X64634Y-23925D01*
X64675Y-23966D01*
X64707Y-23933D01*
X64719Y-23972D01*
X64921Y-24043D01*
X65134Y-24032D01*
X65281Y-23972D01*
X65308Y-23878D01*
X65035Y-23606D01*
X65000Y-23571D01*
X64929Y-23500D01*
X65000Y-23429D01*
X65071Y-23500D01*
X65106Y-23535D01*
X65378Y-23808D01*
X65415Y-23797D01*
X65415Y-25000D01*
X65460Y-25224D01*
X65493Y-25275D01*
X65493Y-25275D01*
G37*
G54D25*
X65493Y-25275D02*
X65356Y-25275D01*
X65308Y-25294D01*
X65090Y-25385D01*
X64886Y-25589D01*
X64840Y-25699D01*
X64790Y-25578D01*
X64580Y-25368D01*
X64530Y-25347D01*
X64530Y-24500D01*
X64490Y-24297D01*
X64390Y-24148D01*
X64423Y-24135D01*
X64634Y-23925D01*
X64675Y-23966D01*
X64707Y-23933D01*
X64719Y-23972D01*
X64921Y-24043D01*
X65134Y-24032D01*
X65281Y-23972D01*
X65308Y-23878D01*
X65035Y-23606D01*
X65000Y-23571D01*
X64929Y-23500D01*
X65000Y-23429D01*
X65071Y-23500D01*
X65106Y-23535D01*
X65378Y-23808D01*
X65415Y-23797D01*
X65415Y-25000D01*
X65460Y-25224D01*
X65493Y-25275D01*
G54D10*
G36*
X74901Y-34351D02*
X74863Y-34389D01*
X74797Y-34389D01*
X74759Y-34351D01*
X74798Y-34312D01*
X74862Y-34312D01*
X74901Y-34351D01*
X74901Y-34351D01*
G37*
G54D25*
X74901Y-34351D02*
X74863Y-34389D01*
X74797Y-34389D01*
X74759Y-34351D01*
X74798Y-34312D01*
X74862Y-34312D01*
X74901Y-34351D01*
G54D10*
G36*
X75170Y-39970D02*
X74500Y-39970D01*
X66478Y-39970D01*
X66478Y-37091D01*
X66170Y-36784D01*
X65862Y-37091D01*
X65889Y-37185D01*
X66091Y-37256D01*
X66304Y-37245D01*
X66451Y-37185D01*
X66478Y-37091D01*
X66478Y-39970D01*
X55080Y-39970D01*
X55080Y-39260D01*
X55194Y-39537D01*
X55461Y-39805D01*
X55810Y-39950D01*
X56188Y-39950D01*
X56537Y-39806D01*
X56805Y-39539D01*
X56871Y-39378D01*
X56885Y-39410D01*
X57089Y-39614D01*
X57356Y-39725D01*
X57644Y-39725D01*
X57910Y-39615D01*
X58114Y-39411D01*
X58131Y-39368D01*
X58720Y-38780D01*
X58904Y-38780D01*
X59191Y-38662D01*
X59250Y-38603D01*
X59307Y-38660D01*
X59594Y-38780D01*
X59904Y-38780D01*
X60172Y-38669D01*
X60097Y-38851D01*
X60097Y-39148D01*
X60210Y-39422D01*
X60420Y-39632D01*
X60694Y-39746D01*
X60991Y-39746D01*
X61305Y-39746D01*
X61579Y-39633D01*
X61789Y-39423D01*
X61903Y-39149D01*
X61903Y-38852D01*
X61790Y-38578D01*
X61712Y-38500D01*
X61789Y-38423D01*
X61903Y-38149D01*
X61903Y-37852D01*
X61790Y-37578D01*
X61712Y-37500D01*
X61789Y-37423D01*
X61903Y-37149D01*
X61903Y-36852D01*
X61790Y-36578D01*
X61712Y-36500D01*
X61789Y-36423D01*
X61903Y-36149D01*
X61903Y-35852D01*
X61790Y-35578D01*
X61712Y-35500D01*
X61789Y-35423D01*
X61903Y-35149D01*
X61903Y-34852D01*
X61790Y-34578D01*
X61712Y-34500D01*
X61789Y-34423D01*
X61903Y-34149D01*
X61903Y-33852D01*
X61790Y-33578D01*
X61580Y-33368D01*
X61563Y-33360D01*
X61665Y-33196D01*
X61682Y-33137D01*
X61635Y-33050D01*
X61100Y-33050D01*
X61050Y-33050D01*
X60950Y-33050D01*
X60900Y-33050D01*
X60365Y-33050D01*
X60342Y-33092D01*
X59530Y-32280D01*
X59530Y-31858D01*
X60086Y-32414D01*
X60276Y-32540D01*
X60341Y-32553D01*
X60420Y-32632D01*
X60436Y-32639D01*
X60335Y-32804D01*
X60318Y-32863D01*
X60365Y-32950D01*
X60900Y-32950D01*
X60950Y-32950D01*
X61050Y-32950D01*
X61100Y-32950D01*
X61635Y-32950D01*
X61682Y-32863D01*
X61665Y-32804D01*
X61563Y-32639D01*
X61579Y-32633D01*
X61789Y-32423D01*
X61903Y-32149D01*
X61903Y-31852D01*
X61790Y-31578D01*
X61712Y-31500D01*
X61789Y-31423D01*
X61903Y-31149D01*
X61903Y-30852D01*
X61790Y-30578D01*
X61712Y-30500D01*
X61789Y-30423D01*
X61903Y-30149D01*
X61903Y-29852D01*
X61790Y-29578D01*
X61712Y-29500D01*
X61789Y-29423D01*
X61903Y-29149D01*
X61903Y-28852D01*
X61790Y-28578D01*
X61712Y-28500D01*
X61789Y-28423D01*
X61903Y-28149D01*
X61903Y-27852D01*
X61790Y-27578D01*
X61712Y-27500D01*
X61789Y-27423D01*
X61903Y-27149D01*
X61903Y-26852D01*
X61797Y-26597D01*
X61830Y-26565D01*
X61899Y-26400D01*
X61899Y-26221D01*
X61899Y-25601D01*
X61831Y-25436D01*
X61705Y-25310D01*
X61540Y-25241D01*
X61361Y-25241D01*
X61308Y-25241D01*
X60991Y-25241D01*
X60030Y-24280D01*
X60030Y-22995D01*
X60114Y-22911D01*
X60225Y-22644D01*
X60225Y-22356D01*
X60193Y-22280D01*
X60506Y-22280D01*
X60457Y-22421D01*
X60468Y-22634D01*
X60528Y-22781D01*
X60622Y-22808D01*
X60894Y-22535D01*
X60929Y-22500D01*
X61000Y-22429D01*
X61071Y-22500D01*
X61000Y-22571D01*
X60692Y-22878D01*
X60719Y-22972D01*
X60792Y-22997D01*
X60719Y-23028D01*
X60692Y-23122D01*
X60965Y-23394D01*
X61000Y-23429D01*
X61071Y-23500D01*
X61000Y-23571D01*
X60929Y-23641D01*
X60929Y-23500D01*
X60622Y-23192D01*
X60528Y-23219D01*
X60457Y-23421D01*
X60468Y-23634D01*
X60528Y-23781D01*
X60622Y-23808D01*
X60929Y-23500D01*
X60929Y-23641D01*
X60692Y-23878D01*
X60719Y-23972D01*
X60921Y-24043D01*
X61134Y-24032D01*
X61281Y-23972D01*
X61292Y-23933D01*
X61308Y-23949D01*
X61325Y-23966D01*
X61366Y-23924D01*
X61575Y-24134D01*
X61850Y-24249D01*
X62148Y-24249D01*
X62423Y-24135D01*
X62470Y-24088D01*
X62470Y-26000D01*
X62470Y-26500D01*
X62510Y-26703D01*
X62625Y-26875D01*
X63125Y-27375D01*
X63239Y-27451D01*
X63288Y-27500D01*
X63211Y-27577D01*
X63097Y-27851D01*
X63097Y-28148D01*
X63210Y-28422D01*
X63288Y-28500D01*
X63211Y-28577D01*
X63097Y-28851D01*
X63097Y-29148D01*
X63210Y-29422D01*
X63288Y-29500D01*
X63211Y-29577D01*
X63097Y-29851D01*
X63097Y-30148D01*
X63210Y-30422D01*
X63288Y-30500D01*
X63211Y-30577D01*
X63097Y-30851D01*
X63097Y-31148D01*
X63210Y-31422D01*
X63288Y-31500D01*
X63211Y-31577D01*
X63097Y-31851D01*
X63097Y-32148D01*
X63210Y-32422D01*
X63288Y-32500D01*
X63211Y-32577D01*
X63097Y-32851D01*
X63097Y-33148D01*
X63210Y-33422D01*
X63288Y-33500D01*
X63211Y-33577D01*
X63097Y-33851D01*
X63097Y-34148D01*
X63210Y-34422D01*
X63288Y-34500D01*
X63211Y-34577D01*
X63097Y-34851D01*
X63097Y-35148D01*
X63210Y-35422D01*
X63288Y-35500D01*
X63211Y-35577D01*
X63097Y-35851D01*
X63097Y-36148D01*
X63210Y-36422D01*
X63288Y-36500D01*
X63211Y-36577D01*
X63097Y-36851D01*
X63097Y-37148D01*
X63210Y-37422D01*
X63288Y-37500D01*
X63211Y-37577D01*
X63097Y-37851D01*
X63097Y-38148D01*
X63210Y-38422D01*
X63288Y-38500D01*
X63211Y-38577D01*
X63097Y-38851D01*
X63097Y-39148D01*
X63210Y-39422D01*
X63420Y-39632D01*
X63694Y-39746D01*
X63991Y-39746D01*
X64305Y-39746D01*
X64579Y-39633D01*
X64789Y-39423D01*
X64903Y-39149D01*
X64903Y-38852D01*
X64790Y-38578D01*
X64712Y-38500D01*
X64789Y-38423D01*
X64903Y-38149D01*
X64903Y-37852D01*
X64790Y-37578D01*
X64712Y-37500D01*
X64789Y-37423D01*
X64903Y-37149D01*
X64903Y-36852D01*
X64790Y-36578D01*
X64712Y-36500D01*
X64789Y-36423D01*
X64903Y-36149D01*
X64903Y-35852D01*
X64790Y-35578D01*
X64712Y-35500D01*
X64789Y-35423D01*
X64903Y-35149D01*
X64903Y-34852D01*
X64790Y-34578D01*
X64712Y-34500D01*
X64789Y-34423D01*
X64903Y-34149D01*
X64903Y-33852D01*
X64790Y-33578D01*
X64712Y-33500D01*
X64789Y-33423D01*
X64903Y-33149D01*
X64903Y-32852D01*
X64790Y-32578D01*
X64712Y-32500D01*
X64789Y-32423D01*
X64903Y-32149D01*
X64903Y-31852D01*
X64790Y-31578D01*
X64712Y-31500D01*
X64789Y-31423D01*
X64903Y-31149D01*
X64903Y-30852D01*
X64790Y-30578D01*
X64712Y-30500D01*
X64789Y-30423D01*
X64903Y-30149D01*
X64903Y-29852D01*
X64790Y-29578D01*
X64712Y-29500D01*
X64789Y-29423D01*
X64903Y-29149D01*
X64903Y-28852D01*
X64790Y-28578D01*
X64712Y-28500D01*
X64789Y-28423D01*
X64903Y-28149D01*
X64903Y-27852D01*
X64790Y-27578D01*
X64712Y-27500D01*
X64789Y-27423D01*
X64903Y-27149D01*
X64903Y-26852D01*
X64790Y-26578D01*
X64712Y-26500D01*
X64789Y-26423D01*
X64839Y-26300D01*
X64885Y-26410D01*
X64970Y-26495D01*
X64970Y-32250D01*
X65010Y-32453D01*
X65125Y-32625D01*
X65421Y-32920D01*
X65421Y-32924D01*
X65522Y-33169D01*
X65421Y-33413D01*
X65421Y-33711D01*
X65523Y-33957D01*
X65421Y-34201D01*
X65421Y-34499D01*
X65522Y-34744D01*
X65421Y-34988D01*
X65421Y-35286D01*
X65523Y-35532D01*
X65421Y-35776D01*
X65421Y-36074D01*
X65535Y-36349D01*
X65677Y-36491D01*
X65627Y-36634D01*
X65638Y-36847D01*
X65698Y-36994D01*
X65792Y-37021D01*
X66064Y-36748D01*
X66099Y-36713D01*
X66137Y-36675D01*
X66203Y-36675D01*
X66241Y-36713D01*
X66276Y-36748D01*
X66548Y-37021D01*
X66642Y-36994D01*
X66713Y-36792D01*
X66702Y-36579D01*
X66665Y-36489D01*
X66804Y-36351D01*
X66919Y-36076D01*
X66919Y-35778D01*
X66816Y-35531D01*
X66919Y-35288D01*
X66919Y-34990D01*
X66817Y-34744D01*
X66919Y-34501D01*
X66919Y-34203D01*
X66816Y-33956D01*
X66919Y-33713D01*
X66919Y-33415D01*
X66817Y-33169D01*
X66919Y-32926D01*
X66919Y-32628D01*
X66826Y-32404D01*
X66886Y-32364D01*
X68371Y-30877D01*
X68374Y-30875D01*
X68375Y-30875D01*
X68489Y-30703D01*
X68490Y-30703D01*
X68523Y-30534D01*
X68530Y-30501D01*
X68529Y-30500D01*
X68530Y-30500D01*
X68530Y-26725D01*
X68644Y-26725D01*
X68910Y-26615D01*
X68940Y-26585D01*
X71310Y-26585D01*
X71339Y-26614D01*
X71606Y-26725D01*
X71894Y-26725D01*
X72160Y-26615D01*
X72364Y-26411D01*
X72475Y-26144D01*
X72475Y-25856D01*
X72365Y-25590D01*
X72161Y-25386D01*
X72129Y-25373D01*
X72225Y-25144D01*
X72225Y-24856D01*
X72115Y-24590D01*
X72064Y-24539D01*
X72160Y-24443D01*
X72280Y-24156D01*
X72280Y-23846D01*
X72162Y-23559D01*
X71968Y-23365D01*
X71988Y-23346D01*
X71953Y-23311D01*
X71996Y-23298D01*
X72073Y-23086D01*
X72062Y-22861D01*
X71996Y-22702D01*
X71900Y-22671D01*
X71829Y-22742D01*
X71829Y-22600D01*
X71798Y-22504D01*
X71586Y-22427D01*
X71361Y-22438D01*
X71202Y-22504D01*
X71171Y-22600D01*
X71500Y-22929D01*
X71829Y-22600D01*
X71829Y-22742D01*
X71606Y-22965D01*
X71571Y-23000D01*
X71500Y-23071D01*
X71429Y-23000D01*
X71394Y-22965D01*
X71100Y-22671D01*
X71004Y-22702D01*
X70927Y-22914D01*
X70938Y-23139D01*
X71004Y-23298D01*
X71046Y-23311D01*
X71012Y-23346D01*
X71031Y-23365D01*
X70840Y-23557D01*
X70720Y-23844D01*
X70720Y-24154D01*
X70838Y-24441D01*
X70936Y-24539D01*
X70886Y-24589D01*
X70775Y-24856D01*
X70775Y-25144D01*
X70885Y-25410D01*
X70890Y-25415D01*
X69546Y-25415D01*
X69546Y-23395D01*
X69546Y-23050D01*
X69546Y-22950D01*
X69546Y-22605D01*
X69467Y-22404D01*
X69317Y-22248D01*
X69134Y-22175D01*
X69050Y-22222D01*
X69050Y-22950D01*
X69546Y-22950D01*
X69546Y-23050D01*
X69050Y-23050D01*
X69050Y-23778D01*
X69134Y-23825D01*
X69317Y-23752D01*
X69467Y-23596D01*
X69546Y-23395D01*
X69546Y-25415D01*
X69110Y-25415D01*
X69114Y-25411D01*
X69225Y-25144D01*
X69225Y-24856D01*
X69115Y-24590D01*
X68911Y-24386D01*
X68644Y-24275D01*
X68441Y-24275D01*
X68490Y-24203D01*
X68530Y-24000D01*
X68530Y-23822D01*
X68620Y-23732D01*
X68633Y-23700D01*
X68683Y-23752D01*
X68866Y-23825D01*
X68950Y-23778D01*
X68950Y-23100D01*
X68950Y-23050D01*
X68950Y-22950D01*
X68950Y-22900D01*
X68950Y-22222D01*
X68866Y-22175D01*
X68683Y-22248D01*
X68633Y-22299D01*
X68621Y-22269D01*
X68415Y-22063D01*
X68146Y-21951D01*
X67855Y-21951D01*
X67586Y-22062D01*
X67500Y-22148D01*
X67415Y-22063D01*
X67308Y-22018D01*
X67146Y-21951D01*
X66855Y-21951D01*
X66594Y-22058D01*
X65558Y-21319D01*
X65505Y-21295D01*
X65453Y-21260D01*
X65409Y-21251D01*
X65369Y-21233D01*
X65306Y-21231D01*
X65250Y-21220D01*
X64717Y-21220D01*
X64923Y-21135D01*
X65134Y-20925D01*
X65249Y-20650D01*
X65249Y-20352D01*
X65135Y-20077D01*
X64925Y-19866D01*
X64650Y-19751D01*
X64352Y-19751D01*
X64077Y-19865D01*
X64000Y-19941D01*
X63925Y-19866D01*
X63650Y-19751D01*
X63352Y-19751D01*
X63077Y-19865D01*
X63000Y-19941D01*
X62925Y-19866D01*
X62650Y-19751D01*
X62352Y-19751D01*
X62077Y-19865D01*
X62000Y-19941D01*
X61925Y-19866D01*
X61650Y-19751D01*
X61352Y-19751D01*
X61077Y-19865D01*
X60866Y-20075D01*
X60825Y-20034D01*
X60792Y-20066D01*
X60781Y-20028D01*
X60579Y-19957D01*
X60366Y-19968D01*
X60355Y-19972D01*
X60743Y-19585D01*
X66361Y-19585D01*
X66251Y-19850D01*
X66251Y-20148D01*
X66365Y-20423D01*
X66575Y-20634D01*
X66534Y-20675D01*
X66566Y-20707D01*
X66528Y-20719D01*
X66457Y-20921D01*
X66468Y-21134D01*
X66528Y-21281D01*
X66622Y-21308D01*
X66894Y-21035D01*
X66929Y-21000D01*
X67000Y-20929D01*
X67071Y-21000D01*
X67000Y-21071D01*
X66929Y-21141D01*
X66692Y-21378D01*
X66719Y-21472D01*
X66921Y-21543D01*
X67134Y-21532D01*
X67281Y-21472D01*
X67292Y-21433D01*
X67308Y-21449D01*
X67325Y-21466D01*
X67366Y-21424D01*
X67575Y-21634D01*
X67850Y-21749D01*
X68148Y-21749D01*
X68423Y-21635D01*
X68499Y-21558D01*
X68575Y-21634D01*
X68850Y-21749D01*
X69148Y-21749D01*
X69423Y-21635D01*
X69473Y-21585D01*
X71762Y-21585D01*
X71731Y-21676D01*
X71742Y-21880D01*
X71798Y-22017D01*
X71889Y-22040D01*
X72144Y-21785D01*
X72179Y-21750D01*
X72250Y-21679D01*
X72321Y-21750D01*
X72250Y-21821D01*
X72215Y-21856D01*
X71960Y-22111D01*
X71983Y-22202D01*
X72176Y-22269D01*
X72380Y-22258D01*
X72517Y-22202D01*
X72525Y-22166D01*
X72540Y-22181D01*
X72557Y-22198D01*
X72623Y-22131D01*
X72635Y-22160D01*
X72811Y-22336D01*
X72809Y-22338D01*
X72590Y-22557D01*
X72540Y-22676D01*
X72470Y-22844D01*
X72470Y-23154D01*
X72588Y-23441D01*
X72647Y-23500D01*
X72590Y-23557D01*
X72470Y-23844D01*
X72470Y-24154D01*
X72588Y-24441D01*
X72720Y-24573D01*
X72720Y-32500D01*
X72760Y-32703D01*
X72875Y-32875D01*
X73938Y-33938D01*
X74110Y-34053D01*
X74298Y-34090D01*
X74337Y-34128D01*
X74287Y-34272D01*
X74298Y-34485D01*
X74334Y-34574D01*
X74196Y-34713D01*
X74081Y-34988D01*
X74081Y-35286D01*
X74183Y-35532D01*
X74081Y-35776D01*
X74081Y-36074D01*
X74182Y-36319D01*
X74081Y-36563D01*
X74081Y-36861D01*
X74195Y-37136D01*
X74405Y-37347D01*
X74680Y-37462D01*
X74978Y-37462D01*
X75170Y-37382D01*
X75170Y-38326D01*
X75039Y-38195D01*
X74690Y-38050D01*
X74312Y-38050D01*
X73963Y-38194D01*
X73695Y-38461D01*
X73550Y-38810D01*
X73550Y-39188D01*
X73694Y-39537D01*
X73961Y-39805D01*
X74310Y-39950D01*
X74688Y-39950D01*
X75037Y-39806D01*
X75170Y-39673D01*
X75170Y-39950D01*
X75170Y-39970D01*
X75170Y-39970D01*
G37*
G54D25*
X75170Y-39970D02*
X74500Y-39970D01*
X66478Y-39970D01*
X66478Y-37091D01*
X66170Y-36784D01*
X65862Y-37091D01*
X65889Y-37185D01*
X66091Y-37256D01*
X66304Y-37245D01*
X66451Y-37185D01*
X66478Y-37091D01*
X66478Y-39970D01*
X55080Y-39970D01*
X55080Y-39260D01*
X55194Y-39537D01*
X55461Y-39805D01*
X55810Y-39950D01*
X56188Y-39950D01*
X56537Y-39806D01*
X56805Y-39539D01*
X56871Y-39378D01*
X56885Y-39410D01*
X57089Y-39614D01*
X57356Y-39725D01*
X57644Y-39725D01*
X57910Y-39615D01*
X58114Y-39411D01*
X58131Y-39368D01*
X58720Y-38780D01*
X58904Y-38780D01*
X59191Y-38662D01*
X59250Y-38603D01*
X59307Y-38660D01*
X59594Y-38780D01*
X59904Y-38780D01*
X60172Y-38669D01*
X60097Y-38851D01*
X60097Y-39148D01*
X60210Y-39422D01*
X60420Y-39632D01*
X60694Y-39746D01*
X60991Y-39746D01*
X61305Y-39746D01*
X61579Y-39633D01*
X61789Y-39423D01*
X61903Y-39149D01*
X61903Y-38852D01*
X61790Y-38578D01*
X61712Y-38500D01*
X61789Y-38423D01*
X61903Y-38149D01*
X61903Y-37852D01*
X61790Y-37578D01*
X61712Y-37500D01*
X61789Y-37423D01*
X61903Y-37149D01*
X61903Y-36852D01*
X61790Y-36578D01*
X61712Y-36500D01*
X61789Y-36423D01*
X61903Y-36149D01*
X61903Y-35852D01*
X61790Y-35578D01*
X61712Y-35500D01*
X61789Y-35423D01*
X61903Y-35149D01*
X61903Y-34852D01*
X61790Y-34578D01*
X61712Y-34500D01*
X61789Y-34423D01*
X61903Y-34149D01*
X61903Y-33852D01*
X61790Y-33578D01*
X61580Y-33368D01*
X61563Y-33360D01*
X61665Y-33196D01*
X61682Y-33137D01*
X61635Y-33050D01*
X61100Y-33050D01*
X61050Y-33050D01*
X60950Y-33050D01*
X60900Y-33050D01*
X60365Y-33050D01*
X60342Y-33092D01*
X59530Y-32280D01*
X59530Y-31858D01*
X60086Y-32414D01*
X60276Y-32540D01*
X60341Y-32553D01*
X60420Y-32632D01*
X60436Y-32639D01*
X60335Y-32804D01*
X60318Y-32863D01*
X60365Y-32950D01*
X60900Y-32950D01*
X60950Y-32950D01*
X61050Y-32950D01*
X61100Y-32950D01*
X61635Y-32950D01*
X61682Y-32863D01*
X61665Y-32804D01*
X61563Y-32639D01*
X61579Y-32633D01*
X61789Y-32423D01*
X61903Y-32149D01*
X61903Y-31852D01*
X61790Y-31578D01*
X61712Y-31500D01*
X61789Y-31423D01*
X61903Y-31149D01*
X61903Y-30852D01*
X61790Y-30578D01*
X61712Y-30500D01*
X61789Y-30423D01*
X61903Y-30149D01*
X61903Y-29852D01*
X61790Y-29578D01*
X61712Y-29500D01*
X61789Y-29423D01*
X61903Y-29149D01*
X61903Y-28852D01*
X61790Y-28578D01*
X61712Y-28500D01*
X61789Y-28423D01*
X61903Y-28149D01*
X61903Y-27852D01*
X61790Y-27578D01*
X61712Y-27500D01*
X61789Y-27423D01*
X61903Y-27149D01*
X61903Y-26852D01*
X61797Y-26597D01*
X61830Y-26565D01*
X61899Y-26400D01*
X61899Y-26221D01*
X61899Y-25601D01*
X61831Y-25436D01*
X61705Y-25310D01*
X61540Y-25241D01*
X61361Y-25241D01*
X61308Y-25241D01*
X60991Y-25241D01*
X60030Y-24280D01*
X60030Y-22995D01*
X60114Y-22911D01*
X60225Y-22644D01*
X60225Y-22356D01*
X60193Y-22280D01*
X60506Y-22280D01*
X60457Y-22421D01*
X60468Y-22634D01*
X60528Y-22781D01*
X60622Y-22808D01*
X60894Y-22535D01*
X60929Y-22500D01*
X61000Y-22429D01*
X61071Y-22500D01*
X61000Y-22571D01*
X60692Y-22878D01*
X60719Y-22972D01*
X60792Y-22997D01*
X60719Y-23028D01*
X60692Y-23122D01*
X60965Y-23394D01*
X61000Y-23429D01*
X61071Y-23500D01*
X61000Y-23571D01*
X60929Y-23641D01*
X60929Y-23500D01*
X60622Y-23192D01*
X60528Y-23219D01*
X60457Y-23421D01*
X60468Y-23634D01*
X60528Y-23781D01*
X60622Y-23808D01*
X60929Y-23500D01*
X60929Y-23641D01*
X60692Y-23878D01*
X60719Y-23972D01*
X60921Y-24043D01*
X61134Y-24032D01*
X61281Y-23972D01*
X61292Y-23933D01*
X61308Y-23949D01*
X61325Y-23966D01*
X61366Y-23924D01*
X61575Y-24134D01*
X61850Y-24249D01*
X62148Y-24249D01*
X62423Y-24135D01*
X62470Y-24088D01*
X62470Y-26000D01*
X62470Y-26500D01*
X62510Y-26703D01*
X62625Y-26875D01*
X63125Y-27375D01*
X63239Y-27451D01*
X63288Y-27500D01*
X63211Y-27577D01*
X63097Y-27851D01*
X63097Y-28148D01*
X63210Y-28422D01*
X63288Y-28500D01*
X63211Y-28577D01*
X63097Y-28851D01*
X63097Y-29148D01*
X63210Y-29422D01*
X63288Y-29500D01*
X63211Y-29577D01*
X63097Y-29851D01*
X63097Y-30148D01*
X63210Y-30422D01*
X63288Y-30500D01*
X63211Y-30577D01*
X63097Y-30851D01*
X63097Y-31148D01*
X63210Y-31422D01*
X63288Y-31500D01*
X63211Y-31577D01*
X63097Y-31851D01*
X63097Y-32148D01*
X63210Y-32422D01*
X63288Y-32500D01*
X63211Y-32577D01*
X63097Y-32851D01*
X63097Y-33148D01*
X63210Y-33422D01*
X63288Y-33500D01*
X63211Y-33577D01*
X63097Y-33851D01*
X63097Y-34148D01*
X63210Y-34422D01*
X63288Y-34500D01*
X63211Y-34577D01*
X63097Y-34851D01*
X63097Y-35148D01*
X63210Y-35422D01*
X63288Y-35500D01*
X63211Y-35577D01*
X63097Y-35851D01*
X63097Y-36148D01*
X63210Y-36422D01*
X63288Y-36500D01*
X63211Y-36577D01*
X63097Y-36851D01*
X63097Y-37148D01*
X63210Y-37422D01*
X63288Y-37500D01*
X63211Y-37577D01*
X63097Y-37851D01*
X63097Y-38148D01*
X63210Y-38422D01*
X63288Y-38500D01*
X63211Y-38577D01*
X63097Y-38851D01*
X63097Y-39148D01*
X63210Y-39422D01*
X63420Y-39632D01*
X63694Y-39746D01*
X63991Y-39746D01*
X64305Y-39746D01*
X64579Y-39633D01*
X64789Y-39423D01*
X64903Y-39149D01*
X64903Y-38852D01*
X64790Y-38578D01*
X64712Y-38500D01*
X64789Y-38423D01*
X64903Y-38149D01*
X64903Y-37852D01*
X64790Y-37578D01*
X64712Y-37500D01*
X64789Y-37423D01*
X64903Y-37149D01*
X64903Y-36852D01*
X64790Y-36578D01*
X64712Y-36500D01*
X64789Y-36423D01*
X64903Y-36149D01*
X64903Y-35852D01*
X64790Y-35578D01*
X64712Y-35500D01*
X64789Y-35423D01*
X64903Y-35149D01*
X64903Y-34852D01*
X64790Y-34578D01*
X64712Y-34500D01*
X64789Y-34423D01*
X64903Y-34149D01*
X64903Y-33852D01*
X64790Y-33578D01*
X64712Y-33500D01*
X64789Y-33423D01*
X64903Y-33149D01*
X64903Y-32852D01*
X64790Y-32578D01*
X64712Y-32500D01*
X64789Y-32423D01*
X64903Y-32149D01*
X64903Y-31852D01*
X64790Y-31578D01*
X64712Y-31500D01*
X64789Y-31423D01*
X64903Y-31149D01*
X64903Y-30852D01*
X64790Y-30578D01*
X64712Y-30500D01*
X64789Y-30423D01*
X64903Y-30149D01*
X64903Y-29852D01*
X64790Y-29578D01*
X64712Y-29500D01*
X64789Y-29423D01*
X64903Y-29149D01*
X64903Y-28852D01*
X64790Y-28578D01*
X64712Y-28500D01*
X64789Y-28423D01*
X64903Y-28149D01*
X64903Y-27852D01*
X64790Y-27578D01*
X64712Y-27500D01*
X64789Y-27423D01*
X64903Y-27149D01*
X64903Y-26852D01*
X64790Y-26578D01*
X64712Y-26500D01*
X64789Y-26423D01*
X64839Y-26300D01*
X64885Y-26410D01*
X64970Y-26495D01*
X64970Y-32250D01*
X65010Y-32453D01*
X65125Y-32625D01*
X65421Y-32920D01*
X65421Y-32924D01*
X65522Y-33169D01*
X65421Y-33413D01*
X65421Y-33711D01*
X65523Y-33957D01*
X65421Y-34201D01*
X65421Y-34499D01*
X65522Y-34744D01*
X65421Y-34988D01*
X65421Y-35286D01*
X65523Y-35532D01*
X65421Y-35776D01*
X65421Y-36074D01*
X65535Y-36349D01*
X65677Y-36491D01*
X65627Y-36634D01*
X65638Y-36847D01*
X65698Y-36994D01*
X65792Y-37021D01*
X66064Y-36748D01*
X66099Y-36713D01*
X66137Y-36675D01*
X66203Y-36675D01*
X66241Y-36713D01*
X66276Y-36748D01*
X66548Y-37021D01*
X66642Y-36994D01*
X66713Y-36792D01*
X66702Y-36579D01*
X66665Y-36489D01*
X66804Y-36351D01*
X66919Y-36076D01*
X66919Y-35778D01*
X66816Y-35531D01*
X66919Y-35288D01*
X66919Y-34990D01*
X66817Y-34744D01*
X66919Y-34501D01*
X66919Y-34203D01*
X66816Y-33956D01*
X66919Y-33713D01*
X66919Y-33415D01*
X66817Y-33169D01*
X66919Y-32926D01*
X66919Y-32628D01*
X66826Y-32404D01*
X66886Y-32364D01*
X68371Y-30877D01*
X68374Y-30875D01*
X68375Y-30875D01*
X68489Y-30703D01*
X68490Y-30703D01*
X68523Y-30534D01*
X68530Y-30501D01*
X68529Y-30500D01*
X68530Y-30500D01*
X68530Y-26725D01*
X68644Y-26725D01*
X68910Y-26615D01*
X68940Y-26585D01*
X71310Y-26585D01*
X71339Y-26614D01*
X71606Y-26725D01*
X71894Y-26725D01*
X72160Y-26615D01*
X72364Y-26411D01*
X72475Y-26144D01*
X72475Y-25856D01*
X72365Y-25590D01*
X72161Y-25386D01*
X72129Y-25373D01*
X72225Y-25144D01*
X72225Y-24856D01*
X72115Y-24590D01*
X72064Y-24539D01*
X72160Y-24443D01*
X72280Y-24156D01*
X72280Y-23846D01*
X72162Y-23559D01*
X71968Y-23365D01*
X71988Y-23346D01*
X71953Y-23311D01*
X71996Y-23298D01*
X72073Y-23086D01*
X72062Y-22861D01*
X71996Y-22702D01*
X71900Y-22671D01*
X71829Y-22742D01*
X71829Y-22600D01*
X71798Y-22504D01*
X71586Y-22427D01*
X71361Y-22438D01*
X71202Y-22504D01*
X71171Y-22600D01*
X71500Y-22929D01*
X71829Y-22600D01*
X71829Y-22742D01*
X71606Y-22965D01*
X71571Y-23000D01*
X71500Y-23071D01*
X71429Y-23000D01*
X71394Y-22965D01*
X71100Y-22671D01*
X71004Y-22702D01*
X70927Y-22914D01*
X70938Y-23139D01*
X71004Y-23298D01*
X71046Y-23311D01*
X71012Y-23346D01*
X71031Y-23365D01*
X70840Y-23557D01*
X70720Y-23844D01*
X70720Y-24154D01*
X70838Y-24441D01*
X70936Y-24539D01*
X70886Y-24589D01*
X70775Y-24856D01*
X70775Y-25144D01*
X70885Y-25410D01*
X70890Y-25415D01*
X69546Y-25415D01*
X69546Y-23395D01*
X69546Y-23050D01*
X69546Y-22950D01*
X69546Y-22605D01*
X69467Y-22404D01*
X69317Y-22248D01*
X69134Y-22175D01*
X69050Y-22222D01*
X69050Y-22950D01*
X69546Y-22950D01*
X69546Y-23050D01*
X69050Y-23050D01*
X69050Y-23778D01*
X69134Y-23825D01*
X69317Y-23752D01*
X69467Y-23596D01*
X69546Y-23395D01*
X69546Y-25415D01*
X69110Y-25415D01*
X69114Y-25411D01*
X69225Y-25144D01*
X69225Y-24856D01*
X69115Y-24590D01*
X68911Y-24386D01*
X68644Y-24275D01*
X68441Y-24275D01*
X68490Y-24203D01*
X68530Y-24000D01*
X68530Y-23822D01*
X68620Y-23732D01*
X68633Y-23700D01*
X68683Y-23752D01*
X68866Y-23825D01*
X68950Y-23778D01*
X68950Y-23100D01*
X68950Y-23050D01*
X68950Y-22950D01*
X68950Y-22900D01*
X68950Y-22222D01*
X68866Y-22175D01*
X68683Y-22248D01*
X68633Y-22299D01*
X68621Y-22269D01*
X68415Y-22063D01*
X68146Y-21951D01*
X67855Y-21951D01*
X67586Y-22062D01*
X67500Y-22148D01*
X67415Y-22063D01*
X67308Y-22018D01*
X67146Y-21951D01*
X66855Y-21951D01*
X66594Y-22058D01*
X65558Y-21319D01*
X65505Y-21295D01*
X65453Y-21260D01*
X65409Y-21251D01*
X65369Y-21233D01*
X65306Y-21231D01*
X65250Y-21220D01*
X64717Y-21220D01*
X64923Y-21135D01*
X65134Y-20925D01*
X65249Y-20650D01*
X65249Y-20352D01*
X65135Y-20077D01*
X64925Y-19866D01*
X64650Y-19751D01*
X64352Y-19751D01*
X64077Y-19865D01*
X64000Y-19941D01*
X63925Y-19866D01*
X63650Y-19751D01*
X63352Y-19751D01*
X63077Y-19865D01*
X63000Y-19941D01*
X62925Y-19866D01*
X62650Y-19751D01*
X62352Y-19751D01*
X62077Y-19865D01*
X62000Y-19941D01*
X61925Y-19866D01*
X61650Y-19751D01*
X61352Y-19751D01*
X61077Y-19865D01*
X60866Y-20075D01*
X60825Y-20034D01*
X60792Y-20066D01*
X60781Y-20028D01*
X60579Y-19957D01*
X60366Y-19968D01*
X60355Y-19972D01*
X60743Y-19585D01*
X66361Y-19585D01*
X66251Y-19850D01*
X66251Y-20148D01*
X66365Y-20423D01*
X66575Y-20634D01*
X66534Y-20675D01*
X66566Y-20707D01*
X66528Y-20719D01*
X66457Y-20921D01*
X66468Y-21134D01*
X66528Y-21281D01*
X66622Y-21308D01*
X66894Y-21035D01*
X66929Y-21000D01*
X67000Y-20929D01*
X67071Y-21000D01*
X67000Y-21071D01*
X66929Y-21141D01*
X66692Y-21378D01*
X66719Y-21472D01*
X66921Y-21543D01*
X67134Y-21532D01*
X67281Y-21472D01*
X67292Y-21433D01*
X67308Y-21449D01*
X67325Y-21466D01*
X67366Y-21424D01*
X67575Y-21634D01*
X67850Y-21749D01*
X68148Y-21749D01*
X68423Y-21635D01*
X68499Y-21558D01*
X68575Y-21634D01*
X68850Y-21749D01*
X69148Y-21749D01*
X69423Y-21635D01*
X69473Y-21585D01*
X71762Y-21585D01*
X71731Y-21676D01*
X71742Y-21880D01*
X71798Y-22017D01*
X71889Y-22040D01*
X72144Y-21785D01*
X72179Y-21750D01*
X72250Y-21679D01*
X72321Y-21750D01*
X72250Y-21821D01*
X72215Y-21856D01*
X71960Y-22111D01*
X71983Y-22202D01*
X72176Y-22269D01*
X72380Y-22258D01*
X72517Y-22202D01*
X72525Y-22166D01*
X72540Y-22181D01*
X72557Y-22198D01*
X72623Y-22131D01*
X72635Y-22160D01*
X72811Y-22336D01*
X72809Y-22338D01*
X72590Y-22557D01*
X72540Y-22676D01*
X72470Y-22844D01*
X72470Y-23154D01*
X72588Y-23441D01*
X72647Y-23500D01*
X72590Y-23557D01*
X72470Y-23844D01*
X72470Y-24154D01*
X72588Y-24441D01*
X72720Y-24573D01*
X72720Y-32500D01*
X72760Y-32703D01*
X72875Y-32875D01*
X73938Y-33938D01*
X74110Y-34053D01*
X74298Y-34090D01*
X74337Y-34128D01*
X74287Y-34272D01*
X74298Y-34485D01*
X74334Y-34574D01*
X74196Y-34713D01*
X74081Y-34988D01*
X74081Y-35286D01*
X74183Y-35532D01*
X74081Y-35776D01*
X74081Y-36074D01*
X74182Y-36319D01*
X74081Y-36563D01*
X74081Y-36861D01*
X74195Y-37136D01*
X74405Y-37347D01*
X74680Y-37462D01*
X74978Y-37462D01*
X75170Y-37382D01*
X75170Y-38326D01*
X75039Y-38195D01*
X74690Y-38050D01*
X74312Y-38050D01*
X73963Y-38194D01*
X73695Y-38461D01*
X73550Y-38810D01*
X73550Y-39188D01*
X73694Y-39537D01*
X73961Y-39805D01*
X74310Y-39950D01*
X74688Y-39950D01*
X75037Y-39806D01*
X75170Y-39673D01*
X75170Y-39950D01*
X75170Y-39970D01*
M02*
