G04 (created by PCBNEW-RS274X (2011-05-25)-stable) date Tue 16 Oct 2012 02:48:12 PM COT*
G01*
G70*
G90*
%MOIN*%
G04 Gerber Fmt 3.4, Leading zero omitted, Abs format*
%FSLAX34Y34*%
G04 APERTURE LIST*
%ADD10C,0.006000*%
%ADD11C,0.012000*%
%ADD12C,0.060000*%
%ADD13C,0.055000*%
%ADD14O,0.059300X0.118700*%
%ADD15O,0.118700X0.059300*%
%ADD16R,0.060000X0.060000*%
%ADD17C,0.066000*%
%ADD18C,0.080000*%
%ADD19C,0.070000*%
%ADD20O,0.090000X0.062000*%
%ADD21R,0.090000X0.062000*%
%ADD22C,0.100000*%
%ADD23C,0.035000*%
%ADD24C,0.016000*%
%ADD25C,0.027000*%
%ADD26C,0.010000*%
G04 APERTURE END LIST*
G54D10*
G54D11*
X70057Y-38436D02*
X70143Y-38474D01*
X70286Y-38474D01*
X70343Y-38436D01*
X70372Y-38398D01*
X70400Y-38321D01*
X70400Y-38245D01*
X70372Y-38169D01*
X70343Y-38131D01*
X70286Y-38093D01*
X70172Y-38055D01*
X70114Y-38017D01*
X70086Y-37979D01*
X70057Y-37902D01*
X70057Y-37826D01*
X70086Y-37750D01*
X70114Y-37712D01*
X70172Y-37674D01*
X70314Y-37674D01*
X70400Y-37712D01*
X70914Y-38474D02*
X70914Y-38055D01*
X70885Y-37979D01*
X70828Y-37940D01*
X70714Y-37940D01*
X70657Y-37979D01*
X70914Y-38436D02*
X70857Y-38474D01*
X70714Y-38474D01*
X70657Y-38436D01*
X70628Y-38360D01*
X70628Y-38283D01*
X70657Y-38207D01*
X70714Y-38169D01*
X70857Y-38169D01*
X70914Y-38131D01*
X71114Y-37940D02*
X71343Y-37940D01*
X71200Y-37674D02*
X71200Y-38360D01*
X71228Y-38436D01*
X71286Y-38474D01*
X71343Y-38474D01*
X71800Y-37940D02*
X71800Y-38474D01*
X71543Y-37940D02*
X71543Y-38360D01*
X71571Y-38436D01*
X71629Y-38474D01*
X71714Y-38474D01*
X71771Y-38436D01*
X71800Y-38398D01*
X72086Y-38474D02*
X72086Y-37940D01*
X72086Y-38093D02*
X72114Y-38017D01*
X72143Y-37979D01*
X72200Y-37940D01*
X72257Y-37940D01*
X72457Y-37940D02*
X72457Y-38474D01*
X72457Y-38017D02*
X72485Y-37979D01*
X72543Y-37940D01*
X72628Y-37940D01*
X72685Y-37979D01*
X72714Y-38055D01*
X72714Y-38474D01*
X70258Y-38914D02*
X70458Y-39714D01*
X70658Y-38914D01*
X71629Y-39714D02*
X71286Y-39714D01*
X71458Y-39714D02*
X71458Y-38914D01*
X71401Y-39028D01*
X71343Y-39104D01*
X71286Y-39142D01*
X71886Y-39638D02*
X71914Y-39676D01*
X71886Y-39714D01*
X71857Y-39676D01*
X71886Y-39638D01*
X71886Y-39714D01*
X72486Y-39714D02*
X72143Y-39714D01*
X72315Y-39714D02*
X72315Y-38914D01*
X72258Y-39028D01*
X72200Y-39104D01*
X72143Y-39142D01*
G54D12*
X66170Y-29626D03*
X66170Y-30414D03*
X66170Y-31201D03*
X66170Y-31989D03*
X66170Y-32776D03*
X66170Y-33563D03*
X66170Y-34351D03*
X66170Y-35138D03*
X66170Y-35926D03*
X66170Y-36713D03*
X74830Y-36713D03*
X74830Y-35926D03*
X74830Y-35138D03*
X74830Y-34351D03*
X74830Y-33563D03*
X74830Y-32776D03*
X74830Y-31989D03*
X74830Y-31201D03*
X74830Y-30414D03*
X74830Y-29626D03*
G54D13*
X65500Y-26000D03*
X68500Y-26000D03*
X71500Y-25000D03*
X68500Y-25000D03*
X57500Y-36000D03*
X57500Y-39000D03*
X55750Y-34500D03*
X55750Y-37500D03*
X71750Y-26000D03*
X74750Y-26000D03*
X56500Y-22500D03*
X59500Y-22500D03*
G54D14*
X67000Y-23000D03*
X68000Y-23000D03*
X69000Y-23000D03*
G54D15*
X57500Y-24500D03*
X57500Y-23500D03*
X57500Y-27000D03*
X57500Y-26000D03*
G54D16*
X65000Y-22500D03*
G54D12*
X65000Y-23500D03*
X64000Y-22500D03*
X64000Y-23500D03*
X63000Y-22500D03*
X63000Y-23500D03*
X62000Y-22500D03*
X62000Y-23500D03*
X61000Y-22500D03*
X61000Y-23500D03*
G54D17*
X73250Y-23000D03*
X73250Y-24000D03*
X71500Y-24000D03*
X71500Y-23000D03*
X59750Y-38000D03*
X58750Y-38000D03*
X59750Y-36000D03*
X58750Y-36000D03*
G54D18*
X58000Y-29500D03*
G54D19*
X58000Y-33500D03*
G54D20*
X61000Y-27000D03*
X61000Y-28000D03*
X61000Y-29000D03*
X61000Y-30000D03*
X61000Y-31000D03*
X61000Y-32000D03*
X61000Y-33000D03*
X61000Y-34000D03*
X61000Y-35000D03*
X61000Y-36000D03*
X61000Y-37000D03*
X61000Y-38000D03*
X61000Y-39000D03*
G54D21*
X61000Y-26000D03*
G54D20*
X64000Y-39000D03*
X64000Y-38000D03*
X64000Y-37000D03*
X64000Y-36000D03*
X64000Y-35000D03*
X64000Y-34000D03*
X64000Y-33000D03*
X64000Y-32000D03*
X64000Y-31000D03*
X64000Y-30000D03*
X64000Y-29000D03*
X64000Y-28000D03*
X64000Y-27000D03*
X64000Y-26000D03*
G54D13*
X55500Y-33500D03*
X55500Y-32500D03*
X55500Y-28500D03*
X55500Y-29500D03*
G54D16*
X69000Y-20000D03*
G54D12*
X69000Y-21000D03*
X68000Y-20000D03*
X68000Y-21000D03*
X67000Y-20000D03*
X67000Y-21000D03*
G54D13*
X73250Y-21750D03*
X72250Y-21750D03*
G54D16*
X59500Y-20500D03*
G54D12*
X60500Y-20500D03*
X61500Y-20500D03*
X62500Y-20500D03*
X63500Y-20500D03*
X64500Y-20500D03*
G54D22*
X74500Y-20000D03*
X74500Y-39000D03*
X56000Y-39000D03*
X56500Y-20000D03*
G54D23*
X60500Y-20500D03*
G54D24*
X74830Y-35926D02*
X74626Y-35926D01*
X74100Y-33506D02*
X74830Y-32776D01*
X74100Y-35400D02*
X74100Y-33506D01*
X74626Y-35926D02*
X74100Y-35400D01*
X69500Y-35000D02*
X66750Y-37750D01*
X68750Y-21750D02*
X69250Y-21750D01*
X69250Y-21750D02*
X69500Y-22000D01*
X69500Y-22000D02*
X69500Y-35000D01*
X68000Y-21000D02*
X68750Y-21750D01*
X65000Y-37000D02*
X64000Y-36000D01*
X65000Y-37250D02*
X65000Y-37000D01*
X65500Y-37750D02*
X65000Y-37250D01*
X66750Y-37750D02*
X65500Y-37750D01*
X64000Y-37000D02*
X65750Y-38750D01*
X70250Y-21250D02*
X69000Y-20000D01*
X70250Y-35750D02*
X70250Y-21250D01*
X67250Y-38750D02*
X70250Y-35750D01*
X65750Y-38750D02*
X67250Y-38750D01*
X67000Y-20000D02*
X65750Y-20000D01*
X58250Y-21250D02*
X59500Y-22500D01*
X58250Y-20500D02*
X58250Y-21250D01*
X59000Y-19750D02*
X58250Y-20500D01*
X65500Y-19750D02*
X59000Y-19750D01*
X65750Y-20000D02*
X65500Y-19750D01*
X63000Y-22500D02*
X63000Y-21000D01*
X63000Y-21000D02*
X63500Y-20500D01*
X65250Y-40000D02*
X66750Y-40000D01*
X70750Y-20000D02*
X70250Y-19500D01*
X70750Y-36000D02*
X70750Y-20000D01*
X66750Y-40000D02*
X70750Y-36000D01*
X68000Y-20000D02*
X68000Y-19750D01*
X69750Y-19000D02*
X70250Y-19500D01*
X68750Y-19000D02*
X69750Y-19000D01*
X68000Y-19750D02*
X68750Y-19000D01*
X64000Y-35000D02*
X63750Y-35000D01*
X63750Y-35000D02*
X63250Y-35500D01*
X63250Y-35500D02*
X63250Y-39250D01*
X63250Y-39250D02*
X64000Y-40000D01*
X64000Y-40000D02*
X65250Y-40000D01*
X63000Y-23500D02*
X63500Y-23000D01*
X63500Y-21500D02*
X64500Y-20500D01*
X63500Y-21750D02*
X63500Y-21500D01*
X63500Y-23000D02*
X63500Y-21750D01*
X61000Y-28000D02*
X61250Y-28000D01*
X68000Y-24000D02*
X68000Y-23000D01*
X67250Y-25000D02*
X68000Y-24000D01*
X64000Y-25000D02*
X67250Y-25000D01*
X63000Y-25750D02*
X64000Y-25000D01*
X63000Y-26250D02*
X63000Y-25750D01*
X61250Y-28000D02*
X63000Y-26250D01*
G54D25*
X55750Y-34500D02*
X55750Y-34300D01*
X56100Y-33100D02*
X55500Y-32500D01*
X56100Y-33950D02*
X56100Y-33100D01*
X55750Y-34300D02*
X56100Y-33950D01*
X67000Y-21000D02*
X67000Y-21500D01*
X67000Y-21500D02*
X66500Y-22000D01*
X61000Y-23500D02*
X61000Y-22500D01*
X60500Y-20500D02*
X61000Y-21000D01*
X61000Y-21000D02*
X61000Y-22500D01*
X65000Y-23500D02*
X66250Y-22250D01*
X69000Y-22500D02*
X69000Y-23000D01*
X68500Y-22000D02*
X69000Y-22500D01*
X66500Y-22000D02*
X68500Y-22000D01*
X66250Y-22250D02*
X66500Y-22000D01*
X55500Y-29500D02*
X55750Y-29500D01*
X56750Y-23500D02*
X57500Y-23500D01*
X56250Y-24000D02*
X56750Y-23500D01*
X56250Y-29000D02*
X56250Y-24000D01*
X55750Y-29500D02*
X56250Y-29000D01*
X57500Y-23500D02*
X61000Y-23500D01*
X61000Y-33000D02*
X58750Y-33000D01*
X58750Y-33000D02*
X58250Y-32500D01*
X58250Y-32500D02*
X55500Y-32500D01*
G54D24*
X59750Y-36000D02*
X59750Y-36000D01*
G54D25*
X71750Y-26000D02*
X73500Y-26000D01*
X73500Y-26000D02*
X73250Y-21750D01*
X66170Y-29626D02*
X66170Y-28330D01*
X66170Y-28330D02*
X68500Y-26000D01*
G54D10*
G36*
X60571Y-20500D02*
X60500Y-20571D01*
X60429Y-20500D01*
X60500Y-20429D01*
X60571Y-20500D01*
X60571Y-20500D01*
G37*
G54D26*
X60571Y-20500D02*
X60500Y-20571D01*
X60429Y-20500D01*
X60500Y-20429D01*
X60571Y-20500D01*
G54D10*
G36*
X68412Y-18600D02*
X68375Y-18625D01*
X68372Y-18628D01*
X67676Y-19323D01*
X67577Y-19365D01*
X67500Y-19441D01*
X67425Y-19366D01*
X67150Y-19251D01*
X66852Y-19251D01*
X66577Y-19365D01*
X66471Y-19470D01*
X65969Y-19470D01*
X65875Y-19375D01*
X65703Y-19260D01*
X65500Y-19220D01*
X59000Y-19220D01*
X58797Y-19260D01*
X58625Y-19375D01*
X58622Y-19378D01*
X57875Y-20125D01*
X57760Y-20297D01*
X57720Y-20500D01*
X57720Y-21250D01*
X57760Y-21453D01*
X57875Y-21625D01*
X58775Y-22524D01*
X58775Y-22644D01*
X58885Y-22910D01*
X59089Y-23114D01*
X59356Y-23225D01*
X59644Y-23225D01*
X59910Y-23115D01*
X60114Y-22911D01*
X60225Y-22644D01*
X60225Y-22356D01*
X60115Y-22090D01*
X59911Y-21886D01*
X59644Y-21775D01*
X59524Y-21775D01*
X58780Y-21030D01*
X58780Y-20959D01*
X58819Y-21054D01*
X58945Y-21180D01*
X59110Y-21249D01*
X59289Y-21249D01*
X59889Y-21249D01*
X60054Y-21181D01*
X60180Y-21055D01*
X60217Y-20965D01*
X60219Y-20972D01*
X60421Y-21043D01*
X60634Y-21032D01*
X60781Y-20972D01*
X60792Y-20933D01*
X60825Y-20966D01*
X60866Y-20924D01*
X61075Y-21134D01*
X61350Y-21249D01*
X61648Y-21249D01*
X61923Y-21135D01*
X61999Y-21058D01*
X62075Y-21134D01*
X62350Y-21249D01*
X62470Y-21249D01*
X62470Y-21911D01*
X62425Y-21866D01*
X62150Y-21751D01*
X61852Y-21751D01*
X61577Y-21865D01*
X61366Y-22075D01*
X61325Y-22034D01*
X61292Y-22066D01*
X61281Y-22028D01*
X61079Y-21957D01*
X60866Y-21968D01*
X60719Y-22028D01*
X60692Y-22122D01*
X60965Y-22394D01*
X61000Y-22429D01*
X61071Y-22500D01*
X61000Y-22571D01*
X60929Y-22641D01*
X60929Y-22500D01*
X60622Y-22192D01*
X60528Y-22219D01*
X60457Y-22421D01*
X60468Y-22634D01*
X60528Y-22781D01*
X60622Y-22808D01*
X60929Y-22500D01*
X60929Y-22641D01*
X60692Y-22878D01*
X60719Y-22972D01*
X60792Y-22997D01*
X60719Y-23028D01*
X60692Y-23122D01*
X60965Y-23394D01*
X61000Y-23429D01*
X61071Y-23500D01*
X61000Y-23571D01*
X60929Y-23641D01*
X60929Y-23500D01*
X60622Y-23192D01*
X60528Y-23219D01*
X60457Y-23421D01*
X60468Y-23634D01*
X60528Y-23781D01*
X60622Y-23808D01*
X60929Y-23500D01*
X60929Y-23641D01*
X60692Y-23878D01*
X60719Y-23972D01*
X60921Y-24043D01*
X61134Y-24032D01*
X61281Y-23972D01*
X61292Y-23933D01*
X61308Y-23949D01*
X61325Y-23966D01*
X61366Y-23924D01*
X61575Y-24134D01*
X61850Y-24249D01*
X62148Y-24249D01*
X62423Y-24135D01*
X62499Y-24058D01*
X62575Y-24134D01*
X62850Y-24249D01*
X63148Y-24249D01*
X63423Y-24135D01*
X63499Y-24058D01*
X63575Y-24134D01*
X63850Y-24249D01*
X64148Y-24249D01*
X64423Y-24135D01*
X64634Y-23925D01*
X64675Y-23966D01*
X64707Y-23933D01*
X64719Y-23972D01*
X64921Y-24043D01*
X65134Y-24032D01*
X65281Y-23972D01*
X65308Y-23878D01*
X65035Y-23606D01*
X65000Y-23571D01*
X64929Y-23500D01*
X65000Y-23429D01*
X65071Y-23500D01*
X65106Y-23535D01*
X65378Y-23808D01*
X65472Y-23781D01*
X65543Y-23579D01*
X65532Y-23366D01*
X65472Y-23219D01*
X65465Y-23217D01*
X65554Y-23181D01*
X65680Y-23055D01*
X65749Y-22890D01*
X65749Y-22711D01*
X65749Y-22111D01*
X65681Y-21946D01*
X65555Y-21820D01*
X65390Y-21751D01*
X65211Y-21751D01*
X64611Y-21751D01*
X64446Y-21819D01*
X64406Y-21858D01*
X64150Y-21751D01*
X64030Y-21751D01*
X64030Y-21750D01*
X64030Y-21720D01*
X64501Y-21249D01*
X64648Y-21249D01*
X64923Y-21135D01*
X65134Y-20925D01*
X65249Y-20650D01*
X65249Y-20352D01*
X65219Y-20280D01*
X65280Y-20280D01*
X65372Y-20372D01*
X65375Y-20375D01*
X65547Y-20490D01*
X65750Y-20530D01*
X66471Y-20530D01*
X66575Y-20634D01*
X66534Y-20675D01*
X66566Y-20707D01*
X66528Y-20719D01*
X66457Y-20921D01*
X66468Y-21134D01*
X66528Y-21281D01*
X66622Y-21308D01*
X66894Y-21035D01*
X66929Y-21000D01*
X67000Y-20929D01*
X67071Y-21000D01*
X67000Y-21071D01*
X66929Y-21141D01*
X66692Y-21378D01*
X66719Y-21472D01*
X66921Y-21543D01*
X67134Y-21532D01*
X67281Y-21472D01*
X67292Y-21433D01*
X67308Y-21449D01*
X67325Y-21466D01*
X67366Y-21424D01*
X67575Y-21634D01*
X67850Y-21749D01*
X67999Y-21749D01*
X68241Y-21990D01*
X68146Y-21951D01*
X67855Y-21951D01*
X67586Y-22062D01*
X67500Y-22148D01*
X67415Y-22063D01*
X67308Y-22018D01*
X67146Y-21951D01*
X66855Y-21951D01*
X66586Y-22062D01*
X66380Y-22268D01*
X66268Y-22537D01*
X66268Y-22828D01*
X66268Y-23462D01*
X66379Y-23731D01*
X66585Y-23937D01*
X66854Y-24049D01*
X67145Y-24049D01*
X67371Y-23955D01*
X66985Y-24470D01*
X65308Y-24470D01*
X64000Y-24470D01*
X63940Y-24481D01*
X63868Y-24486D01*
X63832Y-24502D01*
X63797Y-24510D01*
X63742Y-24546D01*
X63681Y-24576D01*
X62682Y-25326D01*
X62657Y-25353D01*
X62625Y-25375D01*
X62588Y-25429D01*
X62543Y-25480D01*
X62530Y-25516D01*
X62510Y-25547D01*
X62497Y-25610D01*
X62475Y-25675D01*
X62477Y-25714D01*
X62470Y-25750D01*
X62470Y-26030D01*
X61828Y-26671D01*
X61797Y-26597D01*
X61830Y-26565D01*
X61899Y-26400D01*
X61899Y-26221D01*
X61899Y-25601D01*
X61831Y-25436D01*
X61705Y-25310D01*
X61540Y-25241D01*
X61361Y-25241D01*
X61308Y-25241D01*
X60461Y-25241D01*
X60296Y-25309D01*
X60170Y-25435D01*
X60101Y-25600D01*
X60101Y-25779D01*
X60101Y-26399D01*
X60169Y-26564D01*
X60202Y-26597D01*
X60097Y-26851D01*
X60097Y-27148D01*
X60210Y-27422D01*
X60288Y-27500D01*
X60211Y-27577D01*
X60097Y-27851D01*
X60097Y-28148D01*
X60210Y-28422D01*
X60288Y-28500D01*
X60211Y-28577D01*
X60097Y-28851D01*
X60097Y-29148D01*
X60210Y-29422D01*
X60288Y-29500D01*
X60211Y-29577D01*
X60097Y-29851D01*
X60097Y-30148D01*
X60210Y-30422D01*
X60288Y-30500D01*
X60211Y-30577D01*
X60097Y-30851D01*
X60097Y-31148D01*
X60210Y-31422D01*
X60288Y-31500D01*
X60211Y-31577D01*
X60097Y-31851D01*
X60097Y-32148D01*
X60210Y-32422D01*
X60420Y-32632D01*
X60436Y-32639D01*
X60335Y-32804D01*
X60318Y-32863D01*
X60365Y-32950D01*
X60900Y-32950D01*
X60950Y-32950D01*
X61050Y-32950D01*
X61100Y-32950D01*
X61635Y-32950D01*
X61682Y-32863D01*
X61665Y-32804D01*
X61563Y-32639D01*
X61579Y-32633D01*
X61789Y-32423D01*
X61903Y-32149D01*
X61903Y-31852D01*
X61790Y-31578D01*
X61712Y-31500D01*
X61789Y-31423D01*
X61903Y-31149D01*
X61903Y-30852D01*
X61790Y-30578D01*
X61712Y-30500D01*
X61789Y-30423D01*
X61903Y-30149D01*
X61903Y-29852D01*
X61790Y-29578D01*
X61712Y-29500D01*
X61789Y-29423D01*
X61903Y-29149D01*
X61903Y-28852D01*
X61790Y-28578D01*
X61712Y-28500D01*
X61789Y-28423D01*
X61903Y-28149D01*
X61903Y-28096D01*
X63097Y-26902D01*
X63097Y-27148D01*
X63210Y-27422D01*
X63288Y-27500D01*
X63211Y-27577D01*
X63097Y-27851D01*
X63097Y-28148D01*
X63210Y-28422D01*
X63288Y-28500D01*
X63211Y-28577D01*
X63097Y-28851D01*
X63097Y-29148D01*
X63210Y-29422D01*
X63288Y-29500D01*
X63211Y-29577D01*
X63097Y-29851D01*
X63097Y-30148D01*
X63210Y-30422D01*
X63288Y-30500D01*
X63211Y-30577D01*
X63097Y-30851D01*
X63097Y-31148D01*
X63210Y-31422D01*
X63288Y-31500D01*
X63211Y-31577D01*
X63097Y-31851D01*
X63097Y-32148D01*
X63210Y-32422D01*
X63288Y-32500D01*
X63211Y-32577D01*
X63097Y-32851D01*
X63097Y-33148D01*
X63210Y-33422D01*
X63288Y-33500D01*
X63211Y-33577D01*
X63097Y-33851D01*
X63097Y-34148D01*
X63210Y-34422D01*
X63288Y-34500D01*
X63211Y-34577D01*
X63097Y-34851D01*
X63097Y-34903D01*
X62875Y-35125D01*
X62760Y-35297D01*
X62720Y-35500D01*
X62720Y-39250D01*
X62760Y-39453D01*
X62875Y-39625D01*
X63622Y-40371D01*
X63625Y-40375D01*
X63737Y-40450D01*
X61903Y-40450D01*
X61903Y-39149D01*
X61903Y-38852D01*
X61790Y-38578D01*
X61712Y-38500D01*
X61789Y-38423D01*
X61903Y-38149D01*
X61903Y-37852D01*
X61790Y-37578D01*
X61712Y-37500D01*
X61789Y-37423D01*
X61903Y-37149D01*
X61903Y-36852D01*
X61790Y-36578D01*
X61712Y-36500D01*
X61789Y-36423D01*
X61903Y-36149D01*
X61903Y-35852D01*
X61790Y-35578D01*
X61712Y-35500D01*
X61789Y-35423D01*
X61903Y-35149D01*
X61903Y-34852D01*
X61790Y-34578D01*
X61712Y-34500D01*
X61789Y-34423D01*
X61903Y-34149D01*
X61903Y-33852D01*
X61790Y-33578D01*
X61580Y-33368D01*
X61563Y-33360D01*
X61665Y-33196D01*
X61682Y-33137D01*
X61635Y-33050D01*
X61100Y-33050D01*
X61050Y-33050D01*
X60950Y-33050D01*
X60900Y-33050D01*
X60365Y-33050D01*
X60318Y-33137D01*
X60335Y-33196D01*
X60436Y-33360D01*
X60421Y-33367D01*
X60211Y-33577D01*
X60097Y-33851D01*
X60097Y-34148D01*
X60210Y-34422D01*
X60288Y-34500D01*
X60211Y-34577D01*
X60097Y-34851D01*
X60097Y-35148D01*
X60172Y-35331D01*
X59906Y-35220D01*
X59596Y-35220D01*
X59309Y-35338D01*
X59250Y-35397D01*
X59193Y-35340D01*
X58906Y-35220D01*
X58850Y-35220D01*
X58850Y-29670D01*
X58850Y-29332D01*
X58721Y-29020D01*
X58549Y-28847D01*
X58549Y-27146D01*
X58549Y-26855D01*
X58438Y-26586D01*
X58352Y-26500D01*
X58437Y-26415D01*
X58549Y-26146D01*
X58549Y-25855D01*
X58549Y-24646D01*
X58549Y-24355D01*
X58438Y-24086D01*
X58232Y-23880D01*
X58200Y-23866D01*
X58252Y-23817D01*
X58325Y-23634D01*
X58325Y-23366D01*
X58252Y-23183D01*
X58096Y-23033D01*
X57895Y-22954D01*
X57550Y-22954D01*
X57550Y-23450D01*
X58278Y-23450D01*
X58325Y-23366D01*
X58325Y-23634D01*
X58278Y-23550D01*
X57600Y-23550D01*
X57550Y-23550D01*
X57450Y-23550D01*
X57450Y-23450D01*
X57450Y-22954D01*
X57450Y-20190D01*
X57450Y-19812D01*
X57306Y-19463D01*
X57039Y-19195D01*
X56690Y-19050D01*
X56312Y-19050D01*
X55963Y-19194D01*
X55695Y-19461D01*
X55550Y-19810D01*
X55550Y-20188D01*
X55694Y-20537D01*
X55961Y-20805D01*
X56310Y-20950D01*
X56688Y-20950D01*
X57037Y-20806D01*
X57305Y-20539D01*
X57450Y-20190D01*
X57450Y-22954D01*
X57105Y-22954D01*
X57048Y-22976D01*
X57114Y-22911D01*
X57225Y-22644D01*
X57225Y-22356D01*
X57115Y-22090D01*
X56911Y-21886D01*
X56644Y-21775D01*
X56356Y-21775D01*
X56090Y-21885D01*
X55886Y-22089D01*
X55775Y-22356D01*
X55775Y-22644D01*
X55885Y-22910D01*
X56089Y-23114D01*
X56356Y-23225D01*
X56644Y-23225D01*
X56749Y-23181D01*
X56748Y-23183D01*
X56675Y-23366D01*
X56722Y-23450D01*
X57450Y-23450D01*
X57450Y-23550D01*
X57400Y-23550D01*
X56722Y-23550D01*
X56675Y-23634D01*
X56748Y-23817D01*
X56799Y-23866D01*
X56769Y-23879D01*
X56563Y-24085D01*
X56451Y-24354D01*
X56451Y-24645D01*
X56562Y-24914D01*
X56768Y-25120D01*
X57037Y-25232D01*
X57328Y-25232D01*
X57962Y-25232D01*
X58231Y-25121D01*
X58437Y-24915D01*
X58549Y-24646D01*
X58549Y-25855D01*
X58438Y-25586D01*
X58232Y-25380D01*
X57963Y-25268D01*
X57672Y-25268D01*
X57038Y-25268D01*
X56769Y-25379D01*
X56563Y-25585D01*
X56451Y-25854D01*
X56451Y-26145D01*
X56562Y-26414D01*
X56648Y-26500D01*
X56563Y-26585D01*
X56451Y-26854D01*
X56451Y-27145D01*
X56562Y-27414D01*
X56768Y-27620D01*
X57037Y-27732D01*
X57328Y-27732D01*
X57962Y-27732D01*
X58231Y-27621D01*
X58437Y-27415D01*
X58549Y-27146D01*
X58549Y-28847D01*
X58482Y-28780D01*
X58170Y-28650D01*
X57832Y-28650D01*
X57520Y-28779D01*
X57280Y-29018D01*
X57150Y-29330D01*
X57150Y-29668D01*
X57279Y-29980D01*
X57518Y-30220D01*
X57830Y-30350D01*
X58168Y-30350D01*
X58480Y-30221D01*
X58720Y-29982D01*
X58850Y-29670D01*
X58850Y-35220D01*
X58799Y-35220D01*
X58799Y-33660D01*
X58799Y-33342D01*
X58678Y-33048D01*
X58453Y-32823D01*
X58160Y-32701D01*
X57842Y-32701D01*
X57548Y-32822D01*
X57323Y-33047D01*
X57201Y-33340D01*
X57201Y-33658D01*
X57322Y-33952D01*
X57547Y-34177D01*
X57840Y-34299D01*
X58158Y-34299D01*
X58452Y-34178D01*
X58677Y-33953D01*
X58799Y-33660D01*
X58799Y-35220D01*
X58596Y-35220D01*
X58309Y-35338D01*
X58090Y-35557D01*
X57983Y-35810D01*
X57952Y-35733D01*
X57861Y-35710D01*
X57790Y-35781D01*
X57790Y-35639D01*
X57767Y-35548D01*
X57574Y-35481D01*
X57370Y-35492D01*
X57233Y-35548D01*
X57210Y-35639D01*
X57500Y-35929D01*
X57790Y-35639D01*
X57790Y-35781D01*
X57571Y-36000D01*
X57861Y-36290D01*
X57952Y-36267D01*
X57981Y-36181D01*
X58088Y-36441D01*
X58307Y-36660D01*
X58594Y-36780D01*
X58904Y-36780D01*
X59191Y-36662D01*
X59250Y-36603D01*
X59307Y-36660D01*
X59594Y-36780D01*
X59904Y-36780D01*
X60172Y-36669D01*
X60097Y-36851D01*
X60097Y-37148D01*
X60172Y-37331D01*
X59906Y-37220D01*
X59596Y-37220D01*
X59309Y-37338D01*
X59250Y-37397D01*
X59193Y-37340D01*
X58906Y-37220D01*
X58596Y-37220D01*
X58309Y-37338D01*
X58090Y-37557D01*
X57970Y-37844D01*
X57970Y-38154D01*
X58088Y-38441D01*
X58307Y-38660D01*
X58594Y-38780D01*
X58904Y-38780D01*
X59191Y-38662D01*
X59250Y-38603D01*
X59307Y-38660D01*
X59594Y-38780D01*
X59904Y-38780D01*
X60172Y-38669D01*
X60097Y-38851D01*
X60097Y-39148D01*
X60210Y-39422D01*
X60420Y-39632D01*
X60694Y-39746D01*
X60991Y-39746D01*
X61305Y-39746D01*
X61579Y-39633D01*
X61789Y-39423D01*
X61903Y-39149D01*
X61903Y-40450D01*
X58225Y-40450D01*
X58225Y-39144D01*
X58225Y-38856D01*
X58115Y-38590D01*
X57911Y-38386D01*
X57790Y-38335D01*
X57790Y-36361D01*
X57500Y-36071D01*
X57429Y-36142D01*
X57429Y-36000D01*
X57139Y-35710D01*
X57048Y-35733D01*
X56981Y-35926D01*
X56992Y-36130D01*
X57048Y-36267D01*
X57139Y-36290D01*
X57429Y-36000D01*
X57429Y-36142D01*
X57210Y-36361D01*
X57233Y-36452D01*
X57426Y-36519D01*
X57630Y-36508D01*
X57767Y-36452D01*
X57790Y-36361D01*
X57790Y-38335D01*
X57644Y-38275D01*
X57356Y-38275D01*
X57090Y-38385D01*
X56886Y-38589D01*
X56871Y-38622D01*
X56806Y-38463D01*
X56539Y-38195D01*
X56214Y-38060D01*
X56364Y-37911D01*
X56475Y-37644D01*
X56475Y-37356D01*
X56365Y-37090D01*
X56269Y-36994D01*
X56269Y-34574D01*
X56258Y-34370D01*
X56225Y-34289D01*
X56225Y-33644D01*
X56225Y-33356D01*
X56225Y-28644D01*
X56225Y-28356D01*
X56115Y-28090D01*
X55911Y-27886D01*
X55644Y-27775D01*
X55356Y-27775D01*
X55090Y-27885D01*
X54886Y-28089D01*
X54775Y-28356D01*
X54775Y-28644D01*
X54885Y-28910D01*
X55089Y-29114D01*
X55118Y-29126D01*
X55052Y-29193D01*
X55083Y-29224D01*
X55048Y-29233D01*
X54981Y-29426D01*
X54992Y-29630D01*
X55048Y-29767D01*
X55139Y-29790D01*
X55394Y-29535D01*
X55429Y-29500D01*
X55500Y-29429D01*
X55571Y-29500D01*
X55606Y-29535D01*
X55861Y-29790D01*
X55952Y-29767D01*
X56019Y-29574D01*
X56008Y-29370D01*
X55952Y-29233D01*
X55916Y-29224D01*
X55948Y-29193D01*
X55881Y-29126D01*
X55910Y-29115D01*
X56114Y-28911D01*
X56225Y-28644D01*
X56225Y-33356D01*
X56115Y-33090D01*
X56019Y-32994D01*
X55911Y-32886D01*
X55881Y-32873D01*
X55948Y-32807D01*
X55916Y-32775D01*
X55952Y-32767D01*
X56019Y-32574D01*
X56008Y-32370D01*
X55952Y-32233D01*
X55861Y-32210D01*
X55790Y-32281D01*
X55790Y-32139D01*
X55790Y-29861D01*
X55500Y-29571D01*
X55429Y-29642D01*
X55210Y-29861D01*
X55233Y-29952D01*
X55426Y-30019D01*
X55630Y-30008D01*
X55767Y-29952D01*
X55790Y-29861D01*
X55790Y-32139D01*
X55767Y-32048D01*
X55574Y-31981D01*
X55370Y-31992D01*
X55233Y-32048D01*
X55210Y-32139D01*
X55500Y-32429D01*
X55790Y-32139D01*
X55790Y-32281D01*
X55606Y-32465D01*
X55571Y-32500D01*
X55500Y-32571D01*
X55429Y-32500D01*
X55394Y-32465D01*
X55139Y-32210D01*
X55048Y-32233D01*
X54981Y-32426D01*
X54992Y-32630D01*
X55048Y-32767D01*
X55083Y-32775D01*
X55052Y-32807D01*
X55118Y-32873D01*
X55090Y-32885D01*
X54886Y-33089D01*
X54775Y-33356D01*
X54775Y-33644D01*
X54885Y-33910D01*
X55089Y-34114D01*
X55317Y-34208D01*
X55332Y-34223D01*
X55298Y-34233D01*
X55231Y-34426D01*
X55242Y-34630D01*
X55298Y-34767D01*
X55389Y-34790D01*
X55644Y-34535D01*
X55679Y-34500D01*
X55750Y-34429D01*
X55785Y-34394D01*
X56040Y-34139D01*
X56017Y-34048D01*
X55987Y-34037D01*
X56114Y-33911D01*
X56225Y-33644D01*
X56225Y-34289D01*
X56202Y-34233D01*
X56111Y-34210D01*
X55821Y-34500D01*
X56111Y-34790D01*
X56202Y-34767D01*
X56269Y-34574D01*
X56269Y-36994D01*
X56161Y-36886D01*
X56040Y-36835D01*
X56040Y-34861D01*
X55750Y-34571D01*
X55460Y-34861D01*
X55483Y-34952D01*
X55676Y-35019D01*
X55880Y-35008D01*
X56017Y-34952D01*
X56040Y-34861D01*
X56040Y-36835D01*
X55894Y-36775D01*
X55606Y-36775D01*
X55340Y-36885D01*
X55136Y-37089D01*
X55025Y-37356D01*
X55025Y-37644D01*
X55135Y-37910D01*
X55339Y-38114D01*
X55497Y-38179D01*
X55463Y-38194D01*
X55195Y-38461D01*
X55050Y-38810D01*
X55050Y-39188D01*
X55194Y-39537D01*
X55461Y-39805D01*
X55810Y-39950D01*
X56188Y-39950D01*
X56537Y-39806D01*
X56805Y-39539D01*
X56871Y-39378D01*
X56885Y-39410D01*
X57089Y-39614D01*
X57356Y-39725D01*
X57644Y-39725D01*
X57910Y-39615D01*
X58114Y-39411D01*
X58225Y-39144D01*
X58225Y-40450D01*
X54650Y-40450D01*
X54650Y-18600D01*
X68412Y-18600D01*
X68412Y-18600D01*
G37*
G54D26*
X68412Y-18600D02*
X68375Y-18625D01*
X68372Y-18628D01*
X67676Y-19323D01*
X67577Y-19365D01*
X67500Y-19441D01*
X67425Y-19366D01*
X67150Y-19251D01*
X66852Y-19251D01*
X66577Y-19365D01*
X66471Y-19470D01*
X65969Y-19470D01*
X65875Y-19375D01*
X65703Y-19260D01*
X65500Y-19220D01*
X59000Y-19220D01*
X58797Y-19260D01*
X58625Y-19375D01*
X58622Y-19378D01*
X57875Y-20125D01*
X57760Y-20297D01*
X57720Y-20500D01*
X57720Y-21250D01*
X57760Y-21453D01*
X57875Y-21625D01*
X58775Y-22524D01*
X58775Y-22644D01*
X58885Y-22910D01*
X59089Y-23114D01*
X59356Y-23225D01*
X59644Y-23225D01*
X59910Y-23115D01*
X60114Y-22911D01*
X60225Y-22644D01*
X60225Y-22356D01*
X60115Y-22090D01*
X59911Y-21886D01*
X59644Y-21775D01*
X59524Y-21775D01*
X58780Y-21030D01*
X58780Y-20959D01*
X58819Y-21054D01*
X58945Y-21180D01*
X59110Y-21249D01*
X59289Y-21249D01*
X59889Y-21249D01*
X60054Y-21181D01*
X60180Y-21055D01*
X60217Y-20965D01*
X60219Y-20972D01*
X60421Y-21043D01*
X60634Y-21032D01*
X60781Y-20972D01*
X60792Y-20933D01*
X60825Y-20966D01*
X60866Y-20924D01*
X61075Y-21134D01*
X61350Y-21249D01*
X61648Y-21249D01*
X61923Y-21135D01*
X61999Y-21058D01*
X62075Y-21134D01*
X62350Y-21249D01*
X62470Y-21249D01*
X62470Y-21911D01*
X62425Y-21866D01*
X62150Y-21751D01*
X61852Y-21751D01*
X61577Y-21865D01*
X61366Y-22075D01*
X61325Y-22034D01*
X61292Y-22066D01*
X61281Y-22028D01*
X61079Y-21957D01*
X60866Y-21968D01*
X60719Y-22028D01*
X60692Y-22122D01*
X60965Y-22394D01*
X61000Y-22429D01*
X61071Y-22500D01*
X61000Y-22571D01*
X60929Y-22641D01*
X60929Y-22500D01*
X60622Y-22192D01*
X60528Y-22219D01*
X60457Y-22421D01*
X60468Y-22634D01*
X60528Y-22781D01*
X60622Y-22808D01*
X60929Y-22500D01*
X60929Y-22641D01*
X60692Y-22878D01*
X60719Y-22972D01*
X60792Y-22997D01*
X60719Y-23028D01*
X60692Y-23122D01*
X60965Y-23394D01*
X61000Y-23429D01*
X61071Y-23500D01*
X61000Y-23571D01*
X60929Y-23641D01*
X60929Y-23500D01*
X60622Y-23192D01*
X60528Y-23219D01*
X60457Y-23421D01*
X60468Y-23634D01*
X60528Y-23781D01*
X60622Y-23808D01*
X60929Y-23500D01*
X60929Y-23641D01*
X60692Y-23878D01*
X60719Y-23972D01*
X60921Y-24043D01*
X61134Y-24032D01*
X61281Y-23972D01*
X61292Y-23933D01*
X61308Y-23949D01*
X61325Y-23966D01*
X61366Y-23924D01*
X61575Y-24134D01*
X61850Y-24249D01*
X62148Y-24249D01*
X62423Y-24135D01*
X62499Y-24058D01*
X62575Y-24134D01*
X62850Y-24249D01*
X63148Y-24249D01*
X63423Y-24135D01*
X63499Y-24058D01*
X63575Y-24134D01*
X63850Y-24249D01*
X64148Y-24249D01*
X64423Y-24135D01*
X64634Y-23925D01*
X64675Y-23966D01*
X64707Y-23933D01*
X64719Y-23972D01*
X64921Y-24043D01*
X65134Y-24032D01*
X65281Y-23972D01*
X65308Y-23878D01*
X65035Y-23606D01*
X65000Y-23571D01*
X64929Y-23500D01*
X65000Y-23429D01*
X65071Y-23500D01*
X65106Y-23535D01*
X65378Y-23808D01*
X65472Y-23781D01*
X65543Y-23579D01*
X65532Y-23366D01*
X65472Y-23219D01*
X65465Y-23217D01*
X65554Y-23181D01*
X65680Y-23055D01*
X65749Y-22890D01*
X65749Y-22711D01*
X65749Y-22111D01*
X65681Y-21946D01*
X65555Y-21820D01*
X65390Y-21751D01*
X65211Y-21751D01*
X64611Y-21751D01*
X64446Y-21819D01*
X64406Y-21858D01*
X64150Y-21751D01*
X64030Y-21751D01*
X64030Y-21750D01*
X64030Y-21720D01*
X64501Y-21249D01*
X64648Y-21249D01*
X64923Y-21135D01*
X65134Y-20925D01*
X65249Y-20650D01*
X65249Y-20352D01*
X65219Y-20280D01*
X65280Y-20280D01*
X65372Y-20372D01*
X65375Y-20375D01*
X65547Y-20490D01*
X65750Y-20530D01*
X66471Y-20530D01*
X66575Y-20634D01*
X66534Y-20675D01*
X66566Y-20707D01*
X66528Y-20719D01*
X66457Y-20921D01*
X66468Y-21134D01*
X66528Y-21281D01*
X66622Y-21308D01*
X66894Y-21035D01*
X66929Y-21000D01*
X67000Y-20929D01*
X67071Y-21000D01*
X67000Y-21071D01*
X66929Y-21141D01*
X66692Y-21378D01*
X66719Y-21472D01*
X66921Y-21543D01*
X67134Y-21532D01*
X67281Y-21472D01*
X67292Y-21433D01*
X67308Y-21449D01*
X67325Y-21466D01*
X67366Y-21424D01*
X67575Y-21634D01*
X67850Y-21749D01*
X67999Y-21749D01*
X68241Y-21990D01*
X68146Y-21951D01*
X67855Y-21951D01*
X67586Y-22062D01*
X67500Y-22148D01*
X67415Y-22063D01*
X67308Y-22018D01*
X67146Y-21951D01*
X66855Y-21951D01*
X66586Y-22062D01*
X66380Y-22268D01*
X66268Y-22537D01*
X66268Y-22828D01*
X66268Y-23462D01*
X66379Y-23731D01*
X66585Y-23937D01*
X66854Y-24049D01*
X67145Y-24049D01*
X67371Y-23955D01*
X66985Y-24470D01*
X65308Y-24470D01*
X64000Y-24470D01*
X63940Y-24481D01*
X63868Y-24486D01*
X63832Y-24502D01*
X63797Y-24510D01*
X63742Y-24546D01*
X63681Y-24576D01*
X62682Y-25326D01*
X62657Y-25353D01*
X62625Y-25375D01*
X62588Y-25429D01*
X62543Y-25480D01*
X62530Y-25516D01*
X62510Y-25547D01*
X62497Y-25610D01*
X62475Y-25675D01*
X62477Y-25714D01*
X62470Y-25750D01*
X62470Y-26030D01*
X61828Y-26671D01*
X61797Y-26597D01*
X61830Y-26565D01*
X61899Y-26400D01*
X61899Y-26221D01*
X61899Y-25601D01*
X61831Y-25436D01*
X61705Y-25310D01*
X61540Y-25241D01*
X61361Y-25241D01*
X61308Y-25241D01*
X60461Y-25241D01*
X60296Y-25309D01*
X60170Y-25435D01*
X60101Y-25600D01*
X60101Y-25779D01*
X60101Y-26399D01*
X60169Y-26564D01*
X60202Y-26597D01*
X60097Y-26851D01*
X60097Y-27148D01*
X60210Y-27422D01*
X60288Y-27500D01*
X60211Y-27577D01*
X60097Y-27851D01*
X60097Y-28148D01*
X60210Y-28422D01*
X60288Y-28500D01*
X60211Y-28577D01*
X60097Y-28851D01*
X60097Y-29148D01*
X60210Y-29422D01*
X60288Y-29500D01*
X60211Y-29577D01*
X60097Y-29851D01*
X60097Y-30148D01*
X60210Y-30422D01*
X60288Y-30500D01*
X60211Y-30577D01*
X60097Y-30851D01*
X60097Y-31148D01*
X60210Y-31422D01*
X60288Y-31500D01*
X60211Y-31577D01*
X60097Y-31851D01*
X60097Y-32148D01*
X60210Y-32422D01*
X60420Y-32632D01*
X60436Y-32639D01*
X60335Y-32804D01*
X60318Y-32863D01*
X60365Y-32950D01*
X60900Y-32950D01*
X60950Y-32950D01*
X61050Y-32950D01*
X61100Y-32950D01*
X61635Y-32950D01*
X61682Y-32863D01*
X61665Y-32804D01*
X61563Y-32639D01*
X61579Y-32633D01*
X61789Y-32423D01*
X61903Y-32149D01*
X61903Y-31852D01*
X61790Y-31578D01*
X61712Y-31500D01*
X61789Y-31423D01*
X61903Y-31149D01*
X61903Y-30852D01*
X61790Y-30578D01*
X61712Y-30500D01*
X61789Y-30423D01*
X61903Y-30149D01*
X61903Y-29852D01*
X61790Y-29578D01*
X61712Y-29500D01*
X61789Y-29423D01*
X61903Y-29149D01*
X61903Y-28852D01*
X61790Y-28578D01*
X61712Y-28500D01*
X61789Y-28423D01*
X61903Y-28149D01*
X61903Y-28096D01*
X63097Y-26902D01*
X63097Y-27148D01*
X63210Y-27422D01*
X63288Y-27500D01*
X63211Y-27577D01*
X63097Y-27851D01*
X63097Y-28148D01*
X63210Y-28422D01*
X63288Y-28500D01*
X63211Y-28577D01*
X63097Y-28851D01*
X63097Y-29148D01*
X63210Y-29422D01*
X63288Y-29500D01*
X63211Y-29577D01*
X63097Y-29851D01*
X63097Y-30148D01*
X63210Y-30422D01*
X63288Y-30500D01*
X63211Y-30577D01*
X63097Y-30851D01*
X63097Y-31148D01*
X63210Y-31422D01*
X63288Y-31500D01*
X63211Y-31577D01*
X63097Y-31851D01*
X63097Y-32148D01*
X63210Y-32422D01*
X63288Y-32500D01*
X63211Y-32577D01*
X63097Y-32851D01*
X63097Y-33148D01*
X63210Y-33422D01*
X63288Y-33500D01*
X63211Y-33577D01*
X63097Y-33851D01*
X63097Y-34148D01*
X63210Y-34422D01*
X63288Y-34500D01*
X63211Y-34577D01*
X63097Y-34851D01*
X63097Y-34903D01*
X62875Y-35125D01*
X62760Y-35297D01*
X62720Y-35500D01*
X62720Y-39250D01*
X62760Y-39453D01*
X62875Y-39625D01*
X63622Y-40371D01*
X63625Y-40375D01*
X63737Y-40450D01*
X61903Y-40450D01*
X61903Y-39149D01*
X61903Y-38852D01*
X61790Y-38578D01*
X61712Y-38500D01*
X61789Y-38423D01*
X61903Y-38149D01*
X61903Y-37852D01*
X61790Y-37578D01*
X61712Y-37500D01*
X61789Y-37423D01*
X61903Y-37149D01*
X61903Y-36852D01*
X61790Y-36578D01*
X61712Y-36500D01*
X61789Y-36423D01*
X61903Y-36149D01*
X61903Y-35852D01*
X61790Y-35578D01*
X61712Y-35500D01*
X61789Y-35423D01*
X61903Y-35149D01*
X61903Y-34852D01*
X61790Y-34578D01*
X61712Y-34500D01*
X61789Y-34423D01*
X61903Y-34149D01*
X61903Y-33852D01*
X61790Y-33578D01*
X61580Y-33368D01*
X61563Y-33360D01*
X61665Y-33196D01*
X61682Y-33137D01*
X61635Y-33050D01*
X61100Y-33050D01*
X61050Y-33050D01*
X60950Y-33050D01*
X60900Y-33050D01*
X60365Y-33050D01*
X60318Y-33137D01*
X60335Y-33196D01*
X60436Y-33360D01*
X60421Y-33367D01*
X60211Y-33577D01*
X60097Y-33851D01*
X60097Y-34148D01*
X60210Y-34422D01*
X60288Y-34500D01*
X60211Y-34577D01*
X60097Y-34851D01*
X60097Y-35148D01*
X60172Y-35331D01*
X59906Y-35220D01*
X59596Y-35220D01*
X59309Y-35338D01*
X59250Y-35397D01*
X59193Y-35340D01*
X58906Y-35220D01*
X58850Y-35220D01*
X58850Y-29670D01*
X58850Y-29332D01*
X58721Y-29020D01*
X58549Y-28847D01*
X58549Y-27146D01*
X58549Y-26855D01*
X58438Y-26586D01*
X58352Y-26500D01*
X58437Y-26415D01*
X58549Y-26146D01*
X58549Y-25855D01*
X58549Y-24646D01*
X58549Y-24355D01*
X58438Y-24086D01*
X58232Y-23880D01*
X58200Y-23866D01*
X58252Y-23817D01*
X58325Y-23634D01*
X58325Y-23366D01*
X58252Y-23183D01*
X58096Y-23033D01*
X57895Y-22954D01*
X57550Y-22954D01*
X57550Y-23450D01*
X58278Y-23450D01*
X58325Y-23366D01*
X58325Y-23634D01*
X58278Y-23550D01*
X57600Y-23550D01*
X57550Y-23550D01*
X57450Y-23550D01*
X57450Y-23450D01*
X57450Y-22954D01*
X57450Y-20190D01*
X57450Y-19812D01*
X57306Y-19463D01*
X57039Y-19195D01*
X56690Y-19050D01*
X56312Y-19050D01*
X55963Y-19194D01*
X55695Y-19461D01*
X55550Y-19810D01*
X55550Y-20188D01*
X55694Y-20537D01*
X55961Y-20805D01*
X56310Y-20950D01*
X56688Y-20950D01*
X57037Y-20806D01*
X57305Y-20539D01*
X57450Y-20190D01*
X57450Y-22954D01*
X57105Y-22954D01*
X57048Y-22976D01*
X57114Y-22911D01*
X57225Y-22644D01*
X57225Y-22356D01*
X57115Y-22090D01*
X56911Y-21886D01*
X56644Y-21775D01*
X56356Y-21775D01*
X56090Y-21885D01*
X55886Y-22089D01*
X55775Y-22356D01*
X55775Y-22644D01*
X55885Y-22910D01*
X56089Y-23114D01*
X56356Y-23225D01*
X56644Y-23225D01*
X56749Y-23181D01*
X56748Y-23183D01*
X56675Y-23366D01*
X56722Y-23450D01*
X57450Y-23450D01*
X57450Y-23550D01*
X57400Y-23550D01*
X56722Y-23550D01*
X56675Y-23634D01*
X56748Y-23817D01*
X56799Y-23866D01*
X56769Y-23879D01*
X56563Y-24085D01*
X56451Y-24354D01*
X56451Y-24645D01*
X56562Y-24914D01*
X56768Y-25120D01*
X57037Y-25232D01*
X57328Y-25232D01*
X57962Y-25232D01*
X58231Y-25121D01*
X58437Y-24915D01*
X58549Y-24646D01*
X58549Y-25855D01*
X58438Y-25586D01*
X58232Y-25380D01*
X57963Y-25268D01*
X57672Y-25268D01*
X57038Y-25268D01*
X56769Y-25379D01*
X56563Y-25585D01*
X56451Y-25854D01*
X56451Y-26145D01*
X56562Y-26414D01*
X56648Y-26500D01*
X56563Y-26585D01*
X56451Y-26854D01*
X56451Y-27145D01*
X56562Y-27414D01*
X56768Y-27620D01*
X57037Y-27732D01*
X57328Y-27732D01*
X57962Y-27732D01*
X58231Y-27621D01*
X58437Y-27415D01*
X58549Y-27146D01*
X58549Y-28847D01*
X58482Y-28780D01*
X58170Y-28650D01*
X57832Y-28650D01*
X57520Y-28779D01*
X57280Y-29018D01*
X57150Y-29330D01*
X57150Y-29668D01*
X57279Y-29980D01*
X57518Y-30220D01*
X57830Y-30350D01*
X58168Y-30350D01*
X58480Y-30221D01*
X58720Y-29982D01*
X58850Y-29670D01*
X58850Y-35220D01*
X58799Y-35220D01*
X58799Y-33660D01*
X58799Y-33342D01*
X58678Y-33048D01*
X58453Y-32823D01*
X58160Y-32701D01*
X57842Y-32701D01*
X57548Y-32822D01*
X57323Y-33047D01*
X57201Y-33340D01*
X57201Y-33658D01*
X57322Y-33952D01*
X57547Y-34177D01*
X57840Y-34299D01*
X58158Y-34299D01*
X58452Y-34178D01*
X58677Y-33953D01*
X58799Y-33660D01*
X58799Y-35220D01*
X58596Y-35220D01*
X58309Y-35338D01*
X58090Y-35557D01*
X57983Y-35810D01*
X57952Y-35733D01*
X57861Y-35710D01*
X57790Y-35781D01*
X57790Y-35639D01*
X57767Y-35548D01*
X57574Y-35481D01*
X57370Y-35492D01*
X57233Y-35548D01*
X57210Y-35639D01*
X57500Y-35929D01*
X57790Y-35639D01*
X57790Y-35781D01*
X57571Y-36000D01*
X57861Y-36290D01*
X57952Y-36267D01*
X57981Y-36181D01*
X58088Y-36441D01*
X58307Y-36660D01*
X58594Y-36780D01*
X58904Y-36780D01*
X59191Y-36662D01*
X59250Y-36603D01*
X59307Y-36660D01*
X59594Y-36780D01*
X59904Y-36780D01*
X60172Y-36669D01*
X60097Y-36851D01*
X60097Y-37148D01*
X60172Y-37331D01*
X59906Y-37220D01*
X59596Y-37220D01*
X59309Y-37338D01*
X59250Y-37397D01*
X59193Y-37340D01*
X58906Y-37220D01*
X58596Y-37220D01*
X58309Y-37338D01*
X58090Y-37557D01*
X57970Y-37844D01*
X57970Y-38154D01*
X58088Y-38441D01*
X58307Y-38660D01*
X58594Y-38780D01*
X58904Y-38780D01*
X59191Y-38662D01*
X59250Y-38603D01*
X59307Y-38660D01*
X59594Y-38780D01*
X59904Y-38780D01*
X60172Y-38669D01*
X60097Y-38851D01*
X60097Y-39148D01*
X60210Y-39422D01*
X60420Y-39632D01*
X60694Y-39746D01*
X60991Y-39746D01*
X61305Y-39746D01*
X61579Y-39633D01*
X61789Y-39423D01*
X61903Y-39149D01*
X61903Y-40450D01*
X58225Y-40450D01*
X58225Y-39144D01*
X58225Y-38856D01*
X58115Y-38590D01*
X57911Y-38386D01*
X57790Y-38335D01*
X57790Y-36361D01*
X57500Y-36071D01*
X57429Y-36142D01*
X57429Y-36000D01*
X57139Y-35710D01*
X57048Y-35733D01*
X56981Y-35926D01*
X56992Y-36130D01*
X57048Y-36267D01*
X57139Y-36290D01*
X57429Y-36000D01*
X57429Y-36142D01*
X57210Y-36361D01*
X57233Y-36452D01*
X57426Y-36519D01*
X57630Y-36508D01*
X57767Y-36452D01*
X57790Y-36361D01*
X57790Y-38335D01*
X57644Y-38275D01*
X57356Y-38275D01*
X57090Y-38385D01*
X56886Y-38589D01*
X56871Y-38622D01*
X56806Y-38463D01*
X56539Y-38195D01*
X56214Y-38060D01*
X56364Y-37911D01*
X56475Y-37644D01*
X56475Y-37356D01*
X56365Y-37090D01*
X56269Y-36994D01*
X56269Y-34574D01*
X56258Y-34370D01*
X56225Y-34289D01*
X56225Y-33644D01*
X56225Y-33356D01*
X56225Y-28644D01*
X56225Y-28356D01*
X56115Y-28090D01*
X55911Y-27886D01*
X55644Y-27775D01*
X55356Y-27775D01*
X55090Y-27885D01*
X54886Y-28089D01*
X54775Y-28356D01*
X54775Y-28644D01*
X54885Y-28910D01*
X55089Y-29114D01*
X55118Y-29126D01*
X55052Y-29193D01*
X55083Y-29224D01*
X55048Y-29233D01*
X54981Y-29426D01*
X54992Y-29630D01*
X55048Y-29767D01*
X55139Y-29790D01*
X55394Y-29535D01*
X55429Y-29500D01*
X55500Y-29429D01*
X55571Y-29500D01*
X55606Y-29535D01*
X55861Y-29790D01*
X55952Y-29767D01*
X56019Y-29574D01*
X56008Y-29370D01*
X55952Y-29233D01*
X55916Y-29224D01*
X55948Y-29193D01*
X55881Y-29126D01*
X55910Y-29115D01*
X56114Y-28911D01*
X56225Y-28644D01*
X56225Y-33356D01*
X56115Y-33090D01*
X56019Y-32994D01*
X55911Y-32886D01*
X55881Y-32873D01*
X55948Y-32807D01*
X55916Y-32775D01*
X55952Y-32767D01*
X56019Y-32574D01*
X56008Y-32370D01*
X55952Y-32233D01*
X55861Y-32210D01*
X55790Y-32281D01*
X55790Y-32139D01*
X55790Y-29861D01*
X55500Y-29571D01*
X55429Y-29642D01*
X55210Y-29861D01*
X55233Y-29952D01*
X55426Y-30019D01*
X55630Y-30008D01*
X55767Y-29952D01*
X55790Y-29861D01*
X55790Y-32139D01*
X55767Y-32048D01*
X55574Y-31981D01*
X55370Y-31992D01*
X55233Y-32048D01*
X55210Y-32139D01*
X55500Y-32429D01*
X55790Y-32139D01*
X55790Y-32281D01*
X55606Y-32465D01*
X55571Y-32500D01*
X55500Y-32571D01*
X55429Y-32500D01*
X55394Y-32465D01*
X55139Y-32210D01*
X55048Y-32233D01*
X54981Y-32426D01*
X54992Y-32630D01*
X55048Y-32767D01*
X55083Y-32775D01*
X55052Y-32807D01*
X55118Y-32873D01*
X55090Y-32885D01*
X54886Y-33089D01*
X54775Y-33356D01*
X54775Y-33644D01*
X54885Y-33910D01*
X55089Y-34114D01*
X55317Y-34208D01*
X55332Y-34223D01*
X55298Y-34233D01*
X55231Y-34426D01*
X55242Y-34630D01*
X55298Y-34767D01*
X55389Y-34790D01*
X55644Y-34535D01*
X55679Y-34500D01*
X55750Y-34429D01*
X55785Y-34394D01*
X56040Y-34139D01*
X56017Y-34048D01*
X55987Y-34037D01*
X56114Y-33911D01*
X56225Y-33644D01*
X56225Y-34289D01*
X56202Y-34233D01*
X56111Y-34210D01*
X55821Y-34500D01*
X56111Y-34790D01*
X56202Y-34767D01*
X56269Y-34574D01*
X56269Y-36994D01*
X56161Y-36886D01*
X56040Y-36835D01*
X56040Y-34861D01*
X55750Y-34571D01*
X55460Y-34861D01*
X55483Y-34952D01*
X55676Y-35019D01*
X55880Y-35008D01*
X56017Y-34952D01*
X56040Y-34861D01*
X56040Y-36835D01*
X55894Y-36775D01*
X55606Y-36775D01*
X55340Y-36885D01*
X55136Y-37089D01*
X55025Y-37356D01*
X55025Y-37644D01*
X55135Y-37910D01*
X55339Y-38114D01*
X55497Y-38179D01*
X55463Y-38194D01*
X55195Y-38461D01*
X55050Y-38810D01*
X55050Y-39188D01*
X55194Y-39537D01*
X55461Y-39805D01*
X55810Y-39950D01*
X56188Y-39950D01*
X56537Y-39806D01*
X56805Y-39539D01*
X56871Y-39378D01*
X56885Y-39410D01*
X57089Y-39614D01*
X57356Y-39725D01*
X57644Y-39725D01*
X57910Y-39615D01*
X58114Y-39411D01*
X58225Y-39144D01*
X58225Y-40450D01*
X54650Y-40450D01*
X54650Y-18600D01*
X68412Y-18600D01*
G54D10*
G36*
X68970Y-34780D02*
X66530Y-37220D01*
X66365Y-37220D01*
X66451Y-37185D01*
X66478Y-37091D01*
X66170Y-36784D01*
X65862Y-37091D01*
X65889Y-37185D01*
X65988Y-37220D01*
X65720Y-37220D01*
X65530Y-37030D01*
X65530Y-37000D01*
X65490Y-36797D01*
X65375Y-36625D01*
X64901Y-36151D01*
X64903Y-36149D01*
X64903Y-35852D01*
X64790Y-35578D01*
X64712Y-35500D01*
X64789Y-35423D01*
X64903Y-35149D01*
X64903Y-34852D01*
X64790Y-34578D01*
X64712Y-34500D01*
X64789Y-34423D01*
X64903Y-34149D01*
X64903Y-33852D01*
X64790Y-33578D01*
X64712Y-33500D01*
X64789Y-33423D01*
X64903Y-33149D01*
X64903Y-32852D01*
X64790Y-32578D01*
X64712Y-32500D01*
X64789Y-32423D01*
X64903Y-32149D01*
X64903Y-31852D01*
X64790Y-31578D01*
X64712Y-31500D01*
X64789Y-31423D01*
X64903Y-31149D01*
X64903Y-30852D01*
X64790Y-30578D01*
X64712Y-30500D01*
X64789Y-30423D01*
X64903Y-30149D01*
X64903Y-29852D01*
X64790Y-29578D01*
X64712Y-29500D01*
X64789Y-29423D01*
X64903Y-29149D01*
X64903Y-28852D01*
X64790Y-28578D01*
X64712Y-28500D01*
X64789Y-28423D01*
X64903Y-28149D01*
X64903Y-27852D01*
X64790Y-27578D01*
X64712Y-27500D01*
X64789Y-27423D01*
X64903Y-27149D01*
X64903Y-26852D01*
X64790Y-26578D01*
X64712Y-26500D01*
X64789Y-26423D01*
X64839Y-26300D01*
X64885Y-26410D01*
X65089Y-26614D01*
X65356Y-26725D01*
X65644Y-26725D01*
X65910Y-26615D01*
X66114Y-26411D01*
X66225Y-26144D01*
X66225Y-25856D01*
X66115Y-25590D01*
X66055Y-25530D01*
X67250Y-25530D01*
X67285Y-25522D01*
X67325Y-25525D01*
X67389Y-25502D01*
X67453Y-25490D01*
X67483Y-25469D01*
X67520Y-25457D01*
X67570Y-25411D01*
X67625Y-25375D01*
X67646Y-25342D01*
X67674Y-25318D01*
X67785Y-25169D01*
X67885Y-25410D01*
X67975Y-25500D01*
X67886Y-25589D01*
X67775Y-25856D01*
X67775Y-25897D01*
X65756Y-27916D01*
X65630Y-28106D01*
X65585Y-28330D01*
X65585Y-29152D01*
X65536Y-29201D01*
X65421Y-29476D01*
X65421Y-29774D01*
X65523Y-30020D01*
X65421Y-30264D01*
X65421Y-30562D01*
X65522Y-30807D01*
X65421Y-31051D01*
X65421Y-31349D01*
X65523Y-31595D01*
X65421Y-31839D01*
X65421Y-32137D01*
X65522Y-32382D01*
X65421Y-32626D01*
X65421Y-32924D01*
X65522Y-33169D01*
X65421Y-33413D01*
X65421Y-33711D01*
X65523Y-33957D01*
X65421Y-34201D01*
X65421Y-34499D01*
X65522Y-34744D01*
X65421Y-34988D01*
X65421Y-35286D01*
X65523Y-35532D01*
X65421Y-35776D01*
X65421Y-36074D01*
X65535Y-36349D01*
X65677Y-36491D01*
X65627Y-36634D01*
X65638Y-36847D01*
X65698Y-36994D01*
X65792Y-37021D01*
X66064Y-36748D01*
X66099Y-36713D01*
X66137Y-36675D01*
X66203Y-36675D01*
X66241Y-36713D01*
X66276Y-36748D01*
X66548Y-37021D01*
X66642Y-36994D01*
X66713Y-36792D01*
X66702Y-36579D01*
X66665Y-36489D01*
X66804Y-36351D01*
X66919Y-36076D01*
X66919Y-35778D01*
X66816Y-35531D01*
X66919Y-35288D01*
X66919Y-34990D01*
X66817Y-34744D01*
X66919Y-34501D01*
X66919Y-34203D01*
X66816Y-33956D01*
X66919Y-33713D01*
X66919Y-33415D01*
X66817Y-33169D01*
X66919Y-32926D01*
X66919Y-32628D01*
X66817Y-32382D01*
X66919Y-32139D01*
X66919Y-31841D01*
X66816Y-31594D01*
X66919Y-31351D01*
X66919Y-31053D01*
X66817Y-30807D01*
X66919Y-30564D01*
X66919Y-30266D01*
X66816Y-30019D01*
X66919Y-29776D01*
X66919Y-29478D01*
X66805Y-29203D01*
X66755Y-29152D01*
X66755Y-28573D01*
X68603Y-26725D01*
X68644Y-26725D01*
X68910Y-26615D01*
X68970Y-26555D01*
X68970Y-34780D01*
X68970Y-34780D01*
G37*
G54D26*
X68970Y-34780D02*
X66530Y-37220D01*
X66365Y-37220D01*
X66451Y-37185D01*
X66478Y-37091D01*
X66170Y-36784D01*
X65862Y-37091D01*
X65889Y-37185D01*
X65988Y-37220D01*
X65720Y-37220D01*
X65530Y-37030D01*
X65530Y-37000D01*
X65490Y-36797D01*
X65375Y-36625D01*
X64901Y-36151D01*
X64903Y-36149D01*
X64903Y-35852D01*
X64790Y-35578D01*
X64712Y-35500D01*
X64789Y-35423D01*
X64903Y-35149D01*
X64903Y-34852D01*
X64790Y-34578D01*
X64712Y-34500D01*
X64789Y-34423D01*
X64903Y-34149D01*
X64903Y-33852D01*
X64790Y-33578D01*
X64712Y-33500D01*
X64789Y-33423D01*
X64903Y-33149D01*
X64903Y-32852D01*
X64790Y-32578D01*
X64712Y-32500D01*
X64789Y-32423D01*
X64903Y-32149D01*
X64903Y-31852D01*
X64790Y-31578D01*
X64712Y-31500D01*
X64789Y-31423D01*
X64903Y-31149D01*
X64903Y-30852D01*
X64790Y-30578D01*
X64712Y-30500D01*
X64789Y-30423D01*
X64903Y-30149D01*
X64903Y-29852D01*
X64790Y-29578D01*
X64712Y-29500D01*
X64789Y-29423D01*
X64903Y-29149D01*
X64903Y-28852D01*
X64790Y-28578D01*
X64712Y-28500D01*
X64789Y-28423D01*
X64903Y-28149D01*
X64903Y-27852D01*
X64790Y-27578D01*
X64712Y-27500D01*
X64789Y-27423D01*
X64903Y-27149D01*
X64903Y-26852D01*
X64790Y-26578D01*
X64712Y-26500D01*
X64789Y-26423D01*
X64839Y-26300D01*
X64885Y-26410D01*
X65089Y-26614D01*
X65356Y-26725D01*
X65644Y-26725D01*
X65910Y-26615D01*
X66114Y-26411D01*
X66225Y-26144D01*
X66225Y-25856D01*
X66115Y-25590D01*
X66055Y-25530D01*
X67250Y-25530D01*
X67285Y-25522D01*
X67325Y-25525D01*
X67389Y-25502D01*
X67453Y-25490D01*
X67483Y-25469D01*
X67520Y-25457D01*
X67570Y-25411D01*
X67625Y-25375D01*
X67646Y-25342D01*
X67674Y-25318D01*
X67785Y-25169D01*
X67885Y-25410D01*
X67975Y-25500D01*
X67886Y-25589D01*
X67775Y-25856D01*
X67775Y-25897D01*
X65756Y-27916D01*
X65630Y-28106D01*
X65585Y-28330D01*
X65585Y-29152D01*
X65536Y-29201D01*
X65421Y-29476D01*
X65421Y-29774D01*
X65523Y-30020D01*
X65421Y-30264D01*
X65421Y-30562D01*
X65522Y-30807D01*
X65421Y-31051D01*
X65421Y-31349D01*
X65523Y-31595D01*
X65421Y-31839D01*
X65421Y-32137D01*
X65522Y-32382D01*
X65421Y-32626D01*
X65421Y-32924D01*
X65522Y-33169D01*
X65421Y-33413D01*
X65421Y-33711D01*
X65523Y-33957D01*
X65421Y-34201D01*
X65421Y-34499D01*
X65522Y-34744D01*
X65421Y-34988D01*
X65421Y-35286D01*
X65523Y-35532D01*
X65421Y-35776D01*
X65421Y-36074D01*
X65535Y-36349D01*
X65677Y-36491D01*
X65627Y-36634D01*
X65638Y-36847D01*
X65698Y-36994D01*
X65792Y-37021D01*
X66064Y-36748D01*
X66099Y-36713D01*
X66137Y-36675D01*
X66203Y-36675D01*
X66241Y-36713D01*
X66276Y-36748D01*
X66548Y-37021D01*
X66642Y-36994D01*
X66713Y-36792D01*
X66702Y-36579D01*
X66665Y-36489D01*
X66804Y-36351D01*
X66919Y-36076D01*
X66919Y-35778D01*
X66816Y-35531D01*
X66919Y-35288D01*
X66919Y-34990D01*
X66817Y-34744D01*
X66919Y-34501D01*
X66919Y-34203D01*
X66816Y-33956D01*
X66919Y-33713D01*
X66919Y-33415D01*
X66817Y-33169D01*
X66919Y-32926D01*
X66919Y-32628D01*
X66817Y-32382D01*
X66919Y-32139D01*
X66919Y-31841D01*
X66816Y-31594D01*
X66919Y-31351D01*
X66919Y-31053D01*
X66817Y-30807D01*
X66919Y-30564D01*
X66919Y-30266D01*
X66816Y-30019D01*
X66919Y-29776D01*
X66919Y-29478D01*
X66805Y-29203D01*
X66755Y-29152D01*
X66755Y-28573D01*
X68603Y-26725D01*
X68644Y-26725D01*
X68910Y-26615D01*
X68970Y-26555D01*
X68970Y-34780D01*
G54D10*
G36*
X74901Y-34351D02*
X74863Y-34389D01*
X74797Y-34389D01*
X74759Y-34351D01*
X74798Y-34312D01*
X74862Y-34312D01*
X74901Y-34351D01*
X74901Y-34351D01*
G37*
G54D26*
X74901Y-34351D02*
X74863Y-34389D01*
X74797Y-34389D01*
X74759Y-34351D01*
X74798Y-34312D01*
X74862Y-34312D01*
X74901Y-34351D01*
G54D10*
G36*
X75650Y-26310D02*
X75405Y-26310D01*
X75475Y-26144D01*
X75475Y-25856D01*
X75450Y-25795D01*
X75450Y-20190D01*
X75450Y-19812D01*
X75306Y-19463D01*
X75039Y-19195D01*
X74690Y-19050D01*
X74312Y-19050D01*
X73963Y-19194D01*
X73695Y-19461D01*
X73550Y-19810D01*
X73550Y-20188D01*
X73694Y-20537D01*
X73961Y-20805D01*
X74310Y-20950D01*
X74688Y-20950D01*
X75037Y-20806D01*
X75305Y-20539D01*
X75450Y-20190D01*
X75450Y-25795D01*
X75365Y-25590D01*
X75161Y-25386D01*
X74894Y-25275D01*
X74606Y-25275D01*
X74340Y-25385D01*
X74136Y-25589D01*
X74072Y-25741D01*
X73985Y-24263D01*
X74030Y-24156D01*
X74030Y-23846D01*
X73948Y-23648D01*
X73933Y-23387D01*
X74030Y-23156D01*
X74030Y-22846D01*
X73912Y-22559D01*
X73882Y-22529D01*
X73860Y-22164D01*
X73864Y-22161D01*
X73975Y-21894D01*
X73975Y-21606D01*
X73865Y-21340D01*
X73661Y-21136D01*
X73394Y-21025D01*
X73106Y-21025D01*
X72840Y-21135D01*
X72636Y-21339D01*
X72623Y-21368D01*
X72557Y-21302D01*
X72525Y-21333D01*
X72517Y-21298D01*
X72324Y-21231D01*
X72120Y-21242D01*
X71983Y-21298D01*
X71960Y-21389D01*
X72215Y-21644D01*
X72250Y-21679D01*
X72321Y-21750D01*
X72250Y-21821D01*
X72215Y-21856D01*
X72179Y-21892D01*
X72179Y-21750D01*
X71889Y-21460D01*
X71798Y-21483D01*
X71731Y-21676D01*
X71742Y-21880D01*
X71798Y-22017D01*
X71889Y-22040D01*
X72179Y-21750D01*
X72179Y-21892D01*
X71960Y-22111D01*
X71983Y-22202D01*
X72176Y-22269D01*
X72380Y-22258D01*
X72517Y-22202D01*
X72525Y-22166D01*
X72540Y-22181D01*
X72557Y-22198D01*
X72623Y-22131D01*
X72635Y-22160D01*
X72691Y-22216D01*
X72704Y-22442D01*
X72590Y-22557D01*
X72540Y-22676D01*
X72470Y-22844D01*
X72470Y-23154D01*
X72588Y-23441D01*
X72647Y-23500D01*
X72590Y-23557D01*
X72470Y-23844D01*
X72470Y-24154D01*
X72588Y-24441D01*
X72807Y-24660D01*
X72837Y-24672D01*
X72881Y-25415D01*
X72190Y-25415D01*
X72161Y-25386D01*
X72129Y-25373D01*
X72225Y-25144D01*
X72225Y-24856D01*
X72115Y-24590D01*
X72064Y-24539D01*
X72160Y-24443D01*
X72280Y-24156D01*
X72280Y-23846D01*
X72162Y-23559D01*
X71968Y-23365D01*
X71988Y-23346D01*
X71953Y-23311D01*
X71996Y-23298D01*
X72073Y-23086D01*
X72062Y-22861D01*
X71996Y-22702D01*
X71900Y-22671D01*
X71606Y-22965D01*
X71571Y-23000D01*
X71500Y-23071D01*
X71429Y-23000D01*
X71500Y-22929D01*
X71535Y-22894D01*
X71829Y-22600D01*
X71798Y-22504D01*
X71586Y-22427D01*
X71361Y-22438D01*
X71280Y-22471D01*
X71280Y-20000D01*
X71240Y-19797D01*
X71125Y-19625D01*
X70625Y-19125D01*
X70125Y-18625D01*
X70087Y-18600D01*
X75650Y-18600D01*
X75650Y-26310D01*
X75650Y-26310D01*
G37*
G54D26*
X75650Y-26310D02*
X75405Y-26310D01*
X75475Y-26144D01*
X75475Y-25856D01*
X75450Y-25795D01*
X75450Y-20190D01*
X75450Y-19812D01*
X75306Y-19463D01*
X75039Y-19195D01*
X74690Y-19050D01*
X74312Y-19050D01*
X73963Y-19194D01*
X73695Y-19461D01*
X73550Y-19810D01*
X73550Y-20188D01*
X73694Y-20537D01*
X73961Y-20805D01*
X74310Y-20950D01*
X74688Y-20950D01*
X75037Y-20806D01*
X75305Y-20539D01*
X75450Y-20190D01*
X75450Y-25795D01*
X75365Y-25590D01*
X75161Y-25386D01*
X74894Y-25275D01*
X74606Y-25275D01*
X74340Y-25385D01*
X74136Y-25589D01*
X74072Y-25741D01*
X73985Y-24263D01*
X74030Y-24156D01*
X74030Y-23846D01*
X73948Y-23648D01*
X73933Y-23387D01*
X74030Y-23156D01*
X74030Y-22846D01*
X73912Y-22559D01*
X73882Y-22529D01*
X73860Y-22164D01*
X73864Y-22161D01*
X73975Y-21894D01*
X73975Y-21606D01*
X73865Y-21340D01*
X73661Y-21136D01*
X73394Y-21025D01*
X73106Y-21025D01*
X72840Y-21135D01*
X72636Y-21339D01*
X72623Y-21368D01*
X72557Y-21302D01*
X72525Y-21333D01*
X72517Y-21298D01*
X72324Y-21231D01*
X72120Y-21242D01*
X71983Y-21298D01*
X71960Y-21389D01*
X72215Y-21644D01*
X72250Y-21679D01*
X72321Y-21750D01*
X72250Y-21821D01*
X72215Y-21856D01*
X72179Y-21892D01*
X72179Y-21750D01*
X71889Y-21460D01*
X71798Y-21483D01*
X71731Y-21676D01*
X71742Y-21880D01*
X71798Y-22017D01*
X71889Y-22040D01*
X72179Y-21750D01*
X72179Y-21892D01*
X71960Y-22111D01*
X71983Y-22202D01*
X72176Y-22269D01*
X72380Y-22258D01*
X72517Y-22202D01*
X72525Y-22166D01*
X72540Y-22181D01*
X72557Y-22198D01*
X72623Y-22131D01*
X72635Y-22160D01*
X72691Y-22216D01*
X72704Y-22442D01*
X72590Y-22557D01*
X72540Y-22676D01*
X72470Y-22844D01*
X72470Y-23154D01*
X72588Y-23441D01*
X72647Y-23500D01*
X72590Y-23557D01*
X72470Y-23844D01*
X72470Y-24154D01*
X72588Y-24441D01*
X72807Y-24660D01*
X72837Y-24672D01*
X72881Y-25415D01*
X72190Y-25415D01*
X72161Y-25386D01*
X72129Y-25373D01*
X72225Y-25144D01*
X72225Y-24856D01*
X72115Y-24590D01*
X72064Y-24539D01*
X72160Y-24443D01*
X72280Y-24156D01*
X72280Y-23846D01*
X72162Y-23559D01*
X71968Y-23365D01*
X71988Y-23346D01*
X71953Y-23311D01*
X71996Y-23298D01*
X72073Y-23086D01*
X72062Y-22861D01*
X71996Y-22702D01*
X71900Y-22671D01*
X71606Y-22965D01*
X71571Y-23000D01*
X71500Y-23071D01*
X71429Y-23000D01*
X71500Y-22929D01*
X71535Y-22894D01*
X71829Y-22600D01*
X71798Y-22504D01*
X71586Y-22427D01*
X71361Y-22438D01*
X71280Y-22471D01*
X71280Y-20000D01*
X71240Y-19797D01*
X71125Y-19625D01*
X70625Y-19125D01*
X70125Y-18625D01*
X70087Y-18600D01*
X75650Y-18600D01*
X75650Y-26310D01*
M02*
