M48
;DRILL file {Pcbnew (2013-07-07 BZR 4022)-stable} date 21/07/2014 3:45:43 p. m.
;FORMAT={2:4/ absolute / inch / keep zeros}
FMAT,2
INCH,TZ
T1C0.025
T2C0.030
T3C0.031
T4C0.039
T5C0.040
T6C0.120
%
G90
G05
M72
T1
X127350Y-094450
X128900Y-082550
X129000Y-086100
X129500Y-075700
X130200Y-082250
X131600Y-089700
X131700Y-086550
X131950Y-088600
X132900Y-089600
X133444Y-085340
X133590Y-087210
X134250Y-085750
T2
X132400Y-082400
X134400Y-082400
T3
X126070Y-073326
X126070Y-074114
X126070Y-074901
X126070Y-075689
X126070Y-076476
X126070Y-077263
X126070Y-078051
X126070Y-078838
X126070Y-079626
X126070Y-080413
X134730Y-073326
X134730Y-074114
X134730Y-074901
X134730Y-075689
X134730Y-076476
X134730Y-077263
X134730Y-078051
X134730Y-078838
X134730Y-079626
X134730Y-080413
T4
X125850Y-093250
X126850Y-093250
X127850Y-093250
X129050Y-095300
X130050Y-095300
T5
X126200Y-083450
X126260Y-085290
X126260Y-086290
X126260Y-087290
X126260Y-088290
X127200Y-083450
X128200Y-083450
X129200Y-083450
X131450Y-091650
X132450Y-091650
X133450Y-091650
X134450Y-091650
X135450Y-091650
X136400Y-086700
X136400Y-087700
X136400Y-088700
X136400Y-089700
X136450Y-091650
T6
X126378Y-071260
X126378Y-095472
X135827Y-071260
X135827Y-095472
T0
M30
