G04 (created by PCBNEW (2013-07-07 BZR 4022)-stable) date 09/06/2014 3:50:17 p. m.*
%MOIN*%
G04 Gerber Fmt 3.4, Leading zero omitted, Abs format*
%FSLAX34Y34*%
G01*
G70*
G90*
G04 APERTURE LIST*
%ADD10C,0.00590551*%
%ADD11R,0.03X0.0869*%
%ADD12R,0.2244X0.2165*%
%ADD13R,0.0669X0.0512*%
%ADD14C,0.06*%
%ADD15R,0.08X0.06*%
%ADD16R,0.035X0.055*%
%ADD17R,0.055X0.035*%
%ADD18O,0.0593X0.1187*%
%ADD19R,0.06X0.06*%
%ADD20C,0.056*%
%ADD21C,0.16*%
%ADD22C,0.035*%
%ADD23C,0.01*%
G04 APERTURE END LIST*
G54D10*
G54D11*
X132900Y-79100D03*
X131900Y-79100D03*
X130900Y-79100D03*
X129900Y-79100D03*
X129900Y-73300D03*
X130900Y-73300D03*
X131900Y-73300D03*
X132900Y-73300D03*
G54D12*
X131090Y-85680D03*
G54D13*
X131990Y-88593D03*
X130190Y-88593D03*
G54D14*
X126070Y-73326D03*
X126070Y-74114D03*
X126070Y-74901D03*
X126070Y-75689D03*
X126070Y-76476D03*
X126070Y-77263D03*
X126070Y-78051D03*
X126070Y-78838D03*
X126070Y-79626D03*
X126070Y-80413D03*
X134730Y-80413D03*
X134730Y-79626D03*
X134730Y-78838D03*
X134730Y-78051D03*
X134730Y-77263D03*
X134730Y-76476D03*
X134730Y-75689D03*
X134730Y-74901D03*
X134730Y-74114D03*
X134730Y-73326D03*
G54D15*
X128600Y-81050D03*
X128600Y-79750D03*
X130200Y-82250D03*
X130200Y-80950D03*
G54D16*
X131825Y-80800D03*
X132575Y-80800D03*
X128775Y-77400D03*
X128025Y-77400D03*
X128775Y-76200D03*
X128025Y-76200D03*
G54D17*
X128990Y-88415D03*
X128990Y-87665D03*
X133600Y-87225D03*
X133600Y-87975D03*
G54D16*
X126825Y-90800D03*
X127575Y-90800D03*
X129375Y-90800D03*
X128625Y-90800D03*
G54D18*
X125850Y-92750D03*
X126850Y-92750D03*
X127850Y-92750D03*
X130200Y-92750D03*
X129200Y-92750D03*
G54D19*
X126260Y-85290D03*
G54D14*
X126260Y-86290D03*
X126260Y-87290D03*
X126260Y-88290D03*
G54D19*
X136400Y-89700D03*
G54D14*
X136400Y-88700D03*
X136400Y-87700D03*
X136400Y-86700D03*
G54D19*
X126200Y-83500D03*
G54D14*
X126200Y-82500D03*
X127200Y-83500D03*
X127200Y-82500D03*
X128200Y-83500D03*
X128200Y-82500D03*
G54D20*
X134400Y-82400D03*
X132400Y-82400D03*
G54D19*
X131450Y-91650D03*
G54D14*
X132450Y-91650D03*
X133450Y-91650D03*
X134450Y-91650D03*
X135450Y-91650D03*
X136450Y-91650D03*
G54D21*
X126377Y-95472D03*
X135826Y-95472D03*
X126377Y-71259D03*
X135826Y-71259D03*
G54D22*
X130104Y-82868D03*
X134879Y-87902D03*
X133667Y-89158D03*
X133444Y-85340D03*
X129500Y-75700D03*
X128470Y-85730D03*
X128390Y-84750D03*
X132630Y-87370D03*
X125550Y-93950D03*
X131600Y-89700D03*
X131950Y-88600D03*
X132900Y-89600D03*
X131700Y-86550D03*
X133590Y-87210D03*
G54D23*
X129375Y-90800D02*
X129375Y-91225D01*
X129375Y-91225D02*
X127850Y-92750D01*
X131900Y-79100D02*
X131900Y-79684D01*
X132575Y-80359D02*
X132575Y-80800D01*
X131900Y-79684D02*
X132575Y-80359D01*
X132575Y-81393D02*
X132575Y-80800D01*
X137262Y-86080D02*
X132575Y-81393D01*
X137262Y-89963D02*
X137262Y-86080D01*
X136425Y-90800D02*
X137262Y-89963D01*
X129375Y-90800D02*
X136425Y-90800D01*
X130200Y-82250D02*
X129800Y-82250D01*
X129800Y-82250D02*
X128600Y-81050D01*
X130200Y-82250D02*
X129924Y-82250D01*
X129924Y-82689D02*
X130104Y-82868D01*
X129924Y-82250D02*
X129924Y-82689D01*
X127650Y-82950D02*
X127200Y-82500D01*
X129466Y-82950D02*
X127650Y-82950D01*
X129828Y-83311D02*
X129466Y-82950D01*
X131875Y-83311D02*
X129828Y-83311D01*
X134879Y-86316D02*
X131875Y-83311D01*
X134879Y-87902D02*
X134879Y-86316D01*
X133667Y-89158D02*
X131508Y-89158D01*
X131508Y-89158D02*
X131240Y-88890D01*
X127790Y-87770D02*
X128120Y-87770D01*
X125610Y-87410D02*
X125870Y-87770D01*
X125870Y-87770D02*
X127790Y-87770D01*
X126200Y-83930D02*
X125610Y-84620D01*
X125610Y-84620D02*
X125610Y-87410D01*
X126200Y-83500D02*
X126200Y-83930D01*
X128120Y-87770D02*
X128400Y-88050D01*
X128400Y-88050D02*
X130710Y-88050D01*
X130710Y-88050D02*
X131240Y-88580D01*
X131240Y-88580D02*
X131240Y-88890D01*
X131804Y-83700D02*
X133444Y-85340D01*
X128400Y-83700D02*
X131804Y-83700D01*
X128200Y-83500D02*
X128400Y-83700D01*
X126070Y-74114D02*
X127964Y-74114D01*
X129500Y-75650D02*
X129500Y-75700D01*
X127964Y-74114D02*
X129500Y-75650D01*
X128470Y-85730D02*
X128470Y-85900D01*
X132575Y-87330D02*
X132630Y-87370D01*
X129900Y-87330D02*
X132575Y-87330D01*
X128470Y-85900D02*
X129900Y-87330D01*
X127200Y-83500D02*
X127200Y-83560D01*
X127200Y-83560D02*
X128390Y-84750D01*
X125300Y-93700D02*
X125300Y-93500D01*
X125550Y-93950D02*
X125300Y-93700D01*
X126070Y-74901D02*
X125999Y-74901D01*
X125300Y-75600D02*
X125300Y-93500D01*
X125999Y-74901D02*
X125300Y-75600D01*
X131600Y-89700D02*
X131850Y-89700D01*
X131850Y-89700D02*
X132100Y-89950D01*
X132100Y-89950D02*
X132200Y-90050D01*
X136846Y-90096D02*
X136846Y-90096D01*
X132600Y-90450D02*
X132200Y-90050D01*
X136492Y-90450D02*
X132600Y-90450D01*
X136846Y-90096D02*
X136492Y-90450D01*
X137061Y-89880D02*
X136846Y-90096D01*
X137061Y-87361D02*
X137061Y-89880D01*
X136400Y-86700D02*
X137061Y-87361D01*
X131957Y-88593D02*
X131990Y-88593D01*
X131950Y-88600D02*
X131957Y-88593D01*
X131450Y-91650D02*
X131300Y-91650D01*
X131300Y-91650D02*
X130200Y-92750D01*
X126850Y-92750D02*
X126850Y-92156D01*
X126850Y-92156D02*
X128053Y-90953D01*
X128206Y-90800D02*
X128053Y-90953D01*
X128625Y-90800D02*
X128206Y-90800D01*
X128053Y-90953D02*
X127900Y-90800D01*
X127575Y-90800D02*
X127900Y-90800D01*
X131990Y-88593D02*
X131990Y-88060D01*
X131990Y-88060D02*
X131595Y-87665D01*
X131595Y-87665D02*
X128990Y-87665D01*
X132982Y-88593D02*
X133600Y-87975D01*
X131990Y-88593D02*
X132982Y-88593D01*
X136400Y-88700D02*
X134325Y-88700D01*
X134325Y-88700D02*
X133600Y-87975D01*
X128775Y-77400D02*
X129780Y-77400D01*
X130900Y-78520D02*
X130900Y-79100D01*
X129780Y-77400D02*
X130900Y-78520D01*
X128775Y-76200D02*
X128775Y-77400D01*
X130200Y-80950D02*
X130090Y-80950D01*
X129553Y-80413D02*
X126070Y-80413D01*
X130090Y-80950D02*
X129553Y-80413D01*
X126070Y-80413D02*
X126113Y-80413D01*
X126113Y-80413D02*
X128200Y-82500D01*
X130750Y-80949D02*
X130900Y-80800D01*
X130750Y-80950D02*
X130750Y-80949D01*
X131825Y-80800D02*
X130900Y-80800D01*
X130200Y-80950D02*
X130750Y-80950D01*
X130900Y-80800D02*
X130900Y-79100D01*
X127600Y-86300D02*
X129000Y-87699D01*
X128990Y-87665D02*
X129000Y-87699D01*
X126260Y-86290D02*
X127600Y-86300D01*
X128025Y-77400D02*
X128025Y-79175D01*
X128025Y-79175D02*
X128600Y-79750D01*
X128600Y-79750D02*
X129250Y-79750D01*
X129250Y-79750D02*
X129900Y-79100D01*
X128025Y-76200D02*
X128025Y-77400D01*
X129200Y-92750D02*
X129200Y-93150D01*
X129200Y-93150D02*
X128400Y-93950D01*
X125850Y-92750D02*
X125850Y-93300D01*
X128400Y-93950D02*
X127850Y-93950D01*
X125850Y-93300D02*
X126500Y-93950D01*
X126500Y-93950D02*
X127850Y-93950D01*
X125850Y-92750D02*
X125850Y-91775D01*
X125850Y-91775D02*
X126825Y-90800D01*
X128990Y-88415D02*
X128635Y-88415D01*
X128635Y-88415D02*
X126825Y-90225D01*
X126825Y-90225D02*
X126825Y-90800D01*
X128990Y-88415D02*
X130012Y-88415D01*
X130012Y-88415D02*
X130190Y-88593D01*
X133000Y-89700D02*
X136400Y-89700D01*
X132900Y-89600D02*
X133000Y-89700D01*
X131090Y-85940D02*
X131090Y-85680D01*
X131700Y-86550D02*
X131090Y-85940D01*
X131090Y-85680D02*
X132055Y-85680D01*
X132055Y-85680D02*
X133600Y-87225D01*
X126260Y-85290D02*
X129090Y-85290D01*
X129090Y-85290D02*
X129480Y-85680D01*
X129480Y-85680D02*
X131090Y-85680D01*
X133590Y-87210D02*
X133600Y-87220D01*
X133600Y-87220D02*
X133600Y-87225D01*
G54D10*
G36*
X132225Y-90500D02*
X129800Y-90500D01*
X129800Y-90475D01*
X129762Y-90383D01*
X129691Y-90313D01*
X129599Y-90275D01*
X129500Y-90274D01*
X129150Y-90274D01*
X129058Y-90312D01*
X129000Y-90371D01*
X128941Y-90312D01*
X128849Y-90274D01*
X128737Y-90275D01*
X128675Y-90337D01*
X128675Y-90750D01*
X128682Y-90750D01*
X128682Y-90850D01*
X128675Y-90850D01*
X128675Y-91262D01*
X128737Y-91325D01*
X128849Y-91325D01*
X128851Y-91324D01*
X128575Y-91600D01*
X128575Y-91262D01*
X128575Y-90850D01*
X128575Y-90750D01*
X128575Y-90337D01*
X128512Y-90275D01*
X128400Y-90274D01*
X128308Y-90312D01*
X128238Y-90383D01*
X128200Y-90475D01*
X128199Y-90574D01*
X128200Y-90687D01*
X128262Y-90750D01*
X128575Y-90750D01*
X128575Y-90850D01*
X128262Y-90850D01*
X128200Y-90912D01*
X128199Y-91025D01*
X128200Y-91124D01*
X128238Y-91216D01*
X128308Y-91287D01*
X128400Y-91325D01*
X128512Y-91325D01*
X128575Y-91262D01*
X128575Y-91600D01*
X128170Y-92005D01*
X128059Y-91931D01*
X128000Y-91919D01*
X128000Y-91025D01*
X128000Y-90574D01*
X127999Y-90475D01*
X127961Y-90383D01*
X127891Y-90312D01*
X127799Y-90274D01*
X127687Y-90275D01*
X127625Y-90337D01*
X127625Y-90750D01*
X127937Y-90750D01*
X128000Y-90687D01*
X128000Y-90574D01*
X128000Y-91025D01*
X128000Y-90912D01*
X127937Y-90850D01*
X127625Y-90850D01*
X127625Y-91262D01*
X127687Y-91325D01*
X127799Y-91325D01*
X127891Y-91287D01*
X127961Y-91216D01*
X127999Y-91124D01*
X128000Y-91025D01*
X128000Y-91919D01*
X127850Y-91889D01*
X127640Y-91931D01*
X127463Y-92050D01*
X127345Y-92227D01*
X127344Y-92228D01*
X127335Y-92197D01*
X127201Y-92031D01*
X127012Y-91928D01*
X126984Y-91923D01*
X126900Y-91971D01*
X126900Y-92700D01*
X126907Y-92700D01*
X126907Y-92800D01*
X126900Y-92800D01*
X126900Y-93528D01*
X126984Y-93576D01*
X127012Y-93571D01*
X127201Y-93468D01*
X127335Y-93302D01*
X127344Y-93271D01*
X127345Y-93272D01*
X127463Y-93449D01*
X127640Y-93568D01*
X127850Y-93610D01*
X128059Y-93568D01*
X128236Y-93449D01*
X128354Y-93272D01*
X128396Y-93063D01*
X128396Y-92627D01*
X128669Y-92354D01*
X128653Y-92436D01*
X128653Y-93063D01*
X128688Y-93237D01*
X128275Y-93650D01*
X127850Y-93650D01*
X126624Y-93650D01*
X126311Y-93337D01*
X126354Y-93272D01*
X126355Y-93271D01*
X126364Y-93302D01*
X126498Y-93468D01*
X126687Y-93571D01*
X126715Y-93576D01*
X126800Y-93528D01*
X126800Y-92800D01*
X126792Y-92800D01*
X126792Y-92700D01*
X126800Y-92700D01*
X126800Y-91971D01*
X126715Y-91923D01*
X126687Y-91928D01*
X126498Y-92031D01*
X126364Y-92197D01*
X126355Y-92228D01*
X126354Y-92227D01*
X126236Y-92050D01*
X126150Y-91992D01*
X126150Y-91899D01*
X126724Y-91325D01*
X127049Y-91325D01*
X127141Y-91287D01*
X127200Y-91228D01*
X127258Y-91287D01*
X127350Y-91325D01*
X127462Y-91325D01*
X127525Y-91262D01*
X127525Y-90850D01*
X127517Y-90850D01*
X127517Y-90750D01*
X127525Y-90750D01*
X127525Y-90337D01*
X127462Y-90275D01*
X127350Y-90274D01*
X127258Y-90312D01*
X127199Y-90371D01*
X127151Y-90322D01*
X128643Y-88830D01*
X128665Y-88839D01*
X128764Y-88840D01*
X129314Y-88840D01*
X129406Y-88802D01*
X129476Y-88731D01*
X129483Y-88715D01*
X129605Y-88715D01*
X129605Y-88898D01*
X129643Y-88990D01*
X129713Y-89060D01*
X129805Y-89098D01*
X129905Y-89099D01*
X130574Y-89099D01*
X130665Y-89061D01*
X130736Y-88990D01*
X130774Y-88898D01*
X130774Y-88799D01*
X130774Y-88538D01*
X130940Y-88704D01*
X130940Y-88890D01*
X130962Y-89004D01*
X131027Y-89102D01*
X131296Y-89370D01*
X131296Y-89370D01*
X131315Y-89383D01*
X131239Y-89458D01*
X131175Y-89615D01*
X131174Y-89784D01*
X131239Y-89940D01*
X131358Y-90060D01*
X131515Y-90124D01*
X131684Y-90125D01*
X131802Y-90076D01*
X131887Y-90162D01*
X131887Y-90162D01*
X131887Y-90162D01*
X131987Y-90262D01*
X131987Y-90262D01*
X131987Y-90262D01*
X132225Y-90500D01*
X132225Y-90500D01*
G37*
G54D23*
X132225Y-90500D02*
X129800Y-90500D01*
X129800Y-90475D01*
X129762Y-90383D01*
X129691Y-90313D01*
X129599Y-90275D01*
X129500Y-90274D01*
X129150Y-90274D01*
X129058Y-90312D01*
X129000Y-90371D01*
X128941Y-90312D01*
X128849Y-90274D01*
X128737Y-90275D01*
X128675Y-90337D01*
X128675Y-90750D01*
X128682Y-90750D01*
X128682Y-90850D01*
X128675Y-90850D01*
X128675Y-91262D01*
X128737Y-91325D01*
X128849Y-91325D01*
X128851Y-91324D01*
X128575Y-91600D01*
X128575Y-91262D01*
X128575Y-90850D01*
X128575Y-90750D01*
X128575Y-90337D01*
X128512Y-90275D01*
X128400Y-90274D01*
X128308Y-90312D01*
X128238Y-90383D01*
X128200Y-90475D01*
X128199Y-90574D01*
X128200Y-90687D01*
X128262Y-90750D01*
X128575Y-90750D01*
X128575Y-90850D01*
X128262Y-90850D01*
X128200Y-90912D01*
X128199Y-91025D01*
X128200Y-91124D01*
X128238Y-91216D01*
X128308Y-91287D01*
X128400Y-91325D01*
X128512Y-91325D01*
X128575Y-91262D01*
X128575Y-91600D01*
X128170Y-92005D01*
X128059Y-91931D01*
X128000Y-91919D01*
X128000Y-91025D01*
X128000Y-90574D01*
X127999Y-90475D01*
X127961Y-90383D01*
X127891Y-90312D01*
X127799Y-90274D01*
X127687Y-90275D01*
X127625Y-90337D01*
X127625Y-90750D01*
X127937Y-90750D01*
X128000Y-90687D01*
X128000Y-90574D01*
X128000Y-91025D01*
X128000Y-90912D01*
X127937Y-90850D01*
X127625Y-90850D01*
X127625Y-91262D01*
X127687Y-91325D01*
X127799Y-91325D01*
X127891Y-91287D01*
X127961Y-91216D01*
X127999Y-91124D01*
X128000Y-91025D01*
X128000Y-91919D01*
X127850Y-91889D01*
X127640Y-91931D01*
X127463Y-92050D01*
X127345Y-92227D01*
X127344Y-92228D01*
X127335Y-92197D01*
X127201Y-92031D01*
X127012Y-91928D01*
X126984Y-91923D01*
X126900Y-91971D01*
X126900Y-92700D01*
X126907Y-92700D01*
X126907Y-92800D01*
X126900Y-92800D01*
X126900Y-93528D01*
X126984Y-93576D01*
X127012Y-93571D01*
X127201Y-93468D01*
X127335Y-93302D01*
X127344Y-93271D01*
X127345Y-93272D01*
X127463Y-93449D01*
X127640Y-93568D01*
X127850Y-93610D01*
X128059Y-93568D01*
X128236Y-93449D01*
X128354Y-93272D01*
X128396Y-93063D01*
X128396Y-92627D01*
X128669Y-92354D01*
X128653Y-92436D01*
X128653Y-93063D01*
X128688Y-93237D01*
X128275Y-93650D01*
X127850Y-93650D01*
X126624Y-93650D01*
X126311Y-93337D01*
X126354Y-93272D01*
X126355Y-93271D01*
X126364Y-93302D01*
X126498Y-93468D01*
X126687Y-93571D01*
X126715Y-93576D01*
X126800Y-93528D01*
X126800Y-92800D01*
X126792Y-92800D01*
X126792Y-92700D01*
X126800Y-92700D01*
X126800Y-91971D01*
X126715Y-91923D01*
X126687Y-91928D01*
X126498Y-92031D01*
X126364Y-92197D01*
X126355Y-92228D01*
X126354Y-92227D01*
X126236Y-92050D01*
X126150Y-91992D01*
X126150Y-91899D01*
X126724Y-91325D01*
X127049Y-91325D01*
X127141Y-91287D01*
X127200Y-91228D01*
X127258Y-91287D01*
X127350Y-91325D01*
X127462Y-91325D01*
X127525Y-91262D01*
X127525Y-90850D01*
X127517Y-90850D01*
X127517Y-90750D01*
X127525Y-90750D01*
X127525Y-90337D01*
X127462Y-90275D01*
X127350Y-90274D01*
X127258Y-90312D01*
X127199Y-90371D01*
X127151Y-90322D01*
X128643Y-88830D01*
X128665Y-88839D01*
X128764Y-88840D01*
X129314Y-88840D01*
X129406Y-88802D01*
X129476Y-88731D01*
X129483Y-88715D01*
X129605Y-88715D01*
X129605Y-88898D01*
X129643Y-88990D01*
X129713Y-89060D01*
X129805Y-89098D01*
X129905Y-89099D01*
X130574Y-89099D01*
X130665Y-89061D01*
X130736Y-88990D01*
X130774Y-88898D01*
X130774Y-88799D01*
X130774Y-88538D01*
X130940Y-88704D01*
X130940Y-88890D01*
X130962Y-89004D01*
X131027Y-89102D01*
X131296Y-89370D01*
X131296Y-89370D01*
X131315Y-89383D01*
X131239Y-89458D01*
X131175Y-89615D01*
X131174Y-89784D01*
X131239Y-89940D01*
X131358Y-90060D01*
X131515Y-90124D01*
X131684Y-90125D01*
X131802Y-90076D01*
X131887Y-90162D01*
X131887Y-90162D01*
X131887Y-90162D01*
X131987Y-90262D01*
X131987Y-90262D01*
X131987Y-90262D01*
X132225Y-90500D01*
G54D10*
G36*
X137130Y-85524D02*
X135280Y-83674D01*
X135280Y-80304D01*
X135196Y-80101D01*
X135114Y-80019D01*
X135195Y-79937D01*
X135279Y-79735D01*
X135280Y-79517D01*
X135196Y-79314D01*
X135113Y-79231D01*
X135195Y-79149D01*
X135279Y-78947D01*
X135280Y-78729D01*
X135196Y-78526D01*
X135114Y-78444D01*
X135195Y-78362D01*
X135279Y-78160D01*
X135280Y-77942D01*
X135196Y-77739D01*
X135113Y-77656D01*
X135195Y-77574D01*
X135279Y-77372D01*
X135280Y-77154D01*
X135196Y-76951D01*
X135114Y-76869D01*
X135195Y-76787D01*
X135279Y-76585D01*
X135280Y-76367D01*
X135196Y-76164D01*
X135114Y-76082D01*
X135195Y-76000D01*
X135279Y-75798D01*
X135280Y-75580D01*
X135196Y-75377D01*
X135113Y-75294D01*
X135195Y-75212D01*
X135279Y-75010D01*
X135280Y-74792D01*
X135196Y-74589D01*
X135114Y-74507D01*
X135195Y-74425D01*
X135279Y-74223D01*
X135280Y-74005D01*
X135196Y-73802D01*
X135113Y-73719D01*
X135195Y-73637D01*
X135279Y-73435D01*
X135280Y-73217D01*
X135196Y-73014D01*
X135041Y-72860D01*
X134839Y-72776D01*
X134621Y-72775D01*
X134418Y-72859D01*
X134264Y-73014D01*
X134180Y-73216D01*
X134179Y-73434D01*
X134263Y-73637D01*
X134346Y-73720D01*
X134264Y-73802D01*
X134180Y-74004D01*
X134179Y-74222D01*
X134263Y-74425D01*
X134345Y-74507D01*
X134264Y-74589D01*
X134180Y-74791D01*
X134179Y-75009D01*
X134263Y-75212D01*
X134346Y-75295D01*
X134264Y-75377D01*
X134180Y-75579D01*
X134179Y-75797D01*
X134263Y-76000D01*
X134345Y-76082D01*
X134264Y-76164D01*
X134180Y-76366D01*
X134179Y-76584D01*
X134263Y-76787D01*
X134345Y-76869D01*
X134264Y-76951D01*
X134180Y-77153D01*
X134179Y-77371D01*
X134263Y-77574D01*
X134346Y-77657D01*
X134264Y-77739D01*
X134180Y-77941D01*
X134179Y-78159D01*
X134263Y-78362D01*
X134345Y-78444D01*
X134264Y-78526D01*
X134180Y-78728D01*
X134179Y-78946D01*
X134263Y-79149D01*
X134346Y-79232D01*
X134264Y-79314D01*
X134180Y-79516D01*
X134179Y-79734D01*
X134263Y-79937D01*
X134345Y-80019D01*
X134264Y-80101D01*
X134180Y-80303D01*
X134179Y-80521D01*
X134263Y-80724D01*
X134418Y-80878D01*
X134620Y-80962D01*
X134838Y-80963D01*
X135041Y-80879D01*
X135195Y-80724D01*
X135279Y-80522D01*
X135280Y-80304D01*
X135280Y-83674D01*
X134526Y-82921D01*
X134699Y-82849D01*
X134849Y-82700D01*
X134929Y-82505D01*
X134930Y-82295D01*
X134849Y-82100D01*
X134700Y-81950D01*
X134505Y-81870D01*
X134295Y-81869D01*
X134100Y-81950D01*
X133950Y-82099D01*
X133878Y-82273D01*
X133300Y-81694D01*
X133300Y-79484D01*
X133300Y-78615D01*
X133300Y-73684D01*
X133300Y-72815D01*
X133262Y-72724D01*
X133191Y-72653D01*
X133099Y-72615D01*
X133000Y-72615D01*
X132700Y-72615D01*
X132608Y-72653D01*
X132538Y-72723D01*
X132500Y-72815D01*
X132499Y-72915D01*
X132499Y-73784D01*
X132537Y-73875D01*
X132608Y-73946D01*
X132700Y-73984D01*
X132799Y-73984D01*
X133099Y-73984D01*
X133191Y-73946D01*
X133261Y-73876D01*
X133299Y-73784D01*
X133300Y-73684D01*
X133300Y-78615D01*
X133262Y-78524D01*
X133191Y-78453D01*
X133099Y-78415D01*
X133000Y-78415D01*
X132700Y-78415D01*
X132608Y-78453D01*
X132538Y-78523D01*
X132500Y-78615D01*
X132499Y-78715D01*
X132499Y-79584D01*
X132537Y-79675D01*
X132608Y-79746D01*
X132700Y-79784D01*
X132799Y-79784D01*
X133099Y-79784D01*
X133191Y-79746D01*
X133261Y-79676D01*
X133299Y-79584D01*
X133300Y-79484D01*
X133300Y-81694D01*
X132891Y-81286D01*
X132961Y-81216D01*
X132999Y-81124D01*
X133000Y-81025D01*
X133000Y-80475D01*
X132962Y-80383D01*
X132891Y-80313D01*
X132863Y-80301D01*
X132852Y-80244D01*
X132787Y-80147D01*
X132277Y-79638D01*
X132299Y-79584D01*
X132300Y-79484D01*
X132300Y-78615D01*
X132300Y-73684D01*
X132300Y-72815D01*
X132262Y-72724D01*
X132191Y-72653D01*
X132099Y-72615D01*
X132000Y-72615D01*
X131700Y-72615D01*
X131608Y-72653D01*
X131538Y-72723D01*
X131500Y-72815D01*
X131499Y-72915D01*
X131499Y-73784D01*
X131537Y-73875D01*
X131608Y-73946D01*
X131700Y-73984D01*
X131799Y-73984D01*
X132099Y-73984D01*
X132191Y-73946D01*
X132261Y-73876D01*
X132299Y-73784D01*
X132300Y-73684D01*
X132300Y-78615D01*
X132262Y-78524D01*
X132191Y-78453D01*
X132099Y-78415D01*
X132000Y-78415D01*
X131700Y-78415D01*
X131608Y-78453D01*
X131538Y-78523D01*
X131500Y-78615D01*
X131499Y-78715D01*
X131499Y-79584D01*
X131537Y-79675D01*
X131608Y-79746D01*
X131612Y-79748D01*
X131622Y-79799D01*
X131687Y-79896D01*
X132077Y-80286D01*
X132049Y-80274D01*
X131937Y-80275D01*
X131875Y-80337D01*
X131875Y-80750D01*
X131882Y-80750D01*
X131882Y-80850D01*
X131875Y-80850D01*
X131875Y-81262D01*
X131937Y-81325D01*
X132049Y-81325D01*
X132141Y-81287D01*
X132200Y-81228D01*
X132258Y-81286D01*
X132275Y-81293D01*
X132275Y-81393D01*
X132297Y-81508D01*
X132362Y-81605D01*
X136962Y-86205D01*
X136962Y-86837D01*
X136945Y-86821D01*
X136949Y-86809D01*
X136950Y-86591D01*
X136866Y-86388D01*
X136711Y-86234D01*
X136509Y-86150D01*
X136291Y-86149D01*
X136088Y-86233D01*
X135934Y-86388D01*
X135850Y-86590D01*
X135849Y-86808D01*
X135933Y-87011D01*
X136088Y-87165D01*
X136169Y-87199D01*
X136088Y-87233D01*
X135934Y-87388D01*
X135850Y-87590D01*
X135849Y-87808D01*
X135933Y-88011D01*
X136088Y-88165D01*
X136163Y-88197D01*
X136112Y-88218D01*
X136084Y-88314D01*
X136400Y-88629D01*
X136405Y-88623D01*
X136476Y-88694D01*
X136470Y-88700D01*
X136476Y-88705D01*
X136405Y-88776D01*
X136400Y-88770D01*
X136329Y-88841D01*
X136329Y-88700D01*
X136014Y-88384D01*
X135918Y-88412D01*
X135845Y-88618D01*
X135856Y-88836D01*
X135918Y-88987D01*
X136014Y-89015D01*
X136329Y-88700D01*
X136329Y-88841D01*
X136084Y-89085D01*
X136103Y-89149D01*
X136050Y-89149D01*
X135958Y-89187D01*
X135888Y-89258D01*
X135850Y-89350D01*
X135850Y-89400D01*
X134125Y-89400D01*
X134125Y-88199D01*
X134125Y-88087D01*
X134062Y-88025D01*
X133650Y-88025D01*
X133650Y-88337D01*
X133712Y-88400D01*
X133825Y-88400D01*
X133924Y-88399D01*
X134016Y-88361D01*
X134087Y-88291D01*
X134125Y-88199D01*
X134125Y-89400D01*
X134027Y-89400D01*
X134027Y-89399D01*
X134092Y-89243D01*
X134092Y-89074D01*
X134028Y-88917D01*
X133908Y-88798D01*
X133752Y-88733D01*
X133583Y-88733D01*
X133550Y-88747D01*
X133550Y-88337D01*
X133550Y-88025D01*
X133137Y-88025D01*
X133075Y-88087D01*
X133074Y-88199D01*
X133112Y-88291D01*
X133183Y-88361D01*
X133275Y-88399D01*
X133374Y-88400D01*
X133487Y-88400D01*
X133550Y-88337D01*
X133550Y-88747D01*
X133427Y-88797D01*
X133366Y-88858D01*
X132574Y-88858D01*
X132574Y-88287D01*
X132536Y-88195D01*
X132466Y-88125D01*
X132374Y-88087D01*
X132274Y-88086D01*
X132102Y-88087D01*
X132040Y-88149D01*
X132040Y-88543D01*
X132512Y-88543D01*
X132574Y-88480D01*
X132574Y-88287D01*
X132574Y-88858D01*
X132574Y-88858D01*
X132574Y-88705D01*
X132512Y-88643D01*
X132040Y-88643D01*
X132040Y-88650D01*
X131940Y-88650D01*
X131940Y-88643D01*
X131932Y-88643D01*
X131932Y-88543D01*
X131940Y-88543D01*
X131940Y-88149D01*
X131877Y-88087D01*
X131705Y-88086D01*
X131605Y-88087D01*
X131513Y-88125D01*
X131443Y-88195D01*
X131405Y-88287D01*
X131405Y-88321D01*
X130922Y-87837D01*
X130824Y-87772D01*
X130710Y-87750D01*
X129515Y-87750D01*
X129515Y-87440D01*
X129477Y-87348D01*
X129406Y-87278D01*
X129314Y-87240D01*
X129215Y-87239D01*
X129102Y-87240D01*
X129040Y-87302D01*
X129040Y-87615D01*
X129452Y-87615D01*
X129515Y-87552D01*
X129515Y-87440D01*
X129515Y-87750D01*
X129487Y-87750D01*
X129452Y-87715D01*
X129040Y-87715D01*
X129040Y-87722D01*
X128940Y-87722D01*
X128940Y-87715D01*
X128940Y-87615D01*
X128940Y-87302D01*
X128877Y-87240D01*
X128764Y-87239D01*
X128665Y-87240D01*
X128573Y-87278D01*
X128502Y-87348D01*
X128464Y-87440D01*
X128465Y-87552D01*
X128527Y-87615D01*
X128940Y-87615D01*
X128940Y-87715D01*
X128527Y-87715D01*
X128508Y-87734D01*
X128332Y-87557D01*
X128234Y-87492D01*
X128120Y-87470D01*
X127790Y-87470D01*
X126814Y-87470D01*
X126814Y-86371D01*
X126803Y-86153D01*
X126741Y-86002D01*
X126645Y-85974D01*
X126330Y-86290D01*
X126645Y-86605D01*
X126741Y-86577D01*
X126814Y-86371D01*
X126814Y-87470D01*
X126780Y-87470D01*
X126809Y-87399D01*
X126810Y-87181D01*
X126726Y-86978D01*
X126571Y-86824D01*
X126496Y-86792D01*
X126547Y-86771D01*
X126575Y-86675D01*
X126260Y-86360D01*
X126254Y-86366D01*
X126183Y-86295D01*
X126189Y-86290D01*
X126183Y-86284D01*
X126254Y-86213D01*
X126260Y-86219D01*
X126575Y-85904D01*
X126556Y-85840D01*
X126609Y-85840D01*
X126701Y-85802D01*
X126771Y-85731D01*
X126809Y-85639D01*
X126809Y-85590D01*
X128067Y-85590D01*
X128045Y-85645D01*
X128044Y-85814D01*
X128109Y-85970D01*
X128228Y-86090D01*
X128248Y-86098D01*
X128257Y-86112D01*
X129687Y-87542D01*
X129687Y-87542D01*
X129785Y-87607D01*
X129900Y-87630D01*
X132289Y-87630D01*
X132388Y-87730D01*
X132545Y-87794D01*
X132714Y-87795D01*
X132870Y-87730D01*
X132990Y-87611D01*
X133054Y-87454D01*
X133055Y-87285D01*
X132990Y-87129D01*
X132871Y-87009D01*
X132714Y-86945D01*
X132545Y-86944D01*
X132389Y-87009D01*
X132369Y-87030D01*
X130024Y-87030D01*
X130006Y-87012D01*
X130017Y-87012D01*
X132261Y-87012D01*
X132353Y-86974D01*
X132423Y-86904D01*
X132461Y-86812D01*
X132462Y-86712D01*
X132462Y-86511D01*
X133074Y-87124D01*
X133074Y-87449D01*
X133112Y-87541D01*
X133171Y-87600D01*
X133112Y-87658D01*
X133074Y-87750D01*
X133075Y-87862D01*
X133137Y-87925D01*
X133550Y-87925D01*
X133550Y-87917D01*
X133650Y-87917D01*
X133650Y-87925D01*
X134062Y-87925D01*
X134125Y-87862D01*
X134125Y-87750D01*
X134087Y-87658D01*
X134028Y-87599D01*
X134086Y-87541D01*
X134124Y-87449D01*
X134125Y-87350D01*
X134125Y-87000D01*
X134087Y-86908D01*
X134016Y-86838D01*
X133924Y-86800D01*
X133825Y-86799D01*
X133710Y-86799D01*
X133674Y-86785D01*
X133584Y-86784D01*
X132462Y-85662D01*
X132462Y-84782D01*
X133019Y-85339D01*
X133019Y-85424D01*
X133083Y-85580D01*
X133203Y-85700D01*
X133359Y-85765D01*
X133528Y-85765D01*
X133684Y-85700D01*
X133762Y-85623D01*
X134579Y-86440D01*
X134579Y-87601D01*
X134519Y-87661D01*
X134454Y-87817D01*
X134454Y-87986D01*
X134519Y-88143D01*
X134638Y-88262D01*
X134795Y-88327D01*
X134964Y-88327D01*
X135120Y-88263D01*
X135240Y-88143D01*
X135304Y-87987D01*
X135304Y-87818D01*
X135240Y-87662D01*
X135179Y-87601D01*
X135179Y-86316D01*
X135157Y-86201D01*
X135092Y-86104D01*
X132930Y-83942D01*
X132930Y-82295D01*
X132849Y-82100D01*
X132700Y-81950D01*
X132505Y-81870D01*
X132295Y-81869D01*
X132100Y-81950D01*
X131950Y-82099D01*
X131870Y-82294D01*
X131869Y-82504D01*
X131950Y-82699D01*
X132099Y-82849D01*
X132294Y-82929D01*
X132504Y-82930D01*
X132699Y-82849D01*
X132849Y-82700D01*
X132929Y-82505D01*
X132930Y-82295D01*
X132930Y-83942D01*
X132087Y-83099D01*
X131990Y-83034D01*
X131875Y-83011D01*
X131775Y-83011D01*
X131775Y-81262D01*
X131775Y-80850D01*
X131775Y-80750D01*
X131775Y-80337D01*
X131712Y-80275D01*
X131600Y-80274D01*
X131508Y-80312D01*
X131438Y-80383D01*
X131400Y-80475D01*
X131399Y-80574D01*
X131400Y-80687D01*
X131462Y-80750D01*
X131775Y-80750D01*
X131775Y-80850D01*
X131462Y-80850D01*
X131400Y-80912D01*
X131399Y-81025D01*
X131400Y-81124D01*
X131438Y-81216D01*
X131508Y-81287D01*
X131600Y-81325D01*
X131712Y-81325D01*
X131775Y-81262D01*
X131775Y-83011D01*
X131300Y-83011D01*
X131300Y-79484D01*
X131300Y-78715D01*
X131300Y-73684D01*
X131300Y-72815D01*
X131262Y-72724D01*
X131191Y-72653D01*
X131099Y-72615D01*
X131000Y-72615D01*
X130700Y-72615D01*
X130608Y-72653D01*
X130538Y-72723D01*
X130500Y-72815D01*
X130499Y-72915D01*
X130499Y-73784D01*
X130537Y-73875D01*
X130608Y-73946D01*
X130700Y-73984D01*
X130799Y-73984D01*
X131099Y-73984D01*
X131191Y-73946D01*
X131261Y-73876D01*
X131299Y-73784D01*
X131300Y-73684D01*
X131300Y-78715D01*
X131299Y-78615D01*
X131261Y-78523D01*
X131191Y-78453D01*
X131099Y-78415D01*
X131012Y-78415D01*
X130950Y-78478D01*
X130950Y-79050D01*
X131237Y-79050D01*
X131300Y-78987D01*
X131300Y-78715D01*
X131300Y-79484D01*
X131300Y-79212D01*
X131237Y-79150D01*
X130950Y-79150D01*
X130950Y-79722D01*
X131012Y-79784D01*
X131099Y-79784D01*
X131191Y-79746D01*
X131261Y-79676D01*
X131299Y-79584D01*
X131300Y-79484D01*
X131300Y-83011D01*
X130505Y-83011D01*
X130529Y-82953D01*
X130529Y-82800D01*
X130649Y-82800D01*
X130741Y-82762D01*
X130811Y-82691D01*
X130849Y-82599D01*
X130850Y-82500D01*
X130850Y-81900D01*
X130850Y-81299D01*
X130850Y-80600D01*
X130850Y-80600D01*
X130850Y-79722D01*
X130850Y-79150D01*
X130850Y-79050D01*
X130850Y-78478D01*
X130787Y-78415D01*
X130700Y-78415D01*
X130608Y-78453D01*
X130538Y-78523D01*
X130500Y-78615D01*
X130499Y-78715D01*
X130500Y-78987D01*
X130562Y-79050D01*
X130850Y-79050D01*
X130850Y-79150D01*
X130562Y-79150D01*
X130500Y-79212D01*
X130499Y-79484D01*
X130500Y-79584D01*
X130538Y-79676D01*
X130608Y-79746D01*
X130700Y-79784D01*
X130787Y-79784D01*
X130850Y-79722D01*
X130850Y-80600D01*
X130812Y-80508D01*
X130741Y-80438D01*
X130649Y-80400D01*
X130550Y-80399D01*
X130312Y-80400D01*
X130300Y-80412D01*
X130300Y-79484D01*
X130300Y-78615D01*
X130300Y-73684D01*
X130300Y-72815D01*
X130262Y-72724D01*
X130191Y-72653D01*
X130099Y-72615D01*
X130000Y-72615D01*
X129700Y-72615D01*
X129608Y-72653D01*
X129538Y-72723D01*
X129500Y-72815D01*
X129499Y-72915D01*
X129499Y-73784D01*
X129537Y-73875D01*
X129608Y-73946D01*
X129700Y-73984D01*
X129799Y-73984D01*
X130099Y-73984D01*
X130191Y-73946D01*
X130261Y-73876D01*
X130299Y-73784D01*
X130300Y-73684D01*
X130300Y-78615D01*
X130262Y-78524D01*
X130191Y-78453D01*
X130099Y-78415D01*
X130000Y-78415D01*
X129700Y-78415D01*
X129608Y-78453D01*
X129538Y-78523D01*
X129500Y-78615D01*
X129499Y-78715D01*
X129499Y-79075D01*
X129228Y-79347D01*
X129212Y-79308D01*
X129200Y-79296D01*
X129200Y-77625D01*
X129200Y-77174D01*
X129200Y-76425D01*
X129200Y-76312D01*
X129137Y-76250D01*
X128825Y-76250D01*
X128825Y-76662D01*
X128887Y-76725D01*
X128999Y-76725D01*
X129091Y-76687D01*
X129161Y-76616D01*
X129199Y-76524D01*
X129200Y-76425D01*
X129200Y-77174D01*
X129199Y-77075D01*
X129161Y-76983D01*
X129091Y-76912D01*
X128999Y-76874D01*
X128887Y-76875D01*
X128825Y-76937D01*
X128825Y-77350D01*
X129137Y-77350D01*
X129200Y-77287D01*
X129200Y-77174D01*
X129200Y-77625D01*
X129200Y-77512D01*
X129137Y-77450D01*
X128825Y-77450D01*
X128825Y-77862D01*
X128887Y-77925D01*
X128999Y-77925D01*
X129091Y-77887D01*
X129161Y-77816D01*
X129199Y-77724D01*
X129200Y-77625D01*
X129200Y-79296D01*
X129141Y-79238D01*
X129049Y-79200D01*
X128950Y-79199D01*
X128474Y-79199D01*
X128325Y-79050D01*
X128325Y-77893D01*
X128341Y-77887D01*
X128400Y-77828D01*
X128458Y-77887D01*
X128550Y-77925D01*
X128662Y-77925D01*
X128725Y-77862D01*
X128725Y-77450D01*
X128717Y-77450D01*
X128717Y-77350D01*
X128725Y-77350D01*
X128725Y-76937D01*
X128662Y-76875D01*
X128550Y-76874D01*
X128458Y-76912D01*
X128399Y-76971D01*
X128341Y-76913D01*
X128325Y-76906D01*
X128325Y-76693D01*
X128341Y-76687D01*
X128400Y-76628D01*
X128458Y-76687D01*
X128550Y-76725D01*
X128662Y-76725D01*
X128725Y-76662D01*
X128725Y-76250D01*
X128717Y-76250D01*
X128717Y-76150D01*
X128725Y-76150D01*
X128725Y-75737D01*
X128662Y-75675D01*
X128550Y-75674D01*
X128458Y-75712D01*
X128399Y-75771D01*
X128341Y-75713D01*
X128249Y-75675D01*
X128150Y-75674D01*
X127800Y-75674D01*
X127708Y-75712D01*
X127638Y-75783D01*
X127600Y-75875D01*
X127599Y-75974D01*
X127599Y-76524D01*
X127637Y-76616D01*
X127708Y-76686D01*
X127725Y-76693D01*
X127725Y-76906D01*
X127708Y-76912D01*
X127638Y-76983D01*
X127600Y-77075D01*
X127599Y-77174D01*
X127599Y-77724D01*
X127637Y-77816D01*
X127708Y-77886D01*
X127725Y-77893D01*
X127725Y-79175D01*
X127747Y-79289D01*
X127812Y-79387D01*
X127949Y-79524D01*
X127949Y-80099D01*
X127987Y-80191D01*
X128058Y-80261D01*
X128150Y-80299D01*
X128249Y-80300D01*
X129049Y-80300D01*
X129141Y-80262D01*
X129211Y-80191D01*
X129249Y-80099D01*
X129249Y-80050D01*
X129250Y-80050D01*
X129250Y-80049D01*
X129364Y-80027D01*
X129364Y-80027D01*
X129462Y-79962D01*
X129657Y-79766D01*
X129700Y-79784D01*
X129799Y-79784D01*
X130099Y-79784D01*
X130191Y-79746D01*
X130261Y-79676D01*
X130299Y-79584D01*
X130300Y-79484D01*
X130300Y-80412D01*
X130250Y-80462D01*
X130250Y-80900D01*
X130787Y-80900D01*
X130850Y-80837D01*
X130850Y-80600D01*
X130850Y-81299D01*
X130850Y-81062D01*
X130787Y-81000D01*
X130250Y-81000D01*
X130250Y-81437D01*
X130312Y-81500D01*
X130550Y-81500D01*
X130649Y-81499D01*
X130741Y-81461D01*
X130812Y-81391D01*
X130850Y-81299D01*
X130850Y-81900D01*
X130812Y-81808D01*
X130741Y-81738D01*
X130649Y-81700D01*
X130550Y-81699D01*
X130150Y-81699D01*
X130150Y-81437D01*
X130150Y-81000D01*
X130150Y-80900D01*
X130150Y-80462D01*
X130087Y-80400D01*
X129849Y-80399D01*
X129750Y-80400D01*
X129658Y-80438D01*
X129587Y-80508D01*
X129549Y-80600D01*
X129550Y-80837D01*
X129612Y-80900D01*
X130150Y-80900D01*
X130150Y-81000D01*
X129612Y-81000D01*
X129550Y-81062D01*
X129549Y-81299D01*
X129587Y-81391D01*
X129658Y-81461D01*
X129750Y-81499D01*
X129849Y-81500D01*
X130087Y-81500D01*
X130150Y-81437D01*
X130150Y-81699D01*
X129750Y-81699D01*
X129696Y-81722D01*
X129250Y-81275D01*
X129250Y-80700D01*
X129212Y-80608D01*
X129141Y-80538D01*
X129049Y-80500D01*
X128950Y-80499D01*
X128150Y-80499D01*
X128058Y-80537D01*
X127988Y-80608D01*
X127950Y-80700D01*
X127949Y-80799D01*
X127949Y-81399D01*
X127987Y-81491D01*
X128058Y-81561D01*
X128150Y-81599D01*
X128249Y-81600D01*
X128725Y-81600D01*
X129549Y-82424D01*
X129549Y-82599D01*
X129580Y-82672D01*
X129466Y-82650D01*
X128730Y-82650D01*
X128754Y-82581D01*
X128743Y-82363D01*
X128681Y-82212D01*
X128585Y-82184D01*
X128515Y-82255D01*
X128515Y-82114D01*
X128487Y-82018D01*
X128281Y-81945D01*
X128063Y-81956D01*
X127912Y-82018D01*
X127884Y-82114D01*
X128200Y-82429D01*
X128515Y-82114D01*
X128515Y-82255D01*
X128270Y-82500D01*
X128276Y-82505D01*
X128205Y-82576D01*
X128200Y-82570D01*
X128194Y-82576D01*
X128123Y-82505D01*
X128129Y-82500D01*
X127814Y-82184D01*
X127718Y-82212D01*
X127699Y-82267D01*
X127666Y-82188D01*
X127511Y-82034D01*
X127309Y-81950D01*
X127091Y-81949D01*
X126888Y-82033D01*
X126734Y-82188D01*
X126700Y-82269D01*
X126666Y-82188D01*
X126624Y-82147D01*
X126624Y-80494D01*
X126613Y-80276D01*
X126551Y-80125D01*
X126455Y-80097D01*
X126140Y-80413D01*
X126455Y-80728D01*
X126551Y-80700D01*
X126624Y-80494D01*
X126624Y-82147D01*
X126511Y-82034D01*
X126385Y-81981D01*
X126385Y-80798D01*
X126070Y-80483D01*
X125754Y-80798D01*
X125782Y-80894D01*
X125988Y-80967D01*
X126206Y-80956D01*
X126357Y-80894D01*
X126385Y-80798D01*
X126385Y-81981D01*
X126309Y-81950D01*
X126091Y-81949D01*
X125888Y-82033D01*
X125734Y-82188D01*
X125650Y-82390D01*
X125649Y-82608D01*
X125733Y-82811D01*
X125872Y-82949D01*
X125850Y-82949D01*
X125758Y-82987D01*
X125688Y-83058D01*
X125650Y-83150D01*
X125649Y-83249D01*
X125649Y-83849D01*
X125687Y-83941D01*
X125745Y-83999D01*
X125600Y-84169D01*
X125600Y-80704D01*
X125684Y-80728D01*
X125999Y-80413D01*
X125684Y-80097D01*
X125600Y-80121D01*
X125600Y-79928D01*
X125603Y-79937D01*
X125758Y-80091D01*
X125863Y-80135D01*
X126070Y-80342D01*
X126276Y-80135D01*
X126381Y-80092D01*
X126535Y-79937D01*
X126619Y-79735D01*
X126620Y-79517D01*
X126536Y-79314D01*
X126453Y-79231D01*
X126535Y-79149D01*
X126619Y-78947D01*
X126620Y-78729D01*
X126536Y-78526D01*
X126454Y-78444D01*
X126535Y-78362D01*
X126619Y-78160D01*
X126620Y-77942D01*
X126536Y-77739D01*
X126453Y-77656D01*
X126535Y-77574D01*
X126619Y-77372D01*
X126620Y-77154D01*
X126536Y-76951D01*
X126454Y-76869D01*
X126535Y-76787D01*
X126619Y-76585D01*
X126620Y-76367D01*
X126536Y-76164D01*
X126454Y-76082D01*
X126535Y-76000D01*
X126619Y-75798D01*
X126620Y-75580D01*
X126536Y-75377D01*
X126453Y-75294D01*
X126535Y-75212D01*
X126619Y-75010D01*
X126620Y-74792D01*
X126536Y-74589D01*
X126454Y-74507D01*
X126535Y-74425D01*
X126540Y-74414D01*
X127839Y-74414D01*
X129075Y-75649D01*
X129074Y-75706D01*
X128999Y-75674D01*
X128887Y-75675D01*
X128825Y-75737D01*
X128825Y-76150D01*
X129137Y-76150D01*
X129200Y-76087D01*
X129200Y-76001D01*
X129258Y-76060D01*
X129415Y-76124D01*
X129584Y-76125D01*
X129740Y-76060D01*
X129860Y-75941D01*
X129924Y-75784D01*
X129925Y-75615D01*
X129860Y-75459D01*
X129741Y-75339D01*
X129584Y-75275D01*
X129549Y-75275D01*
X128176Y-73901D01*
X128078Y-73836D01*
X127964Y-73814D01*
X126541Y-73814D01*
X126536Y-73802D01*
X126453Y-73719D01*
X126535Y-73637D01*
X126619Y-73435D01*
X126620Y-73217D01*
X126536Y-73014D01*
X126381Y-72860D01*
X126179Y-72776D01*
X125961Y-72775D01*
X125758Y-72859D01*
X125604Y-73014D01*
X125520Y-73216D01*
X125519Y-73434D01*
X125603Y-73637D01*
X125686Y-73720D01*
X125604Y-73802D01*
X125520Y-74004D01*
X125519Y-74222D01*
X125603Y-74425D01*
X125685Y-74507D01*
X125604Y-74589D01*
X125520Y-74791D01*
X125519Y-74955D01*
X125269Y-75206D01*
X125269Y-70419D01*
X125733Y-70419D01*
X125488Y-70664D01*
X125328Y-71050D01*
X125327Y-71467D01*
X125487Y-71853D01*
X125782Y-72149D01*
X126168Y-72309D01*
X126585Y-72310D01*
X126971Y-72150D01*
X127267Y-71855D01*
X127427Y-71469D01*
X127428Y-71051D01*
X127268Y-70665D01*
X127022Y-70419D01*
X135182Y-70419D01*
X134937Y-70664D01*
X134776Y-71050D01*
X134776Y-71467D01*
X134936Y-71853D01*
X135231Y-72149D01*
X135616Y-72309D01*
X136034Y-72310D01*
X136420Y-72150D01*
X136716Y-71855D01*
X136876Y-71469D01*
X136876Y-71051D01*
X136717Y-70665D01*
X136471Y-70419D01*
X137130Y-70419D01*
X137130Y-85524D01*
X137130Y-85524D01*
G37*
G54D23*
X137130Y-85524D02*
X135280Y-83674D01*
X135280Y-80304D01*
X135196Y-80101D01*
X135114Y-80019D01*
X135195Y-79937D01*
X135279Y-79735D01*
X135280Y-79517D01*
X135196Y-79314D01*
X135113Y-79231D01*
X135195Y-79149D01*
X135279Y-78947D01*
X135280Y-78729D01*
X135196Y-78526D01*
X135114Y-78444D01*
X135195Y-78362D01*
X135279Y-78160D01*
X135280Y-77942D01*
X135196Y-77739D01*
X135113Y-77656D01*
X135195Y-77574D01*
X135279Y-77372D01*
X135280Y-77154D01*
X135196Y-76951D01*
X135114Y-76869D01*
X135195Y-76787D01*
X135279Y-76585D01*
X135280Y-76367D01*
X135196Y-76164D01*
X135114Y-76082D01*
X135195Y-76000D01*
X135279Y-75798D01*
X135280Y-75580D01*
X135196Y-75377D01*
X135113Y-75294D01*
X135195Y-75212D01*
X135279Y-75010D01*
X135280Y-74792D01*
X135196Y-74589D01*
X135114Y-74507D01*
X135195Y-74425D01*
X135279Y-74223D01*
X135280Y-74005D01*
X135196Y-73802D01*
X135113Y-73719D01*
X135195Y-73637D01*
X135279Y-73435D01*
X135280Y-73217D01*
X135196Y-73014D01*
X135041Y-72860D01*
X134839Y-72776D01*
X134621Y-72775D01*
X134418Y-72859D01*
X134264Y-73014D01*
X134180Y-73216D01*
X134179Y-73434D01*
X134263Y-73637D01*
X134346Y-73720D01*
X134264Y-73802D01*
X134180Y-74004D01*
X134179Y-74222D01*
X134263Y-74425D01*
X134345Y-74507D01*
X134264Y-74589D01*
X134180Y-74791D01*
X134179Y-75009D01*
X134263Y-75212D01*
X134346Y-75295D01*
X134264Y-75377D01*
X134180Y-75579D01*
X134179Y-75797D01*
X134263Y-76000D01*
X134345Y-76082D01*
X134264Y-76164D01*
X134180Y-76366D01*
X134179Y-76584D01*
X134263Y-76787D01*
X134345Y-76869D01*
X134264Y-76951D01*
X134180Y-77153D01*
X134179Y-77371D01*
X134263Y-77574D01*
X134346Y-77657D01*
X134264Y-77739D01*
X134180Y-77941D01*
X134179Y-78159D01*
X134263Y-78362D01*
X134345Y-78444D01*
X134264Y-78526D01*
X134180Y-78728D01*
X134179Y-78946D01*
X134263Y-79149D01*
X134346Y-79232D01*
X134264Y-79314D01*
X134180Y-79516D01*
X134179Y-79734D01*
X134263Y-79937D01*
X134345Y-80019D01*
X134264Y-80101D01*
X134180Y-80303D01*
X134179Y-80521D01*
X134263Y-80724D01*
X134418Y-80878D01*
X134620Y-80962D01*
X134838Y-80963D01*
X135041Y-80879D01*
X135195Y-80724D01*
X135279Y-80522D01*
X135280Y-80304D01*
X135280Y-83674D01*
X134526Y-82921D01*
X134699Y-82849D01*
X134849Y-82700D01*
X134929Y-82505D01*
X134930Y-82295D01*
X134849Y-82100D01*
X134700Y-81950D01*
X134505Y-81870D01*
X134295Y-81869D01*
X134100Y-81950D01*
X133950Y-82099D01*
X133878Y-82273D01*
X133300Y-81694D01*
X133300Y-79484D01*
X133300Y-78615D01*
X133300Y-73684D01*
X133300Y-72815D01*
X133262Y-72724D01*
X133191Y-72653D01*
X133099Y-72615D01*
X133000Y-72615D01*
X132700Y-72615D01*
X132608Y-72653D01*
X132538Y-72723D01*
X132500Y-72815D01*
X132499Y-72915D01*
X132499Y-73784D01*
X132537Y-73875D01*
X132608Y-73946D01*
X132700Y-73984D01*
X132799Y-73984D01*
X133099Y-73984D01*
X133191Y-73946D01*
X133261Y-73876D01*
X133299Y-73784D01*
X133300Y-73684D01*
X133300Y-78615D01*
X133262Y-78524D01*
X133191Y-78453D01*
X133099Y-78415D01*
X133000Y-78415D01*
X132700Y-78415D01*
X132608Y-78453D01*
X132538Y-78523D01*
X132500Y-78615D01*
X132499Y-78715D01*
X132499Y-79584D01*
X132537Y-79675D01*
X132608Y-79746D01*
X132700Y-79784D01*
X132799Y-79784D01*
X133099Y-79784D01*
X133191Y-79746D01*
X133261Y-79676D01*
X133299Y-79584D01*
X133300Y-79484D01*
X133300Y-81694D01*
X132891Y-81286D01*
X132961Y-81216D01*
X132999Y-81124D01*
X133000Y-81025D01*
X133000Y-80475D01*
X132962Y-80383D01*
X132891Y-80313D01*
X132863Y-80301D01*
X132852Y-80244D01*
X132787Y-80147D01*
X132277Y-79638D01*
X132299Y-79584D01*
X132300Y-79484D01*
X132300Y-78615D01*
X132300Y-73684D01*
X132300Y-72815D01*
X132262Y-72724D01*
X132191Y-72653D01*
X132099Y-72615D01*
X132000Y-72615D01*
X131700Y-72615D01*
X131608Y-72653D01*
X131538Y-72723D01*
X131500Y-72815D01*
X131499Y-72915D01*
X131499Y-73784D01*
X131537Y-73875D01*
X131608Y-73946D01*
X131700Y-73984D01*
X131799Y-73984D01*
X132099Y-73984D01*
X132191Y-73946D01*
X132261Y-73876D01*
X132299Y-73784D01*
X132300Y-73684D01*
X132300Y-78615D01*
X132262Y-78524D01*
X132191Y-78453D01*
X132099Y-78415D01*
X132000Y-78415D01*
X131700Y-78415D01*
X131608Y-78453D01*
X131538Y-78523D01*
X131500Y-78615D01*
X131499Y-78715D01*
X131499Y-79584D01*
X131537Y-79675D01*
X131608Y-79746D01*
X131612Y-79748D01*
X131622Y-79799D01*
X131687Y-79896D01*
X132077Y-80286D01*
X132049Y-80274D01*
X131937Y-80275D01*
X131875Y-80337D01*
X131875Y-80750D01*
X131882Y-80750D01*
X131882Y-80850D01*
X131875Y-80850D01*
X131875Y-81262D01*
X131937Y-81325D01*
X132049Y-81325D01*
X132141Y-81287D01*
X132200Y-81228D01*
X132258Y-81286D01*
X132275Y-81293D01*
X132275Y-81393D01*
X132297Y-81508D01*
X132362Y-81605D01*
X136962Y-86205D01*
X136962Y-86837D01*
X136945Y-86821D01*
X136949Y-86809D01*
X136950Y-86591D01*
X136866Y-86388D01*
X136711Y-86234D01*
X136509Y-86150D01*
X136291Y-86149D01*
X136088Y-86233D01*
X135934Y-86388D01*
X135850Y-86590D01*
X135849Y-86808D01*
X135933Y-87011D01*
X136088Y-87165D01*
X136169Y-87199D01*
X136088Y-87233D01*
X135934Y-87388D01*
X135850Y-87590D01*
X135849Y-87808D01*
X135933Y-88011D01*
X136088Y-88165D01*
X136163Y-88197D01*
X136112Y-88218D01*
X136084Y-88314D01*
X136400Y-88629D01*
X136405Y-88623D01*
X136476Y-88694D01*
X136470Y-88700D01*
X136476Y-88705D01*
X136405Y-88776D01*
X136400Y-88770D01*
X136329Y-88841D01*
X136329Y-88700D01*
X136014Y-88384D01*
X135918Y-88412D01*
X135845Y-88618D01*
X135856Y-88836D01*
X135918Y-88987D01*
X136014Y-89015D01*
X136329Y-88700D01*
X136329Y-88841D01*
X136084Y-89085D01*
X136103Y-89149D01*
X136050Y-89149D01*
X135958Y-89187D01*
X135888Y-89258D01*
X135850Y-89350D01*
X135850Y-89400D01*
X134125Y-89400D01*
X134125Y-88199D01*
X134125Y-88087D01*
X134062Y-88025D01*
X133650Y-88025D01*
X133650Y-88337D01*
X133712Y-88400D01*
X133825Y-88400D01*
X133924Y-88399D01*
X134016Y-88361D01*
X134087Y-88291D01*
X134125Y-88199D01*
X134125Y-89400D01*
X134027Y-89400D01*
X134027Y-89399D01*
X134092Y-89243D01*
X134092Y-89074D01*
X134028Y-88917D01*
X133908Y-88798D01*
X133752Y-88733D01*
X133583Y-88733D01*
X133550Y-88747D01*
X133550Y-88337D01*
X133550Y-88025D01*
X133137Y-88025D01*
X133075Y-88087D01*
X133074Y-88199D01*
X133112Y-88291D01*
X133183Y-88361D01*
X133275Y-88399D01*
X133374Y-88400D01*
X133487Y-88400D01*
X133550Y-88337D01*
X133550Y-88747D01*
X133427Y-88797D01*
X133366Y-88858D01*
X132574Y-88858D01*
X132574Y-88287D01*
X132536Y-88195D01*
X132466Y-88125D01*
X132374Y-88087D01*
X132274Y-88086D01*
X132102Y-88087D01*
X132040Y-88149D01*
X132040Y-88543D01*
X132512Y-88543D01*
X132574Y-88480D01*
X132574Y-88287D01*
X132574Y-88858D01*
X132574Y-88858D01*
X132574Y-88705D01*
X132512Y-88643D01*
X132040Y-88643D01*
X132040Y-88650D01*
X131940Y-88650D01*
X131940Y-88643D01*
X131932Y-88643D01*
X131932Y-88543D01*
X131940Y-88543D01*
X131940Y-88149D01*
X131877Y-88087D01*
X131705Y-88086D01*
X131605Y-88087D01*
X131513Y-88125D01*
X131443Y-88195D01*
X131405Y-88287D01*
X131405Y-88321D01*
X130922Y-87837D01*
X130824Y-87772D01*
X130710Y-87750D01*
X129515Y-87750D01*
X129515Y-87440D01*
X129477Y-87348D01*
X129406Y-87278D01*
X129314Y-87240D01*
X129215Y-87239D01*
X129102Y-87240D01*
X129040Y-87302D01*
X129040Y-87615D01*
X129452Y-87615D01*
X129515Y-87552D01*
X129515Y-87440D01*
X129515Y-87750D01*
X129487Y-87750D01*
X129452Y-87715D01*
X129040Y-87715D01*
X129040Y-87722D01*
X128940Y-87722D01*
X128940Y-87715D01*
X128940Y-87615D01*
X128940Y-87302D01*
X128877Y-87240D01*
X128764Y-87239D01*
X128665Y-87240D01*
X128573Y-87278D01*
X128502Y-87348D01*
X128464Y-87440D01*
X128465Y-87552D01*
X128527Y-87615D01*
X128940Y-87615D01*
X128940Y-87715D01*
X128527Y-87715D01*
X128508Y-87734D01*
X128332Y-87557D01*
X128234Y-87492D01*
X128120Y-87470D01*
X127790Y-87470D01*
X126814Y-87470D01*
X126814Y-86371D01*
X126803Y-86153D01*
X126741Y-86002D01*
X126645Y-85974D01*
X126330Y-86290D01*
X126645Y-86605D01*
X126741Y-86577D01*
X126814Y-86371D01*
X126814Y-87470D01*
X126780Y-87470D01*
X126809Y-87399D01*
X126810Y-87181D01*
X126726Y-86978D01*
X126571Y-86824D01*
X126496Y-86792D01*
X126547Y-86771D01*
X126575Y-86675D01*
X126260Y-86360D01*
X126254Y-86366D01*
X126183Y-86295D01*
X126189Y-86290D01*
X126183Y-86284D01*
X126254Y-86213D01*
X126260Y-86219D01*
X126575Y-85904D01*
X126556Y-85840D01*
X126609Y-85840D01*
X126701Y-85802D01*
X126771Y-85731D01*
X126809Y-85639D01*
X126809Y-85590D01*
X128067Y-85590D01*
X128045Y-85645D01*
X128044Y-85814D01*
X128109Y-85970D01*
X128228Y-86090D01*
X128248Y-86098D01*
X128257Y-86112D01*
X129687Y-87542D01*
X129687Y-87542D01*
X129785Y-87607D01*
X129900Y-87630D01*
X132289Y-87630D01*
X132388Y-87730D01*
X132545Y-87794D01*
X132714Y-87795D01*
X132870Y-87730D01*
X132990Y-87611D01*
X133054Y-87454D01*
X133055Y-87285D01*
X132990Y-87129D01*
X132871Y-87009D01*
X132714Y-86945D01*
X132545Y-86944D01*
X132389Y-87009D01*
X132369Y-87030D01*
X130024Y-87030D01*
X130006Y-87012D01*
X130017Y-87012D01*
X132261Y-87012D01*
X132353Y-86974D01*
X132423Y-86904D01*
X132461Y-86812D01*
X132462Y-86712D01*
X132462Y-86511D01*
X133074Y-87124D01*
X133074Y-87449D01*
X133112Y-87541D01*
X133171Y-87600D01*
X133112Y-87658D01*
X133074Y-87750D01*
X133075Y-87862D01*
X133137Y-87925D01*
X133550Y-87925D01*
X133550Y-87917D01*
X133650Y-87917D01*
X133650Y-87925D01*
X134062Y-87925D01*
X134125Y-87862D01*
X134125Y-87750D01*
X134087Y-87658D01*
X134028Y-87599D01*
X134086Y-87541D01*
X134124Y-87449D01*
X134125Y-87350D01*
X134125Y-87000D01*
X134087Y-86908D01*
X134016Y-86838D01*
X133924Y-86800D01*
X133825Y-86799D01*
X133710Y-86799D01*
X133674Y-86785D01*
X133584Y-86784D01*
X132462Y-85662D01*
X132462Y-84782D01*
X133019Y-85339D01*
X133019Y-85424D01*
X133083Y-85580D01*
X133203Y-85700D01*
X133359Y-85765D01*
X133528Y-85765D01*
X133684Y-85700D01*
X133762Y-85623D01*
X134579Y-86440D01*
X134579Y-87601D01*
X134519Y-87661D01*
X134454Y-87817D01*
X134454Y-87986D01*
X134519Y-88143D01*
X134638Y-88262D01*
X134795Y-88327D01*
X134964Y-88327D01*
X135120Y-88263D01*
X135240Y-88143D01*
X135304Y-87987D01*
X135304Y-87818D01*
X135240Y-87662D01*
X135179Y-87601D01*
X135179Y-86316D01*
X135157Y-86201D01*
X135092Y-86104D01*
X132930Y-83942D01*
X132930Y-82295D01*
X132849Y-82100D01*
X132700Y-81950D01*
X132505Y-81870D01*
X132295Y-81869D01*
X132100Y-81950D01*
X131950Y-82099D01*
X131870Y-82294D01*
X131869Y-82504D01*
X131950Y-82699D01*
X132099Y-82849D01*
X132294Y-82929D01*
X132504Y-82930D01*
X132699Y-82849D01*
X132849Y-82700D01*
X132929Y-82505D01*
X132930Y-82295D01*
X132930Y-83942D01*
X132087Y-83099D01*
X131990Y-83034D01*
X131875Y-83011D01*
X131775Y-83011D01*
X131775Y-81262D01*
X131775Y-80850D01*
X131775Y-80750D01*
X131775Y-80337D01*
X131712Y-80275D01*
X131600Y-80274D01*
X131508Y-80312D01*
X131438Y-80383D01*
X131400Y-80475D01*
X131399Y-80574D01*
X131400Y-80687D01*
X131462Y-80750D01*
X131775Y-80750D01*
X131775Y-80850D01*
X131462Y-80850D01*
X131400Y-80912D01*
X131399Y-81025D01*
X131400Y-81124D01*
X131438Y-81216D01*
X131508Y-81287D01*
X131600Y-81325D01*
X131712Y-81325D01*
X131775Y-81262D01*
X131775Y-83011D01*
X131300Y-83011D01*
X131300Y-79484D01*
X131300Y-78715D01*
X131300Y-73684D01*
X131300Y-72815D01*
X131262Y-72724D01*
X131191Y-72653D01*
X131099Y-72615D01*
X131000Y-72615D01*
X130700Y-72615D01*
X130608Y-72653D01*
X130538Y-72723D01*
X130500Y-72815D01*
X130499Y-72915D01*
X130499Y-73784D01*
X130537Y-73875D01*
X130608Y-73946D01*
X130700Y-73984D01*
X130799Y-73984D01*
X131099Y-73984D01*
X131191Y-73946D01*
X131261Y-73876D01*
X131299Y-73784D01*
X131300Y-73684D01*
X131300Y-78715D01*
X131299Y-78615D01*
X131261Y-78523D01*
X131191Y-78453D01*
X131099Y-78415D01*
X131012Y-78415D01*
X130950Y-78478D01*
X130950Y-79050D01*
X131237Y-79050D01*
X131300Y-78987D01*
X131300Y-78715D01*
X131300Y-79484D01*
X131300Y-79212D01*
X131237Y-79150D01*
X130950Y-79150D01*
X130950Y-79722D01*
X131012Y-79784D01*
X131099Y-79784D01*
X131191Y-79746D01*
X131261Y-79676D01*
X131299Y-79584D01*
X131300Y-79484D01*
X131300Y-83011D01*
X130505Y-83011D01*
X130529Y-82953D01*
X130529Y-82800D01*
X130649Y-82800D01*
X130741Y-82762D01*
X130811Y-82691D01*
X130849Y-82599D01*
X130850Y-82500D01*
X130850Y-81900D01*
X130850Y-81299D01*
X130850Y-80600D01*
X130850Y-80600D01*
X130850Y-79722D01*
X130850Y-79150D01*
X130850Y-79050D01*
X130850Y-78478D01*
X130787Y-78415D01*
X130700Y-78415D01*
X130608Y-78453D01*
X130538Y-78523D01*
X130500Y-78615D01*
X130499Y-78715D01*
X130500Y-78987D01*
X130562Y-79050D01*
X130850Y-79050D01*
X130850Y-79150D01*
X130562Y-79150D01*
X130500Y-79212D01*
X130499Y-79484D01*
X130500Y-79584D01*
X130538Y-79676D01*
X130608Y-79746D01*
X130700Y-79784D01*
X130787Y-79784D01*
X130850Y-79722D01*
X130850Y-80600D01*
X130812Y-80508D01*
X130741Y-80438D01*
X130649Y-80400D01*
X130550Y-80399D01*
X130312Y-80400D01*
X130300Y-80412D01*
X130300Y-79484D01*
X130300Y-78615D01*
X130300Y-73684D01*
X130300Y-72815D01*
X130262Y-72724D01*
X130191Y-72653D01*
X130099Y-72615D01*
X130000Y-72615D01*
X129700Y-72615D01*
X129608Y-72653D01*
X129538Y-72723D01*
X129500Y-72815D01*
X129499Y-72915D01*
X129499Y-73784D01*
X129537Y-73875D01*
X129608Y-73946D01*
X129700Y-73984D01*
X129799Y-73984D01*
X130099Y-73984D01*
X130191Y-73946D01*
X130261Y-73876D01*
X130299Y-73784D01*
X130300Y-73684D01*
X130300Y-78615D01*
X130262Y-78524D01*
X130191Y-78453D01*
X130099Y-78415D01*
X130000Y-78415D01*
X129700Y-78415D01*
X129608Y-78453D01*
X129538Y-78523D01*
X129500Y-78615D01*
X129499Y-78715D01*
X129499Y-79075D01*
X129228Y-79347D01*
X129212Y-79308D01*
X129200Y-79296D01*
X129200Y-77625D01*
X129200Y-77174D01*
X129200Y-76425D01*
X129200Y-76312D01*
X129137Y-76250D01*
X128825Y-76250D01*
X128825Y-76662D01*
X128887Y-76725D01*
X128999Y-76725D01*
X129091Y-76687D01*
X129161Y-76616D01*
X129199Y-76524D01*
X129200Y-76425D01*
X129200Y-77174D01*
X129199Y-77075D01*
X129161Y-76983D01*
X129091Y-76912D01*
X128999Y-76874D01*
X128887Y-76875D01*
X128825Y-76937D01*
X128825Y-77350D01*
X129137Y-77350D01*
X129200Y-77287D01*
X129200Y-77174D01*
X129200Y-77625D01*
X129200Y-77512D01*
X129137Y-77450D01*
X128825Y-77450D01*
X128825Y-77862D01*
X128887Y-77925D01*
X128999Y-77925D01*
X129091Y-77887D01*
X129161Y-77816D01*
X129199Y-77724D01*
X129200Y-77625D01*
X129200Y-79296D01*
X129141Y-79238D01*
X129049Y-79200D01*
X128950Y-79199D01*
X128474Y-79199D01*
X128325Y-79050D01*
X128325Y-77893D01*
X128341Y-77887D01*
X128400Y-77828D01*
X128458Y-77887D01*
X128550Y-77925D01*
X128662Y-77925D01*
X128725Y-77862D01*
X128725Y-77450D01*
X128717Y-77450D01*
X128717Y-77350D01*
X128725Y-77350D01*
X128725Y-76937D01*
X128662Y-76875D01*
X128550Y-76874D01*
X128458Y-76912D01*
X128399Y-76971D01*
X128341Y-76913D01*
X128325Y-76906D01*
X128325Y-76693D01*
X128341Y-76687D01*
X128400Y-76628D01*
X128458Y-76687D01*
X128550Y-76725D01*
X128662Y-76725D01*
X128725Y-76662D01*
X128725Y-76250D01*
X128717Y-76250D01*
X128717Y-76150D01*
X128725Y-76150D01*
X128725Y-75737D01*
X128662Y-75675D01*
X128550Y-75674D01*
X128458Y-75712D01*
X128399Y-75771D01*
X128341Y-75713D01*
X128249Y-75675D01*
X128150Y-75674D01*
X127800Y-75674D01*
X127708Y-75712D01*
X127638Y-75783D01*
X127600Y-75875D01*
X127599Y-75974D01*
X127599Y-76524D01*
X127637Y-76616D01*
X127708Y-76686D01*
X127725Y-76693D01*
X127725Y-76906D01*
X127708Y-76912D01*
X127638Y-76983D01*
X127600Y-77075D01*
X127599Y-77174D01*
X127599Y-77724D01*
X127637Y-77816D01*
X127708Y-77886D01*
X127725Y-77893D01*
X127725Y-79175D01*
X127747Y-79289D01*
X127812Y-79387D01*
X127949Y-79524D01*
X127949Y-80099D01*
X127987Y-80191D01*
X128058Y-80261D01*
X128150Y-80299D01*
X128249Y-80300D01*
X129049Y-80300D01*
X129141Y-80262D01*
X129211Y-80191D01*
X129249Y-80099D01*
X129249Y-80050D01*
X129250Y-80050D01*
X129250Y-80049D01*
X129364Y-80027D01*
X129364Y-80027D01*
X129462Y-79962D01*
X129657Y-79766D01*
X129700Y-79784D01*
X129799Y-79784D01*
X130099Y-79784D01*
X130191Y-79746D01*
X130261Y-79676D01*
X130299Y-79584D01*
X130300Y-79484D01*
X130300Y-80412D01*
X130250Y-80462D01*
X130250Y-80900D01*
X130787Y-80900D01*
X130850Y-80837D01*
X130850Y-80600D01*
X130850Y-81299D01*
X130850Y-81062D01*
X130787Y-81000D01*
X130250Y-81000D01*
X130250Y-81437D01*
X130312Y-81500D01*
X130550Y-81500D01*
X130649Y-81499D01*
X130741Y-81461D01*
X130812Y-81391D01*
X130850Y-81299D01*
X130850Y-81900D01*
X130812Y-81808D01*
X130741Y-81738D01*
X130649Y-81700D01*
X130550Y-81699D01*
X130150Y-81699D01*
X130150Y-81437D01*
X130150Y-81000D01*
X130150Y-80900D01*
X130150Y-80462D01*
X130087Y-80400D01*
X129849Y-80399D01*
X129750Y-80400D01*
X129658Y-80438D01*
X129587Y-80508D01*
X129549Y-80600D01*
X129550Y-80837D01*
X129612Y-80900D01*
X130150Y-80900D01*
X130150Y-81000D01*
X129612Y-81000D01*
X129550Y-81062D01*
X129549Y-81299D01*
X129587Y-81391D01*
X129658Y-81461D01*
X129750Y-81499D01*
X129849Y-81500D01*
X130087Y-81500D01*
X130150Y-81437D01*
X130150Y-81699D01*
X129750Y-81699D01*
X129696Y-81722D01*
X129250Y-81275D01*
X129250Y-80700D01*
X129212Y-80608D01*
X129141Y-80538D01*
X129049Y-80500D01*
X128950Y-80499D01*
X128150Y-80499D01*
X128058Y-80537D01*
X127988Y-80608D01*
X127950Y-80700D01*
X127949Y-80799D01*
X127949Y-81399D01*
X127987Y-81491D01*
X128058Y-81561D01*
X128150Y-81599D01*
X128249Y-81600D01*
X128725Y-81600D01*
X129549Y-82424D01*
X129549Y-82599D01*
X129580Y-82672D01*
X129466Y-82650D01*
X128730Y-82650D01*
X128754Y-82581D01*
X128743Y-82363D01*
X128681Y-82212D01*
X128585Y-82184D01*
X128515Y-82255D01*
X128515Y-82114D01*
X128487Y-82018D01*
X128281Y-81945D01*
X128063Y-81956D01*
X127912Y-82018D01*
X127884Y-82114D01*
X128200Y-82429D01*
X128515Y-82114D01*
X128515Y-82255D01*
X128270Y-82500D01*
X128276Y-82505D01*
X128205Y-82576D01*
X128200Y-82570D01*
X128194Y-82576D01*
X128123Y-82505D01*
X128129Y-82500D01*
X127814Y-82184D01*
X127718Y-82212D01*
X127699Y-82267D01*
X127666Y-82188D01*
X127511Y-82034D01*
X127309Y-81950D01*
X127091Y-81949D01*
X126888Y-82033D01*
X126734Y-82188D01*
X126700Y-82269D01*
X126666Y-82188D01*
X126624Y-82147D01*
X126624Y-80494D01*
X126613Y-80276D01*
X126551Y-80125D01*
X126455Y-80097D01*
X126140Y-80413D01*
X126455Y-80728D01*
X126551Y-80700D01*
X126624Y-80494D01*
X126624Y-82147D01*
X126511Y-82034D01*
X126385Y-81981D01*
X126385Y-80798D01*
X126070Y-80483D01*
X125754Y-80798D01*
X125782Y-80894D01*
X125988Y-80967D01*
X126206Y-80956D01*
X126357Y-80894D01*
X126385Y-80798D01*
X126385Y-81981D01*
X126309Y-81950D01*
X126091Y-81949D01*
X125888Y-82033D01*
X125734Y-82188D01*
X125650Y-82390D01*
X125649Y-82608D01*
X125733Y-82811D01*
X125872Y-82949D01*
X125850Y-82949D01*
X125758Y-82987D01*
X125688Y-83058D01*
X125650Y-83150D01*
X125649Y-83249D01*
X125649Y-83849D01*
X125687Y-83941D01*
X125745Y-83999D01*
X125600Y-84169D01*
X125600Y-80704D01*
X125684Y-80728D01*
X125999Y-80413D01*
X125684Y-80097D01*
X125600Y-80121D01*
X125600Y-79928D01*
X125603Y-79937D01*
X125758Y-80091D01*
X125863Y-80135D01*
X126070Y-80342D01*
X126276Y-80135D01*
X126381Y-80092D01*
X126535Y-79937D01*
X126619Y-79735D01*
X126620Y-79517D01*
X126536Y-79314D01*
X126453Y-79231D01*
X126535Y-79149D01*
X126619Y-78947D01*
X126620Y-78729D01*
X126536Y-78526D01*
X126454Y-78444D01*
X126535Y-78362D01*
X126619Y-78160D01*
X126620Y-77942D01*
X126536Y-77739D01*
X126453Y-77656D01*
X126535Y-77574D01*
X126619Y-77372D01*
X126620Y-77154D01*
X126536Y-76951D01*
X126454Y-76869D01*
X126535Y-76787D01*
X126619Y-76585D01*
X126620Y-76367D01*
X126536Y-76164D01*
X126454Y-76082D01*
X126535Y-76000D01*
X126619Y-75798D01*
X126620Y-75580D01*
X126536Y-75377D01*
X126453Y-75294D01*
X126535Y-75212D01*
X126619Y-75010D01*
X126620Y-74792D01*
X126536Y-74589D01*
X126454Y-74507D01*
X126535Y-74425D01*
X126540Y-74414D01*
X127839Y-74414D01*
X129075Y-75649D01*
X129074Y-75706D01*
X128999Y-75674D01*
X128887Y-75675D01*
X128825Y-75737D01*
X128825Y-76150D01*
X129137Y-76150D01*
X129200Y-76087D01*
X129200Y-76001D01*
X129258Y-76060D01*
X129415Y-76124D01*
X129584Y-76125D01*
X129740Y-76060D01*
X129860Y-75941D01*
X129924Y-75784D01*
X129925Y-75615D01*
X129860Y-75459D01*
X129741Y-75339D01*
X129584Y-75275D01*
X129549Y-75275D01*
X128176Y-73901D01*
X128078Y-73836D01*
X127964Y-73814D01*
X126541Y-73814D01*
X126536Y-73802D01*
X126453Y-73719D01*
X126535Y-73637D01*
X126619Y-73435D01*
X126620Y-73217D01*
X126536Y-73014D01*
X126381Y-72860D01*
X126179Y-72776D01*
X125961Y-72775D01*
X125758Y-72859D01*
X125604Y-73014D01*
X125520Y-73216D01*
X125519Y-73434D01*
X125603Y-73637D01*
X125686Y-73720D01*
X125604Y-73802D01*
X125520Y-74004D01*
X125519Y-74222D01*
X125603Y-74425D01*
X125685Y-74507D01*
X125604Y-74589D01*
X125520Y-74791D01*
X125519Y-74955D01*
X125269Y-75206D01*
X125269Y-70419D01*
X125733Y-70419D01*
X125488Y-70664D01*
X125328Y-71050D01*
X125327Y-71467D01*
X125487Y-71853D01*
X125782Y-72149D01*
X126168Y-72309D01*
X126585Y-72310D01*
X126971Y-72150D01*
X127267Y-71855D01*
X127427Y-71469D01*
X127428Y-71051D01*
X127268Y-70665D01*
X127022Y-70419D01*
X135182Y-70419D01*
X134937Y-70664D01*
X134776Y-71050D01*
X134776Y-71467D01*
X134936Y-71853D01*
X135231Y-72149D01*
X135616Y-72309D01*
X136034Y-72310D01*
X136420Y-72150D01*
X136716Y-71855D01*
X136876Y-71469D01*
X136876Y-71051D01*
X136717Y-70665D01*
X136471Y-70419D01*
X137130Y-70419D01*
X137130Y-85524D01*
G54D10*
G36*
X137130Y-96430D02*
X136258Y-96430D01*
X136420Y-96363D01*
X136716Y-96067D01*
X136876Y-95682D01*
X136876Y-95264D01*
X136717Y-94878D01*
X136422Y-94582D01*
X136036Y-94422D01*
X135618Y-94422D01*
X135232Y-94581D01*
X134937Y-94876D01*
X134776Y-95262D01*
X134776Y-95680D01*
X134936Y-96066D01*
X135231Y-96362D01*
X135395Y-96430D01*
X131400Y-96430D01*
X131400Y-92137D01*
X131400Y-91700D01*
X130962Y-91700D01*
X130900Y-91762D01*
X130899Y-91900D01*
X130900Y-91999D01*
X130938Y-92091D01*
X131008Y-92162D01*
X131100Y-92200D01*
X131337Y-92200D01*
X131400Y-92137D01*
X131400Y-96430D01*
X130746Y-96430D01*
X130746Y-93097D01*
X130746Y-92800D01*
X130746Y-92700D01*
X130746Y-92403D01*
X130685Y-92197D01*
X130551Y-92031D01*
X130362Y-91928D01*
X130334Y-91923D01*
X130250Y-91971D01*
X130250Y-92700D01*
X130746Y-92700D01*
X130746Y-92800D01*
X130250Y-92800D01*
X130250Y-93528D01*
X130334Y-93576D01*
X130362Y-93571D01*
X130551Y-93468D01*
X130685Y-93302D01*
X130746Y-93097D01*
X130746Y-96430D01*
X126809Y-96430D01*
X126971Y-96363D01*
X127267Y-96067D01*
X127427Y-95682D01*
X127428Y-95264D01*
X127268Y-94878D01*
X126973Y-94582D01*
X126587Y-94422D01*
X126170Y-94422D01*
X125783Y-94581D01*
X125488Y-94876D01*
X125328Y-95262D01*
X125327Y-95680D01*
X125487Y-96066D01*
X125782Y-96362D01*
X125946Y-96430D01*
X125269Y-96430D01*
X125269Y-94270D01*
X125308Y-94310D01*
X125465Y-94374D01*
X125634Y-94375D01*
X125790Y-94310D01*
X125910Y-94191D01*
X125974Y-94034D01*
X125975Y-93865D01*
X125963Y-93837D01*
X126287Y-94162D01*
X126287Y-94162D01*
X126385Y-94227D01*
X126500Y-94250D01*
X127850Y-94250D01*
X128400Y-94250D01*
X128400Y-94249D01*
X128514Y-94227D01*
X128514Y-94227D01*
X128612Y-94162D01*
X129170Y-93604D01*
X129200Y-93610D01*
X129409Y-93568D01*
X129586Y-93449D01*
X129704Y-93272D01*
X129705Y-93271D01*
X129714Y-93302D01*
X129848Y-93468D01*
X130037Y-93571D01*
X130065Y-93576D01*
X130150Y-93528D01*
X130150Y-92800D01*
X130142Y-92800D01*
X130142Y-92700D01*
X130150Y-92700D01*
X130150Y-91971D01*
X130065Y-91923D01*
X130037Y-91928D01*
X129848Y-92031D01*
X129714Y-92197D01*
X129705Y-92228D01*
X129704Y-92227D01*
X129586Y-92050D01*
X129409Y-91931D01*
X129200Y-91889D01*
X129117Y-91906D01*
X129587Y-91437D01*
X129587Y-91437D01*
X129652Y-91339D01*
X129660Y-91300D01*
X129691Y-91287D01*
X129761Y-91216D01*
X129799Y-91124D01*
X129799Y-91100D01*
X131100Y-91100D01*
X131008Y-91137D01*
X130938Y-91208D01*
X130900Y-91300D01*
X130899Y-91399D01*
X130900Y-91537D01*
X130962Y-91600D01*
X131400Y-91600D01*
X131400Y-91162D01*
X131337Y-91100D01*
X131562Y-91100D01*
X131500Y-91162D01*
X131500Y-91600D01*
X131507Y-91600D01*
X131507Y-91700D01*
X131500Y-91700D01*
X131500Y-92137D01*
X131562Y-92200D01*
X131799Y-92200D01*
X131891Y-92162D01*
X131961Y-92091D01*
X131999Y-91999D01*
X131999Y-91977D01*
X132138Y-92115D01*
X132340Y-92199D01*
X132558Y-92200D01*
X132761Y-92116D01*
X132915Y-91961D01*
X132949Y-91880D01*
X132983Y-91961D01*
X133138Y-92115D01*
X133340Y-92199D01*
X133558Y-92200D01*
X133761Y-92116D01*
X133915Y-91961D01*
X133949Y-91880D01*
X133983Y-91961D01*
X134138Y-92115D01*
X134340Y-92199D01*
X134558Y-92200D01*
X134761Y-92116D01*
X134915Y-91961D01*
X134949Y-91880D01*
X134983Y-91961D01*
X135138Y-92115D01*
X135340Y-92199D01*
X135558Y-92200D01*
X135761Y-92116D01*
X135915Y-91961D01*
X135949Y-91880D01*
X135983Y-91961D01*
X136138Y-92115D01*
X136340Y-92199D01*
X136558Y-92200D01*
X136761Y-92116D01*
X136915Y-91961D01*
X136999Y-91759D01*
X137000Y-91541D01*
X136916Y-91338D01*
X136761Y-91184D01*
X136559Y-91100D01*
X136425Y-91099D01*
X136540Y-91077D01*
X136540Y-91077D01*
X136637Y-91012D01*
X137130Y-90519D01*
X137130Y-96430D01*
X137130Y-96430D01*
G37*
G54D23*
X137130Y-96430D02*
X136258Y-96430D01*
X136420Y-96363D01*
X136716Y-96067D01*
X136876Y-95682D01*
X136876Y-95264D01*
X136717Y-94878D01*
X136422Y-94582D01*
X136036Y-94422D01*
X135618Y-94422D01*
X135232Y-94581D01*
X134937Y-94876D01*
X134776Y-95262D01*
X134776Y-95680D01*
X134936Y-96066D01*
X135231Y-96362D01*
X135395Y-96430D01*
X131400Y-96430D01*
X131400Y-92137D01*
X131400Y-91700D01*
X130962Y-91700D01*
X130900Y-91762D01*
X130899Y-91900D01*
X130900Y-91999D01*
X130938Y-92091D01*
X131008Y-92162D01*
X131100Y-92200D01*
X131337Y-92200D01*
X131400Y-92137D01*
X131400Y-96430D01*
X130746Y-96430D01*
X130746Y-93097D01*
X130746Y-92800D01*
X130746Y-92700D01*
X130746Y-92403D01*
X130685Y-92197D01*
X130551Y-92031D01*
X130362Y-91928D01*
X130334Y-91923D01*
X130250Y-91971D01*
X130250Y-92700D01*
X130746Y-92700D01*
X130746Y-92800D01*
X130250Y-92800D01*
X130250Y-93528D01*
X130334Y-93576D01*
X130362Y-93571D01*
X130551Y-93468D01*
X130685Y-93302D01*
X130746Y-93097D01*
X130746Y-96430D01*
X126809Y-96430D01*
X126971Y-96363D01*
X127267Y-96067D01*
X127427Y-95682D01*
X127428Y-95264D01*
X127268Y-94878D01*
X126973Y-94582D01*
X126587Y-94422D01*
X126170Y-94422D01*
X125783Y-94581D01*
X125488Y-94876D01*
X125328Y-95262D01*
X125327Y-95680D01*
X125487Y-96066D01*
X125782Y-96362D01*
X125946Y-96430D01*
X125269Y-96430D01*
X125269Y-94270D01*
X125308Y-94310D01*
X125465Y-94374D01*
X125634Y-94375D01*
X125790Y-94310D01*
X125910Y-94191D01*
X125974Y-94034D01*
X125975Y-93865D01*
X125963Y-93837D01*
X126287Y-94162D01*
X126287Y-94162D01*
X126385Y-94227D01*
X126500Y-94250D01*
X127850Y-94250D01*
X128400Y-94250D01*
X128400Y-94249D01*
X128514Y-94227D01*
X128514Y-94227D01*
X128612Y-94162D01*
X129170Y-93604D01*
X129200Y-93610D01*
X129409Y-93568D01*
X129586Y-93449D01*
X129704Y-93272D01*
X129705Y-93271D01*
X129714Y-93302D01*
X129848Y-93468D01*
X130037Y-93571D01*
X130065Y-93576D01*
X130150Y-93528D01*
X130150Y-92800D01*
X130142Y-92800D01*
X130142Y-92700D01*
X130150Y-92700D01*
X130150Y-91971D01*
X130065Y-91923D01*
X130037Y-91928D01*
X129848Y-92031D01*
X129714Y-92197D01*
X129705Y-92228D01*
X129704Y-92227D01*
X129586Y-92050D01*
X129409Y-91931D01*
X129200Y-91889D01*
X129117Y-91906D01*
X129587Y-91437D01*
X129587Y-91437D01*
X129652Y-91339D01*
X129660Y-91300D01*
X129691Y-91287D01*
X129761Y-91216D01*
X129799Y-91124D01*
X129799Y-91100D01*
X131100Y-91100D01*
X131008Y-91137D01*
X130938Y-91208D01*
X130900Y-91300D01*
X130899Y-91399D01*
X130900Y-91537D01*
X130962Y-91600D01*
X131400Y-91600D01*
X131400Y-91162D01*
X131337Y-91100D01*
X131562Y-91100D01*
X131500Y-91162D01*
X131500Y-91600D01*
X131507Y-91600D01*
X131507Y-91700D01*
X131500Y-91700D01*
X131500Y-92137D01*
X131562Y-92200D01*
X131799Y-92200D01*
X131891Y-92162D01*
X131961Y-92091D01*
X131999Y-91999D01*
X131999Y-91977D01*
X132138Y-92115D01*
X132340Y-92199D01*
X132558Y-92200D01*
X132761Y-92116D01*
X132915Y-91961D01*
X132949Y-91880D01*
X132983Y-91961D01*
X133138Y-92115D01*
X133340Y-92199D01*
X133558Y-92200D01*
X133761Y-92116D01*
X133915Y-91961D01*
X133949Y-91880D01*
X133983Y-91961D01*
X134138Y-92115D01*
X134340Y-92199D01*
X134558Y-92200D01*
X134761Y-92116D01*
X134915Y-91961D01*
X134949Y-91880D01*
X134983Y-91961D01*
X135138Y-92115D01*
X135340Y-92199D01*
X135558Y-92200D01*
X135761Y-92116D01*
X135915Y-91961D01*
X135949Y-91880D01*
X135983Y-91961D01*
X136138Y-92115D01*
X136340Y-92199D01*
X136558Y-92200D01*
X136761Y-92116D01*
X136915Y-91961D01*
X136999Y-91759D01*
X137000Y-91541D01*
X136916Y-91338D01*
X136761Y-91184D01*
X136559Y-91100D01*
X136425Y-91099D01*
X136540Y-91077D01*
X136540Y-91077D01*
X136637Y-91012D01*
X137130Y-90519D01*
X137130Y-96430D01*
M02*
