M48
;DRILL file {Pcbnew (2013-07-07 BZR 4022)-stable} date 09/06/2014 3:50:20 p. m.
;FORMAT={2:4/ absolute / inch / keep zeros}
FMAT,2
INCH,TZ
T1C0.025
T2C0.030
T3C0.031
T4C0.039
T5C0.040
T6C0.120
%
G90
G05
M72
T1
X125550Y-093950
X128390Y-084750
X128470Y-085730
X129500Y-075700
X130104Y-082868
X131600Y-089700
X131700Y-086550
X131950Y-088600
X132630Y-087370
X132900Y-089600
X133444Y-085340
X133590Y-087210
X133668Y-089158
X134880Y-087903
T2
X132400Y-082400
X134400Y-082400
T3
X126070Y-073326
X126070Y-074114
X126070Y-074901
X126070Y-075689
X126070Y-076476
X126070Y-077263
X126070Y-078051
X126070Y-078838
X126070Y-079626
X126070Y-080413
X134730Y-073326
X134730Y-074114
X134730Y-074901
X134730Y-075689
X134730Y-076476
X134730Y-077263
X134730Y-078051
X134730Y-078838
X134730Y-079626
X134730Y-080413
T4
X125850Y-092750
X126850Y-092750
X127850Y-092750
X129200Y-092750
X130200Y-092750
T5
X126200Y-082500
X126200Y-083500
X126260Y-085290
X126260Y-086290
X126260Y-087290
X126260Y-088290
X127200Y-082500
X127200Y-083500
X128200Y-082500
X128200Y-083500
X131450Y-091650
X132450Y-091650
X133450Y-091650
X134450Y-091650
X135450Y-091650
X136400Y-086700
X136400Y-087700
X136400Y-088700
X136400Y-089700
X136450Y-091650
T6
X126378Y-071260
X126378Y-095472
X135827Y-071260
X135827Y-095472
T0
M30
